<?xml version="1.0" encoding="UTF-8" standalone="no"?>
<svg
   width="1000"
   height="1000"
   viewBox="0 0 1000 1000"
   version="1.1"
   id="svg78"
   sodipodi:docname="io.github.archisman_panigrahi.QuickBib.svg"
   inkscape:version="1.4.3 (1:1.4.3+202512261035+0d15f75042)"
   xmlns:inkscape="http://www.inkscape.org/namespaces/inkscape"
   xmlns:sodipodi="http://sodipodi.sourceforge.net/DTD/sodipodi-0.dtd"
   xmlns:xlink="http://www.w3.org/1999/xlink"
   xmlns="http://www.w3.org/2000/svg"
   xmlns:svg="http://www.w3.org/2000/svg">
  <sodipodi:namedview
     id="namedview78"
     pagecolor="#ffffff"
     bordercolor="#000000"
     borderopacity="0.25"
     inkscape:showpageshadow="2"
     inkscape:pageopacity="0.0"
     inkscape:pagecheckerboard="0"
     inkscape:deskcolor="#d1d1d1"
     inkscape:zoom="0.49988472"
     inkscape:cx="1180.2721"
     inkscape:cy="352.08118"
     inkscape:window-width="1852"
     inkscape:window-height="1048"
     inkscape:window-x="68"
     inkscape:window-y="32"
     inkscape:window-maximized="1"
     inkscape:current-layer="g3"
     showguides="false">
    <sodipodi:guide
       position="-377.11838,937.32476"
       orientation="0,-1"
       id="guide75"
       inkscape:locked="false" />
    <sodipodi:guide
       position="112.88341,947.75699"
       orientation="1,0"
       id="guide1"
       inkscape:locked="false" />
    <sodipodi:guide
       position="871.66303,202.08489"
       orientation="1,0"
       id="guide3"
       inkscape:locked="false" />
    <sodipodi:guide
       position="859.89053,48.192928"
       orientation="0,-1"
       id="guide4"
       inkscape:locked="false" />
    <sodipodi:guide
       position="903.35215,120.67493"
       orientation="1,0"
       id="guide5"
       inkscape:locked="false" />
    <sodipodi:guide
       position="205.12614,85.668076"
       orientation="0,-1"
       id="guide19"
       inkscape:locked="false" />
  </sodipodi:namedview>
  <defs
     id="defs4">
    <linearGradient
       id="linearGradient32"
       inkscape:collect="always">
      <stop
         style="stop-color:#eff6eb;stop-opacity:1;"
         offset="0.48272911"
         id="stop31" />
      <stop
         style="stop-color:#656762;stop-opacity:1;"
         offset="0.55748373"
         id="stop32" />
    </linearGradient>
    <linearGradient
       id="linearGradient12"
       inkscape:collect="always">
      <stop
         style="stop-color:#eff6eb;stop-opacity:1;"
         offset="0.48373103"
         id="stop16" />
      <stop
         style="stop-color:#656762;stop-opacity:1;"
         offset="0.54880697"
         id="stop19" />
    </linearGradient>
    <linearGradient
       id="linearGradient18"
       inkscape:collect="always">
      <stop
         style="stop-color:#eff6eb;stop-opacity:1;"
         offset="0"
         id="stop17" />
      <stop
         style="stop-color:#bfbfbf;stop-opacity:0;"
         offset="1"
         id="stop18" />
    </linearGradient>
    <linearGradient
       id="linearGradient14"
       inkscape:collect="always">
      <stop
         style="stop-color:#00ffff;stop-opacity:1;"
         offset="0"
         id="stop14" />
      <stop
         style="stop-color:#a82fd8;stop-opacity:1;"
         offset="1"
         id="stop15" />
    </linearGradient>
    <linearGradient
       id="linearGradient10"
       inkscape:collect="always">
      <stop
         style="stop-color:#f75050;stop-opacity:1;"
         offset="0"
         id="stop12" />
      <stop
         style="stop-color:#f7b250;stop-opacity:1;"
         offset="1"
         id="stop13" />
    </linearGradient>
    <linearGradient
       id="linearGradient2"
       inkscape:collect="always">
      <stop
         style="stop-color:#697ada;stop-opacity:1;"
         offset="0.04388713"
         id="stop2" />
      <stop
         style="stop-color:#a85bd8;stop-opacity:1;"
         offset="0.72413796"
         id="stop5" />
    </linearGradient>
    <linearGradient
       id="linearGradient5"
       inkscape:collect="always">
      <stop
         style="stop-color:#697ada;stop-opacity:1;"
         offset="0.45454547"
         id="stop10" />
      <stop
         style="stop-color:#4b9ddc;stop-opacity:1;"
         offset="0.76802504"
         id="stop11" />
    </linearGradient>
    <linearGradient
       id="linearGradient94"
       gradientUnits="userSpaceOnUse"
       x1="493.11652"
       y1="299.06982"
       x2="448.64551"
       y2="242.48683"
       spreadMethod="pad">
      <stop
         offset="0"
         stop-color="#7F5BD8"
         id="stop91" />
      <stop
         offset="1"
         stop-color="#4699DC"
         id="stop94"
         style="stop-color:#2db5d6;stop-opacity:1;" />
    </linearGradient>
    <linearGradient
       id="linearGradient87"
       gradientUnits="userSpaceOnUse"
       x1="493.11652"
       y1="299.06982"
       x2="448.64551"
       y2="242.48683"
       spreadMethod="pad">
      <stop
         offset="0"
         stop-color="#7F5BD8"
         id="stop84" />
      <stop
         offset="0.67241377"
         stop-color="#7F5BD8"
         id="stop85"
         style="stop-color:#627ada;stop-opacity:1;" />
      <stop
         offset="1"
         stop-color="#4699DC"
         id="stop87"
         style="stop-color:#2db5d6;stop-opacity:1;" />
    </linearGradient>
    <linearGradient
       id="linearGradient83"
       gradientUnits="userSpaceOnUse"
       x1="493.11652"
       y1="299.06982"
       x2="448.64551"
       y2="242.48683"
       spreadMethod="pad">
      <stop
         offset="0"
         stop-color="#7F5BD8"
         id="stop80" />
      <stop
         offset="0.93181819"
         stop-color="#7F5BD8"
         id="stop82"
         style="stop-color:#4699dc;stop-opacity:1;" />
      <stop
         offset="1"
         stop-color="#4699DC"
         id="stop83"
         style="stop-color:#2db5d6;stop-opacity:1;" />
    </linearGradient>
    <linearGradient
       id="linearGradient79"
       gradientUnits="userSpaceOnUse"
       x1="493.11652"
       y1="299.06982"
       x2="448.64551"
       y2="242.48683">
      <stop
         offset="0"
         stop-color="#7F5BD8"
         id="stop76" />
      <stop
         offset="0.93181819"
         stop-color="#7F5BD8"
         id="stop78"
         style="stop-color:#4699dc;stop-opacity:1;" />
      <stop
         offset="1"
         stop-color="#4699DC"
         id="stop79"
         style="stop-color:#2db5d6;stop-opacity:1;" />
    </linearGradient>
    <linearGradient
       id="linearGradient6"
       inkscape:collect="always">
      <stop
         style="stop-color:#eff6eb;stop-opacity:1;"
         offset="0"
         id="stop6" />
      <stop
         style="stop-color:#bfbfbf;stop-opacity:0;"
         offset="1"
         id="stop9" />
    </linearGradient>
    <linearGradient
       id="gradient_0"
       gradientUnits="userSpaceOnUse"
       x1="853.3233"
       y1="579.71228"
       x2="866.89374"
       y2="584.49927"
       gradientTransform="matrix(2.02564,0,0,2.02524,-848.522,-289.82295)">
      <stop
         offset="0"
         stop-color="#9BBBC1"
         id="stop3" />
      <stop
         offset="1"
         stop-color="#C2E2E3"
         id="stop4" />
    </linearGradient>
    <filter
       style="color-interpolation-filters:sRGB"
       inkscape:label="Blur"
       id="filter79"
       x="-0.15228334"
       y="-0.050959725"
       width="1.3045667"
       height="1.1019194">
      <feGaussianBlur
         stdDeviation="5 5"
         result="blur"
         id="feGaussianBlur79" />
    </filter>
    <filter
       style="color-interpolation-filters:sRGB"
       inkscape:label="Blur"
       id="filter54"
       x="-0.067016222"
       y="-0.066529647"
       width="1.1340324"
       height="1.1330593">
      <feGaussianBlur
         stdDeviation="5 5"
         result="blur"
         id="feGaussianBlur54" />
    </filter>
    <filter
       style="color-interpolation-filters:sRGB"
       inkscape:label="Blur"
       id="filter55"
       x="-0.15212846"
       y="-0.051816847"
       width="1.3042569"
       height="1.1036336">
      <feGaussianBlur
         stdDeviation="5 5"
         result="blur"
         id="feGaussianBlur55" />
    </filter>
    <filter
       style="color-interpolation-filters:sRGB"
       inkscape:label="Blur"
       id="filter56"
       x="-0.30425692"
       y="-0.1036337"
       width="1.6085138"
       height="1.2072674">
      <feGaussianBlur
         stdDeviation="10 10"
         result="blur"
         id="feGaussianBlur56" />
    </filter>
    <filter
       style="color-interpolation-filters:sRGB"
       inkscape:label="Blur"
       id="filter57"
       x="-0.30456668"
       y="-0.10346953"
       width="1.6091332"
       height="1.2069391">
      <feGaussianBlur
         stdDeviation="10 10"
         result="blur"
         id="feGaussianBlur57" />
    </filter>
    <filter
       style="color-interpolation-filters:sRGB"
       inkscape:label="Blur"
       id="filter58"
       x="-0.13403244"
       y="-0.13305929"
       width="1.2680649"
       height="1.2661186">
      <feGaussianBlur
         stdDeviation="10 10"
         result="blur"
         id="feGaussianBlur58" />
    </filter>
    <filter
       style="color-interpolation-filters:sRGB"
       inkscape:label="Blur"
       id="filter59"
       x="-0.15020324"
       y="-0.051171072"
       width="1.3004065"
       height="1.1023421">
      <feGaussianBlur
         stdDeviation="10 10"
         result="blur"
         id="feGaussianBlur59" />
    </filter>
    <linearGradient
       inkscape:collect="always"
       xlink:href="#linearGradient18"
       id="linearGradient9"
       x1="745.58997"
       y1="879.23328"
       x2="882.87695"
       y2="1020.7628"
       gradientUnits="userSpaceOnUse"
       gradientTransform="matrix(1.127958,0,0,1.127958,-10.72864,-29.018138)" />
    <linearGradient
       inkscape:collect="always"
       xlink:href="#linearGradient10"
       id="linearGradient13"
       x1="497.74738"
       y1="723.77527"
       x2="497.74738"
       y2="361.06189"
       gradientUnits="userSpaceOnUse"
       gradientTransform="translate(32.296449,47.999671)" />
    <linearGradient
       inkscape:collect="always"
       xlink:href="#linearGradient14"
       id="linearGradient15"
       x1="498.09906"
       y1="194.83521"
       x2="498.09906"
       y2="875.98743"
       gradientUnits="userSpaceOnUse" />
    <linearGradient
       inkscape:collect="always"
       xlink:href="#linearGradient6"
       id="linearGradient1"
       gradientUnits="userSpaceOnUse"
       gradientTransform="matrix(0,-1.127958,1.127958,0,-168.35825,1011.618)"
       x1="745.58997"
       y1="879.23328"
       x2="882.87695"
       y2="1020.7628" />
    <filter
       style="color-interpolation-filters:sRGB"
       inkscape:label="Blur"
       id="filter12"
       x="-0.1054232"
       y="-0.10519264"
       width="1.2108464"
       height="1.2103853">
      <feGaussianBlur
         stdDeviation="10 10"
         result="blur"
         id="feGaussianBlur12" />
    </filter>
    <filter
       style="color-interpolation-filters:sRGB"
       inkscape:label="Blur"
       id="filter19"
       x="-0.052851624"
       y="-0.076756604"
       width="1.1057032"
       height="1.1535132">
      <feGaussianBlur
         stdDeviation="15 15"
         result="blur"
         id="feGaussianBlur19" />
    </filter>
    <filter
       style="color-interpolation-filters:sRGB"
       inkscape:label="Blur"
       id="filter20"
       x="-0.16541985"
       y="-0.16425074"
       width="1.3308397"
       height="1.3285015">
      <feGaussianBlur
         stdDeviation="25 25"
         result="blur"
         id="feGaussianBlur20" />
    </filter>
    <filter
       style="color-interpolation-filters:sRGB"
       inkscape:label="Blur"
       id="filter43"
       x="-0.11629507"
       y="-0.11031259"
       width="1.2325901"
       height="1.2206252">
      <feGaussianBlur
         stdDeviation="15 15"
         result="blur"
         id="feGaussianBlur43" />
    </filter>
    <filter
       style="color-interpolation-filters:sRGB"
       inkscape:label="Blur"
       id="filter5"
       x="-0.0010569902"
       y="-4.5369315"
       width="1.0021141"
       height="10.073863">
      <feGaussianBlur
         stdDeviation="0.01 4.4"
         result="blur"
         id="feGaussianBlur5" />
    </filter>
    <linearGradient
       inkscape:collect="always"
       xlink:href="#linearGradient12"
       id="linearGradient19"
       x1="422.99561"
       y1="1330.1832"
       x2="422.99561"
       y2="789.50208"
       gradientUnits="userSpaceOnUse"
       gradientTransform="matrix(1.0040303,0,0,1,28.581189,49.999671)" />
    <filter
       style="color-interpolation-filters:sRGB"
       inkscape:label="Blur"
       id="filter21"
       x="-4.4319542e-05"
       y="-0.23595572"
       width="1.0000886"
       height="1.4719114">
      <feGaussianBlur
         stdDeviation="0.01 2"
         result="blur"
         id="feGaussianBlur21" />
    </filter>
    <linearGradient
       inkscape:collect="always"
       xlink:href="#linearGradient32"
       id="linearGradient21"
       gradientUnits="userSpaceOnUse"
       gradientTransform="matrix(0.42558704,-0.40843022,0.88122941,0.84866925,-682.29218,317.39969)"
       x1="422.99561"
       y1="1330.1832"
       x2="422.99561"
       y2="789.50208" />
    <filter
       style="color-interpolation-filters:sRGB"
       inkscape:label="Blur"
       id="filter36"
       x="-0.00020818557"
       y="-0.054579264"
       width="1.0004164"
       height="1.1091585">
      <feGaussianBlur
         stdDeviation="0.01 1"
         result="fbSourceGraphic"
         id="feGaussianBlur36" />
      <feColorMatrix
         result="fbSourceGraphicAlpha"
         in="fbSourceGraphic"
         values="0 0 0 -1 0 0 0 0 -1 0 0 0 0 -1 0 0 0 0 1 0"
         id="feColorMatrix37" />
      <feGaussianBlur
         id="feGaussianBlur37"
         stdDeviation="0.01 4.3"
         result="blur"
         in="fbSourceGraphic" />
    </filter>
    <filter
       style="color-interpolation-filters:sRGB"
       inkscape:label="Blur"
       id="filter38"
       x="-0.029363018"
       y="-0.0011797786"
       width="1.058726"
       height="1.0023596">
      <feGaussianBlur
         stdDeviation="6.652 0.01"
         result="blur"
         id="feGaussianBlur38" />
    </filter>
    <linearGradient
       inkscape:collect="always"
       xlink:href="#linearGradient12"
       id="linearGradient41"
       gradientUnits="userSpaceOnUse"
       gradientTransform="matrix(1.0040303,0,0,1,-33.179169,-27.642606)"
       x1="422.99561"
       y1="1330.1832"
       x2="422.99561"
       y2="789.50208" />
    <filter
       style="color-interpolation-filters:sRGB"
       inkscape:label="Blur"
       id="filter42"
       x="-0.057065121"
       y="-0.043916985"
       width="1.1141302"
       height="1.087834">
      <feGaussianBlur
         stdDeviation="10 10"
         result="fbSourceGraphic"
         id="feGaussianBlur42" />
      <feColorMatrix
         result="fbSourceGraphicAlpha"
         in="fbSourceGraphic"
         values="0 0 0 -1 0 0 0 0 -1 0 0 0 0 -1 0 0 0 0 1 0"
         id="feColorMatrix42" />
      <feGaussianBlur
         id="feGaussianBlur44"
         stdDeviation="10 10"
         result="blur"
         in="fbSourceGraphic" />
    </filter>
    <linearGradient
       inkscape:collect="always"
       xlink:href="#linearGradient2"
       id="linearGradient44"
       gradientUnits="userSpaceOnUse"
       x1="1034.5039"
       y1="602.45422"
       x2="1149.1548"
       y2="602.45422" />
    <linearGradient
       inkscape:collect="always"
       xlink:href="#gradient_1"
       id="linearGradient45"
       gradientUnits="userSpaceOnUse"
       x1="493.11652"
       y1="299.06982"
       x2="448.64551"
       y2="242.48683" />
    <linearGradient
       inkscape:collect="always"
       xlink:href="#linearGradient2"
       id="linearGradient46"
       gradientUnits="userSpaceOnUse"
       x1="516.29449"
       y1="275.32382"
       x2="543.28473"
       y2="302.31412"
       gradientTransform="matrix(3.1177029,0,0,3.1170872,-355.80948,-110.21755)" />
    <linearGradient
       inkscape:collect="always"
       xlink:href="#linearGradient5"
       id="linearGradient48"
       gradientUnits="userSpaceOnUse"
       gradientTransform="matrix(3.1177028,0,0,3.1170872,-357.34817,-110.06368)"
       x1="555.37958"
       y1="263.21198"
       x2="481.38666"
       y2="189.21907" />
    <linearGradient
       inkscape:collect="always"
       xlink:href="#linearGradient10"
       id="linearGradient49"
       gradientUnits="userSpaceOnUse"
       x1="497.74738"
       y1="723.77527"
       x2="497.74738"
       y2="361.06189"
       gradientTransform="translate(32.296449,47.999671)" />
    <linearGradient
       inkscape:collect="always"
       xlink:href="#linearGradient14"
       id="linearGradient51"
       gradientUnits="userSpaceOnUse"
       x1="498.09906"
       y1="194.83521"
       x2="498.09906"
       y2="875.98743" />
    <linearGradient
       inkscape:collect="always"
       xlink:href="#linearGradient14"
       id="linearGradient52"
       gradientUnits="userSpaceOnUse"
       x1="498.09906"
       y1="194.83521"
       x2="498.09906"
       y2="875.98743" />
    <linearGradient
       inkscape:collect="always"
       xlink:href="#linearGradient14"
       id="linearGradient53"
       gradientUnits="userSpaceOnUse"
       x1="498.09906"
       y1="194.83521"
       x2="498.09906"
       y2="875.98743" />
    <linearGradient
       inkscape:collect="always"
       xlink:href="#linearGradient14"
       id="linearGradient54"
       gradientUnits="userSpaceOnUse"
       x1="498.09906"
       y1="194.83521"
       x2="498.09906"
       y2="875.98743" />
    <linearGradient
       inkscape:collect="always"
       xlink:href="#linearGradient14"
       id="linearGradient55"
       gradientUnits="userSpaceOnUse"
       x1="498.09906"
       y1="194.83521"
       x2="498.09906"
       y2="875.98743" />
    <filter
       style="color-interpolation-filters:sRGB;"
       inkscape:label="Blur"
       id="filter18"
       x="-0.07555946"
       y="-0.071672512"
       width="1.1511189"
       height="1.143345">
      <feGaussianBlur
         stdDeviation="15 15"
         result="blur"
         id="feGaussianBlur18" />
    </filter>
    <linearGradient
       inkscape:collect="always"
       xlink:href="#linearGradient2"
       id="linearGradient20"
       gradientUnits="userSpaceOnUse"
       x1="1034.5039"
       y1="602.45422"
       x2="1149.1548"
       y2="602.45422" />
    <linearGradient
       inkscape:collect="always"
       xlink:href="#gradient_1"
       id="linearGradient22"
       gradientUnits="userSpaceOnUse"
       x1="493.11652"
       y1="299.06982"
       x2="448.64551"
       y2="242.48683" />
    <linearGradient
       inkscape:collect="always"
       xlink:href="#linearGradient2"
       id="linearGradient23"
       gradientUnits="userSpaceOnUse"
       x1="516.29449"
       y1="275.32382"
       x2="543.28473"
       y2="302.31412" />
    <linearGradient
       inkscape:collect="always"
       xlink:href="#linearGradient5"
       id="linearGradient24"
       gradientUnits="userSpaceOnUse"
       gradientTransform="matrix(2.02564,0,0,2.02524,-0.9996705,0.09997228)"
       x1="555.37958"
       y1="263.21198"
       x2="481.38666"
       y2="189.21907" />
  </defs>
  <defs
     id="defs8">
    <linearGradient
       id="gradient_1"
       gradientUnits="userSpaceOnUse"
       x1="493.11652"
       y1="299.06982"
       x2="448.64551"
       y2="242.48683"
       xlink:href="#linearGradient87">
      <stop
         offset="0"
         stop-color="#7F5BD8"
         id="stop7" />
      <stop
         offset="0.67241377"
         stop-color="#7F5BD8"
         id="stop74"
         style="stop-color:#627ada;stop-opacity:1;" />
      <stop
         offset="1"
         stop-color="#4699DC"
         id="stop8"
         style="stop-color:#2db5d6;stop-opacity:1;" />
    </linearGradient>
  </defs>
  <defs
     id="defs45">
    <linearGradient
       id="gradient_2"
       gradientUnits="userSpaceOnUse"
       x1="529.26324"
       y1="304.47202"
       x2="524.7594"
       y2="300.47388">
      <stop
         offset="0"
         stop-color="#8F7CA6"
         id="stop44" />
      <stop
         offset="1"
         stop-color="#8368B6"
         id="stop45" />
    </linearGradient>
  </defs>
  <defs
     id="defs48">
    <linearGradient
       id="gradient_3"
       gradientUnits="userSpaceOnUse"
       x1="487.36298"
       y1="300.91245"
       x2="459.03815"
       y2="328.13477">
      <stop
         offset="0"
         stop-color="#6D4FD1"
         id="stop47" />
      <stop
         offset="1"
         stop-color="#8C68DA"
         id="stop48" />
    </linearGradient>
  </defs>
  <g
     id="g60"
     transform="matrix(0.73708725,0,0,0.73708725,131.71271,156.29783)">
    <g
       id="g59"
       transform="translate(100)">
      <g
         id="g57"
         transform="translate(-99.999951)" />
    </g>
    <g
       id="g3"
       transform="matrix(0.91867962,0,0,0.91867962,25.538096,-80.21194)">
      <rect
         style="fill:#e9ddaf;stroke-width:2.7545;stroke-linecap:round"
         id="rect1"
         width="1119.6879"
         height="1316.5559"
         x="-28.035765"
         y="-63.391838"
         ry="108.62643" />
      <path
         id="path42"
         style="fill:#bcc1b9;fill-opacity:1;stroke-width:2.02544;filter:url(#filter42)"
         d="m 688.49567,48.003577 c -13.51735,-0.03392 -27.40116,0.18439 -34.3086,0.189453 l -136.3789,0.0957 -226.65625,-0.06055 c -38.34131,-0.0081 -77.9659,-0.614579 -116.3457,0.738282 -22.37522,0.789843 -36.94019,9.601079 -51.70508,26.234375 -3.25926,3.67176 -10.56088,14.654995 -10.11524,19.68164 -0.17389,8.231953 -0.32821,850.762053 0.0723,926.330123 10.12603,50.2228 59.5125,76.9566 73.95898,82.0882 l -5.43302,-0.074 c 7.47866,19.8879 16.70238,27.0447 37.76701,34.4389 7.12215,2.4991 17.09352,2.0328 24.6289,2.9199 32.03347,0.6318 64.27859,0.3084 96.32422,0.2598 l 175.97266,-0.1504 213.5332,-0.029 c 39.28729,0.055 102.75201,0.068 141.83399,0.2494 8.37275,0.039 32.32942,-22.5932 31.97234,-44.3914 l -0.40079,-171.68748 c 39.3822,-39.0737 -10.78148,10.75607 49.30047,-48.91372 2.15687,-2.14208 1.23436,-8.62042 1.25496,-15.73679 0.19744,-68.11145 -0.0371,-314.42992 0.0234,-575.92969 C 953.37122,274.04427 745.34021,71.228669 720.60309,49.329749 715.16324,48.324217 702.01302,48.0375 688.49567,48.003577 Z"
         sodipodi:nodetypes="sccccccccccccccsccscccs"
         transform="matrix(1.1279581,0,0,1.1279581,-48.996605,-80.70029)" />
      <path
         id="path2"
         style="fill:#eff6eb;fill-opacity:1;stroke-width:2.28461"
         d="m 727.59763,-26.554269 c -15.247,-0.03827 -30.90736,0.207985 -38.69866,0.213695 l -153.82968,0.107946 -255.65874,-0.0683 c -43.24739,-0.0091 -87.94226,-0.693218 -131.23307,0.832752 -25.23831,0.89091 -41.66698,10.829614 -58.321167,29.5912738 -3.676311,4.1415909 -11.912225,16.5302202 -11.409561,22.2000642 -0.196144,9.285298 -0.370209,959.623928 0.0815,1044.861538 11.42174,56.6492 77.294418,92.5085 77.294418,92.5085 8.43562,22.4328 18.83959,30.5054 42.5996,38.8457 8.03349,2.8189 19.28078,2.2929 27.78037,3.2935 36.13241,0.7126 72.50355,0.3479 108.64968,0.2931 l 198.48978,-0.1696 240.85649,-0.033 c 44.31441,0.062 115.89995,0.077 159.98278,0.2813 9.44412,0.044 36.46624,-25.4842 36.06347,-50.0716 l -0.45208,-193.65626 c 44.42154,-44.07354 -12.16106,12.13237 55.60894,-55.17268 2.4329,-2.41617 1.3923,-9.72346 1.4155,-17.75043 0.2227,-76.82686 -0.042,-354.66376 0.026,-649.62453 -0.4775,-11.51876 -235.12777,-240.28625563 -263.03021,-264.987318 -6.13592,-1.134198 -20.96882,-1.457603 -36.21582,-1.495866 z"
         sodipodi:nodetypes="scccccccccccccsccscccs" />
      <path
         style="fill:#4d5a65;fill-opacity:0.291667;stroke:none;stroke-width:0.5;stroke-dasharray:none;stroke-opacity:1;filter:url(#filter12)"
         d="M 914.97166,233.35312 687.31886,5.2002712 V 184.76986 c -0.13809,31.82184 12.98596,50.87271 48.79036,48.08326 z"
         id="path17"
         sodipodi:nodetypes="ccccc"
         transform="matrix(1.1279581,0,0,-1.1279581,-18.055639,1168.2625)" />
      <g
         id="g36"
         style="filter:url(#filter36)"
         transform="matrix(1.1279581,0,0,1.1279581,415.6073,-138.51266)">
        <path
           style="fill:url(#linearGradient21);fill-opacity:1;stroke:none;stroke-width:0.849175px;stroke-linecap:butt;stroke-linejoin:miter;stroke-opacity:1"
           d="m 311.30686,1149.3704 230.31628,-221.31695 0.24724,13.0184 -208.66068,220.03715 -20.84724,-0.1549 z"
           id="path21"
           sodipodi:nodetypes="cccccc" />
      </g>
      <path
         style="fill:url(#linearGradient9);stroke:none;stroke-width:0.563979;stroke-dasharray:none;stroke-opacity:1"
         d="M 768.74725,1163.334 1026.0941,906.55116 H 823.54713 c -35.8937,-0.15576 -57.38228,14.64761 -54.23589,55.03353 z"
         id="path5"
         sodipodi:nodetypes="ccccc" />
      <path
         style="fill:#4d5a65;fill-opacity:0.291667;stroke:none;stroke-width:0.5;stroke-dasharray:none;stroke-opacity:1;filter:url(#filter12)"
         d="M 945.26811,283.35279 717.61531,55.199942 V 234.76953 c -0.13809,31.82184 12.98596,50.87271 48.79036,48.08326 z"
         id="path6"
         sodipodi:nodetypes="ccccc"
         transform="matrix(1.1279581,0,0,1.1279581,-48.996605,-80.70029)" />
      <path
         style="fill:url(#linearGradient1);stroke:none;stroke-width:0.563979;stroke-dasharray:none;stroke-opacity:1"
         d="M 1023.9939,232.14203 767.21111,-25.20482 v 202.54697 c -0.15576,35.89369 14.64762,57.38227 55.03347,54.23589 z"
         id="path1"
         sodipodi:nodetypes="ccccc" />
      <g
         id="g56"
         transform="matrix(1.0794667,0,0,1.0794667,1400.1434,73.118464)">
        <g
           id="g20"
           transform="translate(-1271.6381,-213.24199)">
          <g
             id="g67"
             transform="matrix(1.5391199,0,0,1.5391199,-1473.7337,-369.46481)">
            <g
               id="g68"
               transform="translate(-476.5,69.5)">
              <g
                 id="g73"
                 transform="translate(483.20047,-68.400378)">
                <g
                   id="g12"
                   transform="translate(193.69998,10.6802)">
                  <g
                     id="g1">
                    <g
                       id="g2"
                       style="fill:url(#linearGradient20)" />
                  </g>
                  <g
                     id="g8">
                    <g
                       id="g5">
                      <path
                         id="path75"
                         style="fill:#2db5d6;fill-opacity:1;stroke-width:2.02544"
                         d="m 855.17309,361.2702 c -4.17851,2.51648 -4.63392,4.83447 -1.82031,10.52539 24.34961,31.44285 23.72423,30.34742 72.38281,93.60743 4.08957,-3.34187 29.58822,-27.78975 41.02438,-34.608 0.81878,-0.48816 -48.55922,-63.10189 -54.68649,-69.40568 -17.09492,-0.0691 -23.88134,-0.0991 -26.58203,-0.11132 -6.25473,-0.0263 -15.87315,-0.12579 -30.31836,-0.008 z m 70.5625,104.13282 c -0.26309,0.21499 -0.4093,0.34521 -0.41992,0.3789 v 0.002 0.002 0.002 h 0.002 v 0.002 h 0.002 0.002 c 0.0333,0.002 0.19518,-0.0866 0.49805,-0.27539 -0.0283,-0.0368 -0.0557,-0.0746 -0.084,-0.11132 z m -20.34558,-94.41228 c 7.86151,9.68267 38.77507,47.66339 46.32463,57.63567 -22.94134,19.01759 -0.47229,0.31544 -24.1978,19.86245 -0.51506,-0.62469 -56.25878,-71.73662 -60.02746,-77.41414 12.06471,-0.20049 37.90063,-0.084 37.90063,-0.084 z"
                         sodipodi:nodetypes="cccsccccccccccccccscscccss" />
                      <g
                         id="g100">
                        <path
                           id="path94"
                           style="fill:url(#linearGradient22)"
                           d="m 494.92809,215.33168 c -4.25845,-0.12837 -8.28295,0.36423 -11.86353,1.43116 -2.20951,0.79557 -4.19739,1.88615 -6.66128,3.4611 -1.96715,1.25725 -4.09673,2.91152 -5.80585,4.59735 -16.04559,16.3057 -31.65743,33.07377 -46.06854,50.85046 -1.32314,1.73226 -2.69466,4.1026 -3.65818,5.66677 -2.39109,6.08588 -3.58075,11.56629 -3.47305,16.73991 0.12859,2.27326 0.45664,4.66829 1.0288,7.15193 1.49466,5.47008 4.62705,10.7375 9.52438,16.20564 9.85707,7.55167 14.9991,9.01967 26.62818,8.35365 4.19989,-0.24053 6.45924,-1.51407 9.59494,-2.58562 11.34762,-5.66779 19.10752,-15.79405 27.18855,-25.15906 2.68,-3.295 7.27199,-7.82981 7.13799,-11.89481 -10.54949,-0.19678 -13.9589,-1.23307 -20.45457,-4.14109 -2.05893,1.99193 -4.09332,4.49761 -5.97227,6.70155 h -9.6e-4 v 9.7e-4 c -3.37211,3.83615 -9.99179,11.66538 -13.66466,14.53628 -1.065,1.317 -5.13405,2.74681 -6.75905,2.84881 -7.345,0.535 -13.20439,-6.55705 -13.51039,-13.48605 -0.338,-7.664 8.43946,-15.46174 13.42746,-20.99674 10.59816,-11.54319 26.20707,-29.98756 32.57901,-35.51263 10.54588,-11.60523 16.90764,-1.48468 25.92527,3.95558 3.16526,-2.66922 5.04171,-5.26641 7.43071,-7.94541 1.649,-1.868 3.06078,-3.90344 4.53078,-5.91944 -4.486,-6.679 -10.46201,-10.78479 -17.85701,-13.65579 -0.002,-2.6e-4 -0.003,-7e-4 -0.005,-9.6e-4 -3.02312,-0.68795 -5.63604,-0.92984 -8.15521,-1.15727 -0.36396,-0.0198 -0.72594,-0.0354 -1.08666,-0.0463 z m -1.21586,5.79406 c 7.359,-0.218 13.06674,1.75482 18.51074,6.72182 0.84,0.773 2.25705,1.80858 3.05305,2.62658 l -6.00698,6.73791 c -1.3908,-1.54058 -3.36863,-3.35861 -4.73461,-4.40006 -17.73113,-13.51855 -33.32236,12.93634 -45.48813,25.46792 -6.29685,6.84885 -7.59271,8.36954 -12.87691,14.26527 -6.598,6.472 -13.47539,13.43855 -13.53739,23.38555 -0.089,14.147 10.50708,21.84553 24.02308,19.13353 8.995,-4.487 13.9358,-10.90941 19.9098,-18.67641 l 2.33336,-2.62218 1.06352,-0.99718 c 3.481,0.377 6.78028,1.58949 9.99828,1.89649 l -3.43014,3.71916 -1.12137,1.41091 c -8.635,9.808 -15.15355,19.50757 -27.61955,23.65557 -3.76315,0.42098 -3.68089,0.66582 -8.88704,0.51016 h -9.7e-4 c -22.753,-3.084 -32.81321,-25.37471 -19.65621,-44.42471 8.68458,-11.62571 19.04084,-21.87089 28.7226,-32.66299 9.893,-11.111 20.02587,-25.28334 35.74487,-25.74734 z"
                           transform="scale(2.02564,2.02524)"
                           sodipodi:nodetypes="cccscccccsccccccccccccccccccccccccscccccccccccccccc" />
                      </g>
                      <path
                         id="path40"
                         style="fill:url(#linearGradient23)"
                         d="m 529.38244,268.53241 c -3.16,3.462 -7.09278,7.08856 -10.50178,10.19956 l -8.17647,6.27782 c 8.29683,11.14812 13.47915,17.21714 35.22181,41.20986 11.53781,-0.0211 28.06216,2.21289 19.11045,-12.05256 0.18744,-0.019 -16.90739,-20.92272 -35.65401,-45.63468 z m 0.079,9.41495 c 4.58598,5.85652 21.84581,29.90236 26.98804,35.68588 9.73947,9.71885 -1.65212,7.37948 -7.61851,6.23668 -10.32335,-11.35962 -24.76874,-27.03592 -29.18865,-32.93261 3.91638,-2.80627 6.1989,-5.37 9.81912,-8.98995 z"
                         transform="matrix(2.02564,0,0,2.02524,5e-5,-2e-6)"
                         sodipodi:nodetypes="ccccccccccc" />
                      <path
                         id="path106"
                         style="fill:url(#linearGradient24);fill-opacity:1;stroke-width:2.02544"
                         d="m 1090.2668,341.84833 c -17.1872,0.33609 -32.6618,6.43484 -45.0299,15.61187 -7.7126,6.36656 -50.251,46.14602 -56.91341,63.97016 2.14056,2.71021 12.93071,1.97122 22.19141,3.33202 8.9399,1.31365 16.666,5.46951 21.457,6.5215 15.0161,-13.78581 24.7868,-31.64162 40.6192,-44.00976 12.9785,-11.70407 31.7234,-5.94834 38.5156,11.86523 3.3099,18.68284 -1.515,26.30772 -14.082,40.09961 -9.6601,10.59984 -19.8224,20.9586 -29.1016,31.89257 -17.4847,20.09939 -32.6462,43.91808 -54.8322,59.43615 -0.2386,0.26673 -2.0971,0.97489 -2.3592,1.2533 -12.3727,4.69653 -22.23032,1.41785 -31.67385,-6.91601 -4.84596,-4.23826 -6.08784,-6.84154 -10.01758,-9.70118 -4.93041,-0.0749 -25.02553,23.15301 -25.83983,27.79688 -0.15071,1.45552 -0.27472,2.42438 0.30467,3.42578 7.49495,8.95769 16.50328,16.96401 27.08595,21.98829 16.33879,7.52984 37.18514,8.2854 54.00194,1.91602 8.2626,-3.129 15.0962,-8.51678 21.6856,-14.29884 19.7763,-17.35631 94.4837,-99.13226 103.5019,-119.93555 8.3294,-19.2094 5.9123,-37.74375 -1.2949,-56.62303 -5.4591,-8.21235 -6.9809,-11.42337 -14.0606,-18.40235 -9.9074,-12.53016 -26.9093,-18.75915 -44.1582,-19.22266 z m -3.7832,11.96289 c 14.3453,-0.26154 27.7596,6.34497 39.6993,15.48437 21.3158,25.38234 21.8271,58.70869 -2.3692,82.35742 -2.7568,3.46069 -78.2986,90.05009 -90.6054,99.05275 -8.54,6.37343 -18.6267,10.34359 -29.2188,11.5 -21.09045,1.90763 -32.7868,-4.41988 -47.45703,-17.32814 3.37067,-4.79576 6.65151,-11.08821 11.85743,-12.7246 l 3.46484,3.04296 c 4.65289,5.36284 15.66569,10.32314 22.6035,11.01172 18.47386,1.685 28.61796,-8.93295 40.59966,-20.14063 68.6738,-73.56285 1.129,-1.05365 70.164,-76.74805 9.5894,-11.97929 18.5636,-21.1148 19.461,-36.97851 0.6542,-11.27046 -3.2539,-22.32926 -10.8399,-30.68945 -13.2968,-12.21342 -26.6756,-13.48401 -38.3273,-8.91795 -10.8997,4.27132 -20.2343,13.7193 -28.0891,22.15054 -6.7028,7.63718 -13.4662,14.91608 -19.0469,23.41601 -8.8804,-2.25409 -13.2359,-2.90029 -22.3047,-3.89063 5.4018,-8.73233 37.2227,-46.59127 65.7715,-57.88671 4.3405,-1.47708 9.855,-2.62375 14.6367,-2.71094 z"
                         sodipodi:nodetypes="cccsccccccccccccccccccsccccccccccccsccccss" />
                    </g>
                  </g>
                </g>
              </g>
            </g>
          </g>
          <g
             id="g18"
             transform="translate(-1009.8843,-252.89652)"
             style="filter:url(#filter18)">
            <g
               id="g17"
               transform="translate(-476.5,69.5)">
              <g
                 id="g16"
                 transform="translate(483.20047,-68.400378)">
                <g
                   id="g15"
                   transform="translate(193.69998,10.6802)">
                  <g
                     id="g7">
                    <g
                       id="g6"
                       style="fill:url(#linearGradient44)" />
                  </g>
                  <g
                     id="g14">
                    <g
                       id="g11">
                      <path
                         id="path8"
                         style="fill:#2db5d6;fill-opacity:1;stroke-width:3.11739"
                         d="m 960.40437,445.82061 c -6.43123,3.87316 -7.13216,7.44083 -2.80168,16.19983 37.47697,48.39432 36.51444,46.70832 111.40581,144.07306 6.2944,-5.14354 45.5398,-42.77175 63.1415,-53.26586 1.2602,-0.75134 -74.7385,-97.12137 -84.1691,-106.82366 -26.3111,-0.10636 -36.7563,-0.15253 -40.9129,-0.17134 -9.62682,-0.0405 -24.43072,-0.1936 -46.66363,-0.0123 z M 1069.0085,606.0935 c -0.4049,0.3309 -0.6299,0.53132 -0.6463,0.58318 v 0.003 0.003 0.003 0 0.003 0 0 c 0.051,0.003 0.3004,-0.13329 0.7666,-0.42386 -0.043,-0.0566 -0.086,-0.11482 -0.1293,-0.17133 z m -31.3143,-145.31182 c 12.0998,14.90279 59.6795,73.35968 71.2992,88.70821 -35.3095,29.27035 -0.7269,0.4855 -37.2433,30.57069 -0.7928,-0.96147 -86.58903,-110.41126 -92.38948,-119.14964 18.56903,-0.30858 58.33358,-0.12929 58.33358,-0.12929 z"
                         sodipodi:nodetypes="cccsccccccccccccccscscccss" />
                      <g
                         id="g9"
                         transform="matrix(1.5391199,0,0,1.5391199,-355.80956,-110.21755)">
                        <path
                           id="path9"
                           style="fill:url(#linearGradient45)"
                           d="m 494.92809,215.33168 c -4.25845,-0.12837 -8.28295,0.36423 -11.86353,1.43116 -2.20951,0.79557 -4.19739,1.88615 -6.66128,3.4611 -1.96715,1.25725 -4.09673,2.91152 -5.80585,4.59735 -16.04559,16.3057 -31.65743,33.07377 -46.06854,50.85046 -1.32314,1.73226 -2.69466,4.1026 -3.65818,5.66677 -2.39109,6.08588 -3.58075,11.56629 -3.47305,16.73991 0.12859,2.27326 0.45664,4.66829 1.0288,7.15193 1.49466,5.47008 4.62705,10.7375 9.52438,16.20564 9.85707,7.55167 14.9991,9.01967 26.62818,8.35365 4.19989,-0.24053 6.45924,-1.51407 9.59494,-2.58562 11.34762,-5.66779 19.10752,-15.79405 27.18855,-25.15906 2.68,-3.295 7.27199,-7.82981 7.13799,-11.89481 -10.54949,-0.19678 -13.9589,-1.23307 -20.45457,-4.14109 -2.05893,1.99193 -4.09332,4.49761 -5.97227,6.70155 h -9.6e-4 v 9.7e-4 c -3.37211,3.83615 -9.99179,11.66538 -13.66466,14.53628 -1.065,1.317 -5.13405,2.74681 -6.75905,2.84881 -7.345,0.535 -13.20439,-6.55705 -13.51039,-13.48605 -0.338,-7.664 8.43946,-15.46174 13.42746,-20.99674 10.59816,-11.54319 26.20707,-29.98756 32.57901,-35.51263 10.54588,-11.60523 16.90764,-1.48468 25.92527,3.95558 3.16526,-2.66922 5.04171,-5.26641 7.43071,-7.94541 1.649,-1.868 3.06078,-3.90344 4.53078,-5.91944 -4.486,-6.679 -10.46201,-10.78479 -17.85701,-13.65579 -0.002,-2.6e-4 -0.003,-7e-4 -0.005,-9.6e-4 -3.02312,-0.68795 -5.63604,-0.92984 -8.15521,-1.15727 -0.36396,-0.0198 -0.72594,-0.0354 -1.08666,-0.0463 z m -1.21586,5.79406 c 7.359,-0.218 13.06674,1.75482 18.51074,6.72182 0.84,0.773 2.25705,1.80858 3.05305,2.62658 l -6.00698,6.73791 c -1.3908,-1.54058 -3.36863,-3.35861 -4.73461,-4.40006 -17.73113,-13.51855 -33.32236,12.93634 -45.48813,25.46792 -6.29685,6.84885 -7.59271,8.36954 -12.87691,14.26527 -6.598,6.472 -13.47539,13.43855 -13.53739,23.38555 -0.089,14.147 10.50708,21.84553 24.02308,19.13353 8.995,-4.487 13.9358,-10.90941 19.9098,-18.67641 l 2.33336,-2.62218 1.06352,-0.99718 c 3.481,0.377 6.78028,1.58949 9.99828,1.89649 l -3.43014,3.71916 -1.12137,1.41091 c -8.635,9.808 -15.15355,19.50757 -27.61955,23.65557 -3.76315,0.42098 -3.68089,0.66582 -8.88704,0.51016 h -9.7e-4 c -22.753,-3.084 -32.81321,-25.37471 -19.65621,-44.42471 8.68458,-11.62571 19.04084,-21.87089 28.7226,-32.66299 9.893,-11.111 20.02587,-25.28334 35.74487,-25.74734 z"
                           transform="scale(2.02564,2.02524)"
                           sodipodi:nodetypes="cccscccccsccccccccccccccccccccccccscccccccccccccccc" />
                      </g>
                      <path
                         id="path10"
                         style="fill:url(#linearGradient46);stroke-width:3.11739"
                         d="m 1294.6477,726.82139 c -9.852,10.79135 -22.1132,22.09566 -32.7415,31.79291 l -25.4918,19.56852 c 25.8671,34.74966 42.024,53.66732 109.8112,128.45472 35.9714,-0.0658 87.4895,6.89778 59.5807,-37.56888 0.5844,-0.0592 -52.7122,-65.21794 -111.1586,-142.24727 z m 0.2463,29.34722 c 14.2977,18.25528 68.1087,93.20826 84.1407,111.236 30.3647,30.2945 -5.1509,23.00248 -23.7523,19.44027 -32.1851,-35.40892 -77.2216,-84.27332 -91.0015,-102.65382 12.2101,-8.74738 19.3263,-16.73875 30.6131,-28.02245 z"
                         sodipodi:nodetypes="ccccccccccc" />
                      <path
                         id="path11"
                         style="fill:url(#linearGradient48);fill-opacity:1;stroke-width:3.11739"
                         d="m 1322.2418,415.92802 c -26.4532,0.51728 -50.2704,9.90399 -69.3064,24.02854 -11.8706,9.7989 -77.3423,71.02426 -87.5966,98.45775 3.2946,4.17134 19.9019,3.03394 34.1553,5.12838 13.7595,2.02186 25.6509,8.41823 33.0248,10.03737 23.1116,-21.21802 38.1499,-48.70025 62.5179,-67.7363 19.9754,-18.01397 48.8261,-9.15521 59.2801,18.26201 5.0943,28.75513 -2.3318,40.49074 -21.6739,61.71811 -14.868,16.31442 -30.509,32.2578 -44.7908,49.08649 -26.9111,30.93537 -50.2465,67.59519 -84.3934,91.47936 -0.3672,0.41053 -3.2277,1.50047 -3.6311,1.92898 -19.043,7.22852 -34.2151,2.18224 -48.7498,-10.64457 -7.4585,-6.52319 -9.3699,-10.52995 -15.4183,-14.93128 -7.5885,-0.11528 -38.5173,35.63526 -39.7706,42.78273 -0.2319,2.24022 -0.4228,3.73141 0.4689,5.27269 11.5357,13.78696 25.4006,26.10964 41.6886,33.84261 25.1473,11.58933 57.2324,12.75223 83.1154,2.94899 12.7172,-4.81591 23.2349,-13.10835 33.3768,-22.00763 30.4381,-26.71344 145.4217,-152.57644 159.3018,-184.59519 12.82,-29.56557 9.0997,-58.09216 -1.993,-87.14964 -8.4022,-12.63979 -10.7444,-17.58193 -21.6409,-28.32342 -15.2487,-19.28542 -41.4167,-28.87258 -67.9648,-29.58598 z m -5.8228,18.41232 c 22.0791,-0.40254 42.7253,9.76567 61.102,23.8323 32.8075,39.06647 33.5945,90.35972 -3.6465,126.75795 -4.2431,5.32642 -120.5109,138.59789 -139.4526,152.45406 -13.1441,9.80947 -28.6687,15.92002 -44.9712,17.69988 -32.4608,2.93607 -50.4628,-6.80273 -73.0421,-26.67009 5.1879,-7.38125 10.2375,-17.06608 18.25,-19.58468 l 5.3328,4.68348 c 7.1614,8.25405 24.1114,15.88855 34.7895,16.94836 28.4335,2.59341 44.0465,-13.74889 62.4878,-30.99885 105.6972,-113.22205 1.7376,-1.62169 107.9908,-118.12445 14.7592,-18.43756 28.5716,-32.49821 29.9528,-56.91436 1.0069,-17.34659 -5.0081,-34.36741 -16.6839,-47.23475 -20.4654,-18.79791 -41.057,-20.7535 -58.9903,-13.72579 -16.776,6.57407 -31.143,21.11565 -43.2325,34.09234 -10.3164,11.75453 -20.7261,22.95763 -29.3155,36.04004 -13.668,-3.46931 -20.3716,-4.46389 -34.3296,-5.98814 8.314,-13.4401 57.2902,-71.70955 101.2302,-89.09459 6.6806,-2.2734 15.1681,-4.03827 22.5277,-4.17246 z"
                         sodipodi:nodetypes="cccsccccccccccccccccccsccccccccccccsccccss" />
                    </g>
                  </g>
                </g>
              </g>
            </g>
          </g>
        </g>
      </g>
      <g
         id="g4"
         transform="matrix(0.88360591,0,0,0.88360591,-53.913641,350.81573)">
        <g
           id="g58"
           transform="matrix(1.1279581,0,0,1.1279581,-48.99706,-80.70029)">
          <g
             id="g19"
             style="fill:url(#linearGradient15);filter:url(#filter19)"
             transform="translate(32.296449,47.999671)">
            <path
               fill="#b1f750"
               d="m 681.96246,301.7942 c 13.55558,-1.55538 39.77344,-1.21514 51.97589,2.15689 85.9155,23.72771 36.9497,134.47796 64.61792,192.71373 6.91148,14.54528 24.8546,16.58064 39.60734,20.07216 0.44564,13.49822 0.59959,27.00657 0.46387,40.5129 -3.45169,0.54884 -18.03225,2.99128 -20.99981,4.13756 -51.04208,19.68736 -14.40433,128.40224 -39.80383,170.08776 -12.33615,20.24835 -19.83709,27.75591 -41.082,34.75109 -18.83035,4.95171 -38.0476,3.73657 -57.34385,3.01558 -0.41525,-14.22326 -0.28966,-27.39542 -0.0304,-41.63488 18.71691,-0.10936 28.75801,1.25362 45.05834,-8.26298 32.09019,-51.23655 -21.81412,-133.08662 53.18115,-182.7131 -11.47728,-7.12075 -21.60953,-15.55384 -28.63445,-27.25771 -24.53455,-40.86731 -2.44089,-132.06995 -23.86204,-155.50805 -10.43204,-11.41425 -31.33057,-10.06747 -45.37838,-10.83706 -0.41526,-9.32825 -2.57054,-34.79565 2.23023,-41.23389 z"
               id="path18"
               style="fill:url(#linearGradient54);stroke-width:2.02544" />
            <path
               fill="#b1f750"
               d="m 314.2356,301.79421 c -13.5555,-1.55539 -39.7734,-1.21514 -51.9759,2.15688 -85.9154,23.72771 -36.9497,134.47796 -64.6179,192.71374 -6.9115,14.54527 -24.8546,16.58064 -39.6073,20.07215 -0.4456,13.49823 -0.5996,27.00658 -0.4639,40.5129 3.4517,0.54884 18.0323,2.99128 20.9998,4.13757 51.0421,19.68736 14.4044,128.40224 39.8039,170.0878 12.3361,20.2483 19.837,27.7559 41.082,34.751 18.8303,4.9518 38.0476,3.7366 57.3438,3.0156 0.4153,-14.2232 0.2897,-27.3954 0.03,-41.6349 -18.7169,-0.1093 -28.758,1.2537 -45.0583,-8.2629 -32.0902,-51.23658 21.8141,-133.08666 -53.1812,-182.71314 11.4773,-7.12074 21.6095,-15.55384 28.6344,-27.2577 24.5346,-40.86732 2.4409,-132.06995 23.8621,-155.50806 10.432,-11.41425 31.3306,-10.06746 45.3784,-10.83705 0.4152,-9.32826 2.5705,-34.79565 -2.2303,-41.23389 z"
               id="path19"
               style="fill:url(#linearGradient55);stroke-width:2.02544" />
          </g>
        </g>
        <g
           id="g55"
           transform="matrix(1.1279581,0,0,1.1279581,-48.99655,-80.70029)">
          <path
             id="path51"
             style="fill:url(#linearGradient49);stroke-width:2.02544"
             d="m 532.13629,407.78483 c -5.24865,0.0803 -9.8606,0.49916 -13.22265,1.40039 -50.3088,4.92134 -93.52292,24.74639 -125.94531,64.28515 -33.08883,39.80204 -48.67417,91.29416 -43.20899,142.76563 10.6974,103.92519 101.57465,166.57489 203.36914,155.58594 26.4346,-2.85357 56.81228,-10.25584 80.00586,-23.85938 -3.21874,-13.79593 -5.2438,-21.37843 -9.89062,-34.77539 -13.66699,5.20486 -27.88361,11.04866 -41.99219,14.7832 -69.67999,18.44994 -150.86018,-2.5533 -178.17188,-76.03711 -14.98569,-40.67289 -13.33707,-85.61227 4.58985,-125.07812 34.00644,-73.2104 123.99633,-101.03071 194.91601,-67.25781 4.31867,2.03334 8.5241,4.29606 12.59766,6.78711 27.57301,17.81603 43.83378,42.9333 50.33203,75.08398 5.95943,29.47737 4.12767,93.1774 -31.41016,103.22461 -14.59879,4.12744 -20.40189,-7.09647 -21.39648,-20.01953 -0.632,-40.61213 9.38504,-82.98219 9.54101,-123.52344 -15.34828,-0.14187 -30.69664,-0.13801 -46.04492,0.008 -0.4902,8.70448 -0.90179,15.97151 -2.11718,24.66992 C 561.38671,510.54146 552.2117,500.455 531.22809,498.369 427.38366,488.04838 395.99602,674.5551 507.94098,683.48033 c 33.6074,2.68142 56.74803,-29.76993 63.62305,-26.85156 7.95266,12.70231 18.21435,23.63241 33.72265,25.89257 109.8545,16.0075 128.89701,-129.84665 82.39844,-199.69921 C 662.3707,444.79218 624.47865,420.36898 580.107,412.3065 c -10.73792,-1.9579 -32.22474,-4.76252 -47.97071,-4.52148 z m -7.24804,128.125 c 16.42967,0.25466 30.38409,5.86599 35.22461,23.86328 8.69203,32.31878 -0.97255,74.1568 -35.34766,85.16601 -61.74556,9.17231 -59.06314,-93.56172 -7.05078,-108.83203 2.42874,-0.16176 4.82673,-0.23364 7.17383,-0.19726 z" />
          <g
             id="g13"
             style="fill:url(#linearGradient53)"
             transform="translate(32.296449,47.999671)">
            <path
               fill="#b1f750"
               d="m 681.96246,301.7942 c 13.55558,-1.55538 39.77344,-1.21514 51.97589,2.15689 85.9155,23.72771 36.9497,134.47796 64.61792,192.71373 6.91148,14.54528 24.8546,16.58064 39.60734,20.07216 0.44564,13.49822 0.59959,27.00657 0.46387,40.5129 -3.45169,0.54884 -18.03225,2.99128 -20.99981,4.13756 -51.04208,19.68736 -14.40433,128.40224 -39.80383,170.08776 -12.33615,20.24835 -19.83709,27.75591 -41.082,34.75109 -18.83035,4.95171 -38.0476,3.73657 -57.34385,3.01558 -0.41525,-14.22326 -0.28966,-27.39542 -0.0304,-41.63488 18.71691,-0.10936 28.75801,1.25362 45.05834,-8.26298 32.09019,-51.23655 -21.81412,-133.08662 53.18115,-182.7131 -11.47728,-7.12075 -21.60953,-15.55384 -28.63445,-27.25771 -24.53455,-40.86731 -2.44089,-132.06995 -23.86204,-155.50805 -10.43204,-11.41425 -31.33057,-10.06747 -45.37838,-10.83706 -0.41526,-9.32825 -2.57054,-34.79565 2.23023,-41.23389 z"
               id="path53"
               style="fill:url(#linearGradient51);stroke-width:2.02544" />
            <path
               fill="#b1f750"
               d="m 314.2356,301.79421 c -13.5555,-1.55539 -39.7734,-1.21514 -51.9759,2.15688 -85.9154,23.72771 -36.9497,134.47796 -64.6179,192.71374 -6.9115,14.54527 -24.8546,16.58064 -39.6073,20.07215 -0.4456,13.49823 -0.5996,27.00658 -0.4639,40.5129 3.4517,0.54884 18.0323,2.99128 20.9998,4.13757 51.0421,19.68736 14.4044,128.40224 39.8039,170.0878 12.3361,20.2483 19.837,27.7559 41.082,34.751 18.8303,4.9518 38.0476,3.7366 57.3438,3.0156 0.4153,-14.2232 0.2897,-27.3954 0.03,-41.6349 -18.7169,-0.1093 -28.758,1.2537 -45.0583,-8.2629 -32.0902,-51.23658 21.8141,-133.08666 -53.1812,-182.71314 11.4773,-7.12074 21.6095,-15.55384 28.6344,-27.2577 24.5346,-40.86732 2.4409,-132.06995 23.8621,-155.50806 10.432,-11.41425 31.3306,-10.06746 45.3784,-10.83705 0.4152,-9.32826 2.5705,-34.79565 -2.2303,-41.23389 z"
               id="path58"
               style="fill:url(#linearGradient52);stroke-width:2.02544" />
          </g>
          <path
             id="path20"
             style="fill:url(#linearGradient13);stroke-width:2.02544;filter:url(#filter20)"
             d="m 532.13629,407.78483 c -5.24865,0.0803 -9.8606,0.49916 -13.22265,1.40039 -50.3088,4.92134 -93.52292,24.74639 -125.94531,64.28515 -33.08883,39.80204 -48.67417,91.29416 -43.20899,142.76563 10.6974,103.92519 101.57465,166.57489 203.36914,155.58594 26.4346,-2.85357 56.81228,-10.25584 80.00586,-23.85938 -3.21874,-13.79593 -5.2438,-21.37843 -9.89062,-34.77539 -13.66699,5.20486 -27.88361,11.04866 -41.99219,14.7832 -69.67999,18.44994 -150.86018,-2.5533 -178.17188,-76.03711 -14.98569,-40.67289 -13.33707,-85.61227 4.58985,-125.07812 34.00644,-73.2104 123.99633,-101.03071 194.91601,-67.25781 4.31867,2.03334 8.5241,4.29606 12.59766,6.78711 27.57301,17.81603 43.83378,42.9333 50.33203,75.08398 5.95943,29.47737 4.12767,93.1774 -31.41016,103.22461 -14.59879,4.12744 -20.40189,-7.09647 -21.39648,-20.01953 -0.632,-40.61213 9.38504,-82.98219 9.54101,-123.52344 -15.34828,-0.14187 -30.69664,-0.13801 -46.04492,0.008 -0.4902,8.70448 -0.90179,15.97151 -2.11718,24.66992 C 561.38671,510.54146 552.2117,500.455 531.22809,498.369 427.38366,488.04838 395.99602,674.5551 507.94098,683.48033 c 33.6074,2.68142 56.74803,-29.76993 63.62305,-26.85156 7.95266,12.70231 18.21435,23.63241 33.72265,25.89257 109.8545,16.0075 128.89701,-129.84665 82.39844,-199.69921 C 662.3707,444.79218 624.47865,420.36898 580.107,412.3065 c -10.73792,-1.9579 -32.22474,-4.76252 -47.97071,-4.52148 z m -7.24804,128.125 c 16.42967,0.25466 30.38409,5.86599 35.22461,23.86328 8.69203,32.31878 -0.97255,74.1568 -35.34766,85.16601 -61.74556,9.17231 -59.06314,-93.56172 -7.05078,-108.83203 2.42874,-0.16176 4.82673,-0.23364 7.17383,-0.19726 z" />
        </g>
      </g>
      <path
         style="fill:url(#linearGradient19);fill-opacity:1;stroke:none;stroke-width:1.00201px;stroke-linecap:butt;stroke-linejoin:miter;stroke-opacity:1;filter:url(#filter38)"
         d="m 181.85145,1103.79 543.70432,-0.1681 -0.1688,20.3428 -532.05712,-0.8406 -5.57038,-7.2293 z"
         id="path7"
         sodipodi:nodetypes="cccccc"
         transform="matrix(1.1190014,0,0,0.89717184,-42.355034,173.99494)" />
      <path
         style="fill:url(#linearGradient41);fill-opacity:1;stroke:none;stroke-width:1.00201px;stroke-linecap:butt;stroke-linejoin:miter;stroke-opacity:1;filter:url(#filter38)"
         d="m 91.303184,1010.8905 c 12.543326,5.2241 35.489136,13.9784 51.857746,13.9015 l 523.5873,1.1876 -0.46408,20.8337 -532.50004,-0.9633 -15.75762,-12.5066 z"
         id="path41"
         sodipodi:nodetypes="ccccccc"
         transform="matrix(0.73448014,0,0,0.88649802,35.57897,221.16859)" />
    </g>
  </g>
</svg>
