<?xml version="1.0" encoding="UTF-8" standalone="no"?>
<svg
   width="1000"
   height="1000"
   viewBox="0 0 1000 1000"
   version="1.1"
   id="svg78"
   sodipodi:docname="io.github.archisman_panigrahi.QuickBib.svg"
   inkscape:version="1.4.3 (0d15f75042, 2025-12-25)"
   xmlns:inkscape="http://www.inkscape.org/namespaces/inkscape"
   xmlns:sodipodi="http://sodipodi.sourceforge.net/DTD/sodipodi-0.dtd"
   xmlns:xlink="http://www.w3.org/1999/xlink"
   xmlns="http://www.w3.org/2000/svg"
   xmlns:svg="http://www.w3.org/2000/svg">
  <sodipodi:namedview
     id="namedview78"
     pagecolor="#ffffff"
     bordercolor="#000000"
     borderopacity="0.25"
     inkscape:showpageshadow="2"
     inkscape:pageopacity="0.0"
     inkscape:pagecheckerboard="0"
     inkscape:deskcolor="#d1d1d1"
     inkscape:zoom="0.77617882"
     inkscape:cx="484.42445"
     inkscape:cy="382.64378"
     inkscape:window-width="1852"
     inkscape:window-height="1048"
     inkscape:window-x="68"
     inkscape:window-y="32"
     inkscape:window-maximized="1"
     inkscape:current-layer="g4"
     showguides="true">
    <sodipodi:guide
       position="-377.11838,937.32476"
       orientation="0,-1"
       id="guide75"
       inkscape:locked="false" />
    <sodipodi:guide
       position="112.88341,947.75699"
       orientation="1,0"
       id="guide1"
       inkscape:locked="false" />
    <sodipodi:guide
       position="871.66303,202.08489"
       orientation="1,0"
       id="guide3"
       inkscape:locked="false" />
    <sodipodi:guide
       position="859.89053,48.192928"
       orientation="0,-1"
       id="guide4"
       inkscape:locked="false" />
    <sodipodi:guide
       position="903.35215,120.67493"
       orientation="1,0"
       id="guide5"
       inkscape:locked="false" />
    <sodipodi:guide
       position="205.12614,85.668076"
       orientation="0,-1"
       id="guide19"
       inkscape:locked="false" />
    <sodipodi:guide
       position="816.6883,959.49066"
       orientation="1,0"
       id="guide6"
       inkscape:locked="false" />
    <sodipodi:guide
       position="782.94773,92.572781"
       orientation="0,-1"
       id="guide7"
       inkscape:locked="false" />
    <sodipodi:guide
       position="174.69565,873.00086"
       orientation="1,0"
       id="guide17"
       inkscape:locked="false" />
    <sodipodi:guide
       position="164.4141,153.67167"
       orientation="0,-1"
       id="guide23"
       inkscape:locked="false" />
  </sodipodi:namedview>
  <defs
     id="defs4">
    <linearGradient
       id="linearGradient14"
       inkscape:collect="always">
      <stop
         style="stop-color:#00ffff;stop-opacity:1;"
         offset="0"
         id="stop14" />
      <stop
         style="stop-color:#a82fd8;stop-opacity:1;"
         offset="1"
         id="stop15" />
    </linearGradient>
    <linearGradient
       id="linearGradient10"
       inkscape:collect="always">
      <stop
         style="stop-color:#f75050;stop-opacity:1;"
         offset="0"
         id="stop12" />
      <stop
         style="stop-color:#f7b250;stop-opacity:1;"
         offset="1"
         id="stop13" />
    </linearGradient>
    <linearGradient
       id="linearGradient2"
       inkscape:collect="always">
      <stop
         style="stop-color:#697ada;stop-opacity:1;"
         offset="0.04388713"
         id="stop2" />
      <stop
         style="stop-color:#a85bd8;stop-opacity:1;"
         offset="0.72413796"
         id="stop5" />
    </linearGradient>
    <linearGradient
       id="linearGradient5"
       inkscape:collect="always">
      <stop
         style="stop-color:#697ada;stop-opacity:1;"
         offset="0.45454547"
         id="stop10" />
      <stop
         style="stop-color:#4b9ddc;stop-opacity:1;"
         offset="0.76802504"
         id="stop11" />
    </linearGradient>
    <linearGradient
       id="linearGradient94"
       gradientUnits="userSpaceOnUse"
       x1="493.11652"
       y1="299.06982"
       x2="448.64551"
       y2="242.48683"
       spreadMethod="pad">
      <stop
         offset="0"
         stop-color="#7F5BD8"
         id="stop91" />
      <stop
         offset="1"
         stop-color="#4699DC"
         id="stop94"
         style="stop-color:#2db5d6;stop-opacity:1;" />
    </linearGradient>
    <linearGradient
       id="linearGradient87"
       gradientUnits="userSpaceOnUse"
       x1="493.11652"
       y1="299.06982"
       x2="448.64551"
       y2="242.48683"
       spreadMethod="pad">
      <stop
         offset="0"
         stop-color="#7F5BD8"
         id="stop84" />
      <stop
         offset="0.67241377"
         stop-color="#7F5BD8"
         id="stop85"
         style="stop-color:#627ada;stop-opacity:1;" />
      <stop
         offset="1"
         stop-color="#4699DC"
         id="stop87"
         style="stop-color:#2db5d6;stop-opacity:1;" />
    </linearGradient>
    <linearGradient
       id="linearGradient83"
       gradientUnits="userSpaceOnUse"
       x1="493.11652"
       y1="299.06982"
       x2="448.64551"
       y2="242.48683"
       spreadMethod="pad">
      <stop
         offset="0"
         stop-color="#7F5BD8"
         id="stop80" />
      <stop
         offset="0.93181819"
         stop-color="#7F5BD8"
         id="stop82"
         style="stop-color:#4699dc;stop-opacity:1;" />
      <stop
         offset="1"
         stop-color="#4699DC"
         id="stop83"
         style="stop-color:#2db5d6;stop-opacity:1;" />
    </linearGradient>
    <linearGradient
       id="linearGradient79"
       gradientUnits="userSpaceOnUse"
       x1="493.11652"
       y1="299.06982"
       x2="448.64551"
       y2="242.48683">
      <stop
         offset="0"
         stop-color="#7F5BD8"
         id="stop76" />
      <stop
         offset="0.93181819"
         stop-color="#7F5BD8"
         id="stop78"
         style="stop-color:#4699dc;stop-opacity:1;" />
      <stop
         offset="1"
         stop-color="#4699DC"
         id="stop79"
         style="stop-color:#2db5d6;stop-opacity:1;" />
    </linearGradient>
    <linearGradient
       id="linearGradient6"
       inkscape:collect="always">
      <stop
         style="stop-color:#eff6eb;stop-opacity:1;"
         offset="0"
         id="stop6" />
      <stop
         style="stop-color:#bfbfbf;stop-opacity:0;"
         offset="1"
         id="stop9" />
    </linearGradient>
    <linearGradient
       id="gradient_0"
       gradientUnits="userSpaceOnUse"
       x1="853.3233"
       y1="579.71228"
       x2="866.89374"
       y2="584.49927"
       gradientTransform="matrix(2.02564,0,0,2.02524,-848.522,-289.82295)">
      <stop
         offset="0"
         stop-color="#9BBBC1"
         id="stop3" />
      <stop
         offset="1"
         stop-color="#C2E2E3"
         id="stop4" />
    </linearGradient>
    <filter
       style="color-interpolation-filters:sRGB"
       inkscape:label="Blur"
       id="filter79"
       x="-0.15228334"
       y="-0.050959725"
       width="1.3045667"
       height="1.1019194">
      <feGaussianBlur
         stdDeviation="5 5"
         result="blur"
         id="feGaussianBlur79" />
    </filter>
    <filter
       style="color-interpolation-filters:sRGB"
       inkscape:label="Blur"
       id="filter54"
       x="-0.067016222"
       y="-0.066529647"
       width="1.1340324"
       height="1.1330593">
      <feGaussianBlur
         stdDeviation="5 5"
         result="blur"
         id="feGaussianBlur54" />
    </filter>
    <filter
       style="color-interpolation-filters:sRGB"
       inkscape:label="Blur"
       id="filter55"
       x="-0.15212846"
       y="-0.051816847"
       width="1.3042569"
       height="1.1036336">
      <feGaussianBlur
         stdDeviation="5 5"
         result="blur"
         id="feGaussianBlur55" />
    </filter>
    <filter
       style="color-interpolation-filters:sRGB"
       inkscape:label="Blur"
       id="filter56"
       x="-0.30425692"
       y="-0.1036337"
       width="1.6085138"
       height="1.2072674">
      <feGaussianBlur
         stdDeviation="10 10"
         result="blur"
         id="feGaussianBlur56" />
    </filter>
    <filter
       style="color-interpolation-filters:sRGB"
       inkscape:label="Blur"
       id="filter57"
       x="-0.30456668"
       y="-0.10346953"
       width="1.6091332"
       height="1.2069391">
      <feGaussianBlur
         stdDeviation="10 10"
         result="blur"
         id="feGaussianBlur57" />
    </filter>
    <filter
       style="color-interpolation-filters:sRGB"
       inkscape:label="Blur"
       id="filter58"
       x="-0.13403244"
       y="-0.13305929"
       width="1.2680649"
       height="1.2661186">
      <feGaussianBlur
         stdDeviation="10 10"
         result="blur"
         id="feGaussianBlur58" />
    </filter>
    <filter
       style="color-interpolation-filters:sRGB"
       inkscape:label="Blur"
       id="filter59"
       x="-0.15020324"
       y="-0.051171072"
       width="1.3004065"
       height="1.1023421">
      <feGaussianBlur
         stdDeviation="10 10"
         result="blur"
         id="feGaussianBlur59" />
    </filter>
    <linearGradient
       inkscape:collect="always"
       xlink:href="#linearGradient10"
       id="linearGradient13"
       x1="497.74738"
       y1="723.77527"
       x2="497.74738"
       y2="361.06189"
       gradientUnits="userSpaceOnUse"
       gradientTransform="translate(32.296449,47.999671)" />
    <linearGradient
       inkscape:collect="always"
       xlink:href="#linearGradient6"
       id="linearGradient1"
       gradientUnits="userSpaceOnUse"
       gradientTransform="matrix(0,-1.127958,1.127958,0,945.3904,499.65595)"
       x1="745.58997"
       y1="879.23328"
       x2="882.87695"
       y2="1020.7628" />
    <filter
       style="color-interpolation-filters:sRGB"
       inkscape:label="Blur"
       id="filter12"
       x="-0.1054232"
       y="-0.10519264"
       width="1.2108464"
       height="1.2103853">
      <feGaussianBlur
         stdDeviation="10 10"
         result="blur"
         id="feGaussianBlur12" />
    </filter>
    <filter
       style="color-interpolation-filters:sRGB"
       inkscape:label="Blur"
       id="filter19"
       x="-0.22530487"
       y="-0.076756605"
       width="1.4506097"
       height="1.1535132">
      <feGaussianBlur
         stdDeviation="15 15"
         result="blur"
         id="feGaussianBlur19" />
    </filter>
    <filter
       style="color-interpolation-filters:sRGB"
       inkscape:label="Blur"
       id="filter20"
       x="-0.16541985"
       y="-0.16425074"
       width="1.3308397"
       height="1.3285015">
      <feGaussianBlur
         stdDeviation="25 25"
         result="blur"
         id="feGaussianBlur20" />
    </filter>
    <filter
       style="color-interpolation-filters:sRGB"
       inkscape:label="Blur"
       id="filter43"
       x="-0.11629507"
       y="-0.11031259"
       width="1.2325901"
       height="1.2206252">
      <feGaussianBlur
         stdDeviation="15 15"
         result="blur"
         id="feGaussianBlur43" />
    </filter>
    <filter
       style="color-interpolation-filters:sRGB"
       inkscape:label="Blur"
       id="filter5"
       x="-0.0010569902"
       y="-4.5369315"
       width="1.0021141"
       height="10.073863">
      <feGaussianBlur
         stdDeviation="0.01 4.4"
         result="blur"
         id="feGaussianBlur5" />
    </filter>
    <filter
       style="color-interpolation-filters:sRGB"
       inkscape:label="Blur"
       id="filter21"
       x="-4.4319542e-05"
       y="-0.23595572"
       width="1.0000886"
       height="1.4719114">
      <feGaussianBlur
         stdDeviation="0.01 2"
         result="blur"
         id="feGaussianBlur21" />
    </filter>
    <filter
       style="color-interpolation-filters:sRGB"
       inkscape:label="Blur"
       id="filter36"
       x="-0.00020818557"
       y="-0.054579264"
       width="1.0004164"
       height="1.1091585">
      <feGaussianBlur
         stdDeviation="0.01 1"
         result="fbSourceGraphic"
         id="feGaussianBlur36" />
      <feColorMatrix
         result="fbSourceGraphicAlpha"
         in="fbSourceGraphic"
         values="0 0 0 -1 0 0 0 0 -1 0 0 0 0 -1 0 0 0 0 1 0"
         id="feColorMatrix37" />
      <feGaussianBlur
         id="feGaussianBlur37"
         stdDeviation="0.01 4.3"
         result="blur"
         in="fbSourceGraphic" />
    </filter>
    <filter
       style="color-interpolation-filters:sRGB"
       inkscape:label="Blur"
       id="filter38"
       x="-0.029363018"
       y="-0.0011797786"
       width="1.058726"
       height="1.0023596">
      <feGaussianBlur
         stdDeviation="6.652 0.01"
         result="blur"
         id="feGaussianBlur38" />
    </filter>
    <filter
       style="color-interpolation-filters:sRGB"
       inkscape:label="Blur"
       id="filter42"
       x="-0.057065121"
       y="-0.043916985"
       width="1.1141302"
       height="1.087834">
      <feGaussianBlur
         stdDeviation="10 10"
         result="fbSourceGraphic"
         id="feGaussianBlur42" />
      <feColorMatrix
         result="fbSourceGraphicAlpha"
         in="fbSourceGraphic"
         values="0 0 0 -1 0 0 0 0 -1 0 0 0 0 -1 0 0 0 0 1 0"
         id="feColorMatrix42" />
      <feGaussianBlur
         id="feGaussianBlur44"
         stdDeviation="10 10"
         result="blur"
         in="fbSourceGraphic" />
    </filter>
    <linearGradient
       inkscape:collect="always"
       xlink:href="#linearGradient10"
       id="linearGradient49"
       gradientUnits="userSpaceOnUse"
       x1="497.74738"
       y1="723.77527"
       x2="497.74738"
       y2="361.06189"
       gradientTransform="matrix(0.99667044,0,0,0.99667044,1048.7303,-184.61372)" />
    <linearGradient
       inkscape:collect="always"
       xlink:href="#linearGradient14"
       id="linearGradient51"
       gradientUnits="userSpaceOnUse"
       x1="498.09906"
       y1="194.83521"
       x2="498.09906"
       y2="875.98743"
       gradientTransform="matrix(0.99667044,0,0,0.99667044,1048.7303,-184.61372)" />
    <linearGradient
       inkscape:collect="always"
       xlink:href="#linearGradient14"
       id="linearGradient52"
       gradientUnits="userSpaceOnUse"
       x1="498.09906"
       y1="194.83521"
       x2="498.09906"
       y2="875.98743"
       gradientTransform="matrix(0.99667044,0,0,0.99667044,1048.7303,-184.61372)" />
    <linearGradient
       inkscape:collect="always"
       xlink:href="#linearGradient14"
       id="linearGradient54"
       gradientUnits="userSpaceOnUse"
       x1="498.09906"
       y1="194.83521"
       x2="498.09906"
       y2="875.98743" />
    <linearGradient
       inkscape:collect="always"
       xlink:href="#linearGradient14"
       id="linearGradient55"
       gradientUnits="userSpaceOnUse"
       x1="498.09906"
       y1="194.83521"
       x2="498.09906"
       y2="875.98743" />
    <filter
       style="color-interpolation-filters:sRGB;"
       inkscape:label="Blur"
       id="filter18"
       x="-0.07555946"
       y="-0.071672512"
       width="1.1511189"
       height="1.143345">
      <feGaussianBlur
         stdDeviation="15 15"
         result="blur"
         id="feGaussianBlur18" />
    </filter>
    <linearGradient
       inkscape:collect="always"
       xlink:href="#linearGradient2"
       id="linearGradient20"
       gradientUnits="userSpaceOnUse"
       x1="1034.5039"
       y1="602.45422"
       x2="1149.1548"
       y2="602.45422" />
    <linearGradient
       inkscape:collect="always"
       xlink:href="#gradient_1"
       id="linearGradient22"
       gradientUnits="userSpaceOnUse"
       x1="493.11652"
       y1="299.06982"
       x2="448.64551"
       y2="242.48683" />
    <linearGradient
       inkscape:collect="always"
       xlink:href="#linearGradient2"
       id="linearGradient23"
       gradientUnits="userSpaceOnUse"
       x1="516.29449"
       y1="275.32382"
       x2="543.28473"
       y2="302.31412" />
    <linearGradient
       inkscape:collect="always"
       xlink:href="#linearGradient5"
       id="linearGradient24"
       gradientUnits="userSpaceOnUse"
       gradientTransform="matrix(2.02564,0,0,2.02524,-0.9996705,0.09997228)"
       x1="555.37958"
       y1="263.21198"
       x2="481.38666"
       y2="189.21907" />
    <filter
       style="color-interpolation-filters:sRGB;"
       inkscape:label="Blur"
       id="filter22"
       x="-0.053103872"
       y="-0.042302331"
       width="1.1062077"
       height="1.0846047">
      <feGaussianBlur
         stdDeviation="15 15"
         result="fbSourceGraphic"
         id="feGaussianBlur22" />
      <feColorMatrix
         result="fbSourceGraphicAlpha"
         in="fbSourceGraphic"
         values="0 0 0 -1 0 0 0 0 -1 0 0 0 0 -1 0 0 0 0 1 0"
         id="feColorMatrix23" />
      <feGaussianBlur
         id="feGaussianBlur23"
         stdDeviation="6 6"
         result="blur"
         in="fbSourceGraphic" />
    </filter>
    <filter
       style="color-interpolation-filters:sRGB;"
       inkscape:label="Blur"
       id="filter31"
       x="-0.11666172"
       y="-0.066396222"
       width="1.2333234"
       height="1.1327924">
      <feGaussianBlur
         stdDeviation="25 15"
         result="blur"
         id="feGaussianBlur31" />
    </filter>
    <filter
       style="color-interpolation-filters:sRGB;"
       inkscape:label="Blur"
       id="filter39"
       x="-0.046664687"
       y="-0.044264148"
       width="1.0933294"
       height="1.0885283">
      <feGaussianBlur
         stdDeviation="10 10"
         result="blur"
         id="feGaussianBlur39" />
    </filter>
  </defs>
  <defs
     id="defs8">
    <linearGradient
       id="gradient_1"
       gradientUnits="userSpaceOnUse"
       x1="493.11652"
       y1="299.06982"
       x2="448.64551"
       y2="242.48683"
       xlink:href="#linearGradient87">
      <stop
         offset="0"
         stop-color="#7F5BD8"
         id="stop7" />
      <stop
         offset="0.67241377"
         stop-color="#7F5BD8"
         id="stop74"
         style="stop-color:#627ada;stop-opacity:1;" />
      <stop
         offset="1"
         stop-color="#4699DC"
         id="stop8"
         style="stop-color:#2db5d6;stop-opacity:1;" />
    </linearGradient>
  </defs>
  <defs
     id="defs45">
    <linearGradient
       id="gradient_2"
       gradientUnits="userSpaceOnUse"
       x1="529.26324"
       y1="304.47202"
       x2="524.7594"
       y2="300.47388">
      <stop
         offset="0"
         stop-color="#8F7CA6"
         id="stop44" />
      <stop
         offset="1"
         stop-color="#8368B6"
         id="stop45" />
    </linearGradient>
  </defs>
  <defs
     id="defs48">
    <linearGradient
       id="gradient_3"
       gradientUnits="userSpaceOnUse"
       x1="487.36298"
       y1="300.91245"
       x2="459.03815"
       y2="328.13477">
      <stop
         offset="0"
         stop-color="#6D4FD1"
         id="stop47" />
      <stop
         offset="1"
         stop-color="#8C68DA"
         id="stop48" />
    </linearGradient>
  </defs>
  <g
     id="g60"
     transform="matrix(0.73708725,0,0,0.73708725,131.71271,156.29783)">
    <g
       id="g59"
       transform="translate(100)">
      <g
         id="g57"
         transform="translate(-99.999951)" />
    </g>
    <g
       id="g3"
       transform="matrix(0.91867962,0,0,0.91867962,25.538096,-80.21194)">
      <g
         id="g17"
         transform="translate(-5.5204616,23.589511)">
        <g
           id="g10"
           transform="translate(-1150.8238,520.12225)">
          <g
             id="g24"
             transform="translate(1.2751274)">
            <g
               id="g26"
               transform="matrix(0.98703748,0,0,0.98703748,19.693983,0.66334861)">
              <rect
                 style="fill:#ff7070;fill-opacity:1;stroke-width:2.69493;stroke-linecap:round"
                 id="rect1"
                 width="1068.1569"
                 height="1321.017"
                 x="-17.996298"
                 y="-65.622368"
                 ry="108.9945"
                 transform="translate(1156.3443,-543.71176)" />
              <path
                 id="path21"
                 style="fill:#221d43;fill-opacity:1;stroke-width:2.28461;filter:url(#filter22)"
                 d="m 1841.3453,-538.5169 c -15.247,-0.0383 -30.9051,0.20773 -38.6964,0.21344 l -153.8307,0.10961 -255.6596,-0.0692 c -43.2474,-0.009 -87.941,-0.69239 -131.2319,0.83358 -57.0967,2.01551 -66.3106,14.00947 -70.2541,62.75837 -0.1961,9.2853 0.1537,948.65757 0.6062,1033.89518 3.8617,77.87039 39.1136,94.68686 108.1527,93.31977 22.7901,-0.45128 547.9622,0.37356 792.1603,0.3587 11.5006,-7e-4 47.6962,-24.6299 47.6945,-37.34088 -0.034,-251.77125 0.6766,-588.748227 0.3071,-887.59399 -0.4775,-11.51876 -235.1296,-240.2865 -263.032,-264.98757 -6.136,-1.13419 -20.9688,-1.45872 -36.2158,-1.49698 z"
                 sodipodi:nodetypes="sccccccsssccss"
                 transform="matrix(1.0127645,0,0,1.0127645,-11.125559,-1.0305368)" />
              <g
                 id="g25"
                 transform="translate(8.1227487)">
                <path
                   id="path3"
                   style="fill:#eff6eb;fill-opacity:1;stroke-width:2.28461"
                   d="m 1841.3453,-538.5169 c -15.247,-0.0383 -30.9051,0.20773 -38.6964,0.21344 l -153.8307,0.10961 -255.6596,-0.0692 c -43.2474,-0.009 -87.941,-0.69239 -131.2319,0.83358 -57.0967,2.01551 -66.3106,14.00947 -70.2541,62.75837 -0.1961,9.2853 0.1537,948.65757 0.6062,1033.89518 3.8617,77.87039 39.1136,94.68685 108.1527,93.31977 21.3074,-0.42192 661.9851,-0.18632 741.148,0.35152 81.2218,0.55183 98.8391,-9.47012 98.7098,-90.60041 -0.356,-223.35105 -0.6756,-554.7681549 0.3041,-834.32728 -0.4775,-11.51876 -235.1296,-240.2865 -263.032,-264.98757 -6.136,-1.13419 -20.9688,-1.45872 -36.2158,-1.49698 z"
                   sodipodi:nodetypes="sccccccsssccss" />
                <path
                   style="fill:#000000;fill-opacity:0.291667;stroke:none;stroke-width:0.5;stroke-dasharray:none;stroke-opacity:1;filter:url(#filter12)"
                   d="M 945.26811,283.35279 717.61531,55.199942 V 234.76953 c -0.13809,31.82184 12.98596,50.87271 48.79036,48.08326 z"
                   id="path6"
                   sodipodi:nodetypes="ccccc"
                   transform="matrix(1.1893396,0,0,1.1893396,1022.2157,-587.79203)" />
                <path
                   style="fill:url(#linearGradient1);stroke:none;stroke-width:0.563979;stroke-dasharray:none;stroke-opacity:1"
                   d="m 2139.7282,-273.86331 -258.7684,-263.30356 v 202.54697 c -0.1558,35.89369 14.6476,57.38227 55.0334,54.23589 z"
                   id="path1"
                   sodipodi:nodetypes="ccccc" />
                <g
                   id="g4"
                   transform="matrix(1.0870649,0,0,1.0870649,-174.29676,6.6507334)">
                  <g
                     id="g31"
                     style="filter:url(#filter31)">
                    <g
                       id="g30"
                       transform="matrix(1.6614287,0,0,1.6614287,-116.69426,-1048.2849)">
                      <g
                         id="g20">
                        <g
                           id="g19"
                           style="fill:url(#linearGradient20)" />
                      </g>
                      <g
                         id="g29">
                        <g
                           id="g28">
                          <path
                             id="path22"
                             style="fill:#2db5d6;fill-opacity:1;stroke-width:2.02544"
                             d="m 855.17309,361.2702 c -4.17851,2.51648 -4.63392,4.83447 -1.82031,10.52539 24.34961,31.44285 23.72423,30.34742 72.38281,93.60743 4.08957,-3.34187 29.58822,-27.78975 41.02438,-34.608 0.81878,-0.48816 -48.55922,-63.10189 -54.68649,-69.40568 -17.09492,-0.0691 -23.88134,-0.0991 -26.58203,-0.11132 -6.25473,-0.0263 -15.87315,-0.12579 -30.31836,-0.008 z m 70.5625,104.13282 c -0.26309,0.21499 -0.4093,0.34521 -0.41992,0.3789 v 0.002 0.002 0.002 h 0.002 v 0.002 h 0.002 0.002 c 0.0333,0.002 0.19518,-0.0866 0.49805,-0.27539 -0.0283,-0.0368 -0.0557,-0.0746 -0.084,-0.11132 z m -20.34558,-94.41228 c 7.86151,9.68267 38.77507,47.66339 46.32463,57.63567 -22.94134,19.01759 -0.47229,0.31544 -24.1978,19.86245 -0.51506,-0.62469 -56.25878,-71.73662 -60.02746,-77.41414 12.06471,-0.20049 37.90063,-0.084 37.90063,-0.084 z"
                             sodipodi:nodetypes="cccsccccccccccccccscscccss" />
                          <g
                             id="g27">
                            <path
                               id="path23"
                               style="fill:url(#linearGradient22)"
                               d="m 494.92809,215.33168 c -4.25845,-0.12837 -8.28295,0.36423 -11.86353,1.43116 -2.20951,0.79557 -4.19739,1.88615 -6.66128,3.4611 -1.96715,1.25725 -4.09673,2.91152 -5.80585,4.59735 -16.04559,16.3057 -31.65743,33.07377 -46.06854,50.85046 -1.32314,1.73226 -2.69466,4.1026 -3.65818,5.66677 -2.39109,6.08588 -3.58075,11.56629 -3.47305,16.73991 0.12859,2.27326 0.45664,4.66829 1.0288,7.15193 1.49466,5.47008 4.62705,10.7375 9.52438,16.20564 9.85707,7.55167 14.9991,9.01967 26.62818,8.35365 4.19989,-0.24053 6.45924,-1.51407 9.59494,-2.58562 11.34762,-5.66779 19.10752,-15.79405 27.18855,-25.15906 2.68,-3.295 7.27199,-7.82981 7.13799,-11.89481 -10.54949,-0.19678 -13.9589,-1.23307 -20.45457,-4.14109 -2.05893,1.99193 -4.09332,4.49761 -5.97227,6.70155 h -9.6e-4 v 9.7e-4 c -3.37211,3.83615 -9.99179,11.66538 -13.66466,14.53628 -1.065,1.317 -5.13405,2.74681 -6.75905,2.84881 -7.345,0.535 -13.20439,-6.55705 -13.51039,-13.48605 -0.338,-7.664 8.43946,-15.46174 13.42746,-20.99674 10.59816,-11.54319 26.20707,-29.98756 32.57901,-35.51263 10.54588,-11.60523 16.90764,-1.48468 25.92527,3.95558 3.16526,-2.66922 5.04171,-5.26641 7.43071,-7.94541 1.649,-1.868 3.06078,-3.90344 4.53078,-5.91944 -4.486,-6.679 -10.46201,-10.78479 -17.85701,-13.65579 -0.002,-2.6e-4 -0.003,-7e-4 -0.005,-9.6e-4 -3.02312,-0.68795 -5.63604,-0.92984 -8.15521,-1.15727 -0.36396,-0.0198 -0.72594,-0.0354 -1.08666,-0.0463 z m -1.21586,5.79406 c 7.359,-0.218 13.06674,1.75482 18.51074,6.72182 0.84,0.773 2.25705,1.80858 3.05305,2.62658 l -6.00698,6.73791 c -1.3908,-1.54058 -3.36863,-3.35861 -4.73461,-4.40006 -17.73113,-13.51855 -33.32236,12.93634 -45.48813,25.46792 -6.29685,6.84885 -7.59271,8.36954 -12.87691,14.26527 -6.598,6.472 -13.47539,13.43855 -13.53739,23.38555 -0.089,14.147 10.50708,21.84553 24.02308,19.13353 8.995,-4.487 13.9358,-10.90941 19.9098,-18.67641 l 2.33336,-2.62218 1.06352,-0.99718 c 3.481,0.377 6.78028,1.58949 9.99828,1.89649 l -3.43014,3.71916 -1.12137,1.41091 c -8.635,9.808 -15.15355,19.50757 -27.61955,23.65557 -3.76315,0.42098 -3.68089,0.66582 -8.88704,0.51016 h -9.7e-4 c -22.753,-3.084 -32.81321,-25.37471 -19.65621,-44.42471 8.68458,-11.62571 19.04084,-21.87089 28.7226,-32.66299 9.893,-11.111 20.02587,-25.28334 35.74487,-25.74734 z"
                               transform="scale(2.02564,2.02524)"
                               sodipodi:nodetypes="cccscccccsccccccccccccccccccccccccscccccccccccccccc" />
                          </g>
                          <path
                             id="path27"
                             style="fill:url(#linearGradient23)"
                             d="m 529.38244,268.53241 c -3.16,3.462 -7.09278,7.08856 -10.50178,10.19956 l -8.17647,6.27782 c 8.29683,11.14812 13.47915,17.21714 35.22181,41.20986 11.53781,-0.0211 28.06216,2.21289 19.11045,-12.05256 0.18744,-0.019 -16.90739,-20.92272 -35.65401,-45.63468 z m 0.079,9.41495 c 4.58598,5.85652 21.84581,29.90236 26.98804,35.68588 9.73947,9.71885 -1.65212,7.37948 -7.61851,6.23668 -10.32335,-11.35962 -24.76874,-27.03592 -29.18865,-32.93261 3.91638,-2.80627 6.1989,-5.37 9.81912,-8.98995 z"
                             transform="matrix(2.02564,0,0,2.02524,5e-5,-2e-6)"
                             sodipodi:nodetypes="ccccccccccc" />
                          <path
                             id="path28"
                             style="fill:url(#linearGradient24);fill-opacity:1;stroke-width:2.02544"
                             d="m 1090.2668,341.84833 c -17.1872,0.33609 -32.6618,6.43484 -45.0299,15.61187 -7.7126,6.36656 -50.251,46.14602 -56.91341,63.97016 2.14056,2.71021 12.93071,1.97122 22.19141,3.33202 8.9399,1.31365 16.666,5.46951 21.457,6.5215 15.0161,-13.78581 24.7868,-31.64162 40.6192,-44.00976 12.9785,-11.70407 31.7234,-5.94834 38.5156,11.86523 3.3099,18.68284 -1.515,26.30772 -14.082,40.09961 -9.6601,10.59984 -19.8224,20.9586 -29.1016,31.89257 -17.4847,20.09939 -32.6462,43.91808 -54.8322,59.43615 -0.2386,0.26673 -2.0971,0.97489 -2.3592,1.2533 -12.3727,4.69653 -22.23032,1.41785 -31.67385,-6.91601 -4.84596,-4.23826 -6.08784,-6.84154 -10.01758,-9.70118 -4.93041,-0.0749 -25.02553,23.15301 -25.83983,27.79688 -0.15071,1.45552 -0.27472,2.42438 0.30467,3.42578 7.49495,8.95769 16.50328,16.96401 27.08595,21.98829 16.33879,7.52984 37.18514,8.2854 54.00194,1.91602 8.2626,-3.129 15.0962,-8.51678 21.6856,-14.29884 19.7763,-17.35631 94.4837,-99.13226 103.5019,-119.93555 8.3294,-19.2094 5.9123,-37.74375 -1.2949,-56.62303 -5.4591,-8.21235 -6.9809,-11.42337 -14.0606,-18.40235 -9.9074,-12.53016 -26.9093,-18.75915 -44.1582,-19.22266 z m -3.7832,11.96289 c 14.3453,-0.26154 27.7596,6.34497 39.6993,15.48437 21.3158,25.38234 21.8271,58.70869 -2.3692,82.35742 -2.7568,3.46069 -78.2986,90.05009 -90.6054,99.05275 -8.54,6.37343 -18.6267,10.34359 -29.2188,11.5 -21.09045,1.90763 -32.7868,-4.41988 -47.45703,-17.32814 3.37067,-4.79576 6.65151,-11.08821 11.85743,-12.7246 l 3.46484,3.04296 c 4.65289,5.36284 15.66569,10.32314 22.6035,11.01172 18.47386,1.685 28.61796,-8.93295 40.59966,-20.14063 68.6738,-73.56285 1.129,-1.05365 70.164,-76.74805 9.5894,-11.97929 18.5636,-21.1148 19.461,-36.97851 0.6542,-11.27046 -3.2539,-22.32926 -10.8399,-30.68945 -13.2968,-12.21342 -26.6756,-13.48401 -38.3273,-8.91795 -10.8997,4.27132 -20.2343,13.7193 -28.0891,22.15054 -6.7028,7.63718 -13.4662,14.91608 -19.0469,23.41601 -8.8804,-2.25409 -13.2359,-2.90029 -22.3047,-3.89063 5.4018,-8.73233 37.2227,-46.59127 65.7715,-57.88671 4.3405,-1.47708 9.855,-2.62375 14.6367,-2.71094 z"
                             sodipodi:nodetypes="cccsccccccccccccccccccsccccccccccccsccccss" />
                        </g>
                      </g>
                    </g>
                  </g>
                  <g
                     id="g16">
                    <g
                       id="g12"
                       transform="matrix(1.6614287,0,0,1.6614287,-116.69426,-1048.2849)">
                      <g
                         id="g1">
                        <g
                           id="g2"
                           style="fill:url(#linearGradient20)" />
                      </g>
                      <g
                         id="g8">
                        <g
                           id="g5">
                          <path
                             id="path75"
                             style="fill:#2db5d6;fill-opacity:1;stroke-width:2.02544"
                             d="m 855.17309,361.2702 c -4.17851,2.51648 -4.63392,4.83447 -1.82031,10.52539 24.34961,31.44285 23.72423,30.34742 72.38281,93.60743 4.08957,-3.34187 29.58822,-27.78975 41.02438,-34.608 0.81878,-0.48816 -48.55922,-63.10189 -54.68649,-69.40568 -17.09492,-0.0691 -23.88134,-0.0991 -26.58203,-0.11132 -6.25473,-0.0263 -15.87315,-0.12579 -30.31836,-0.008 z m 70.5625,104.13282 c -0.26309,0.21499 -0.4093,0.34521 -0.41992,0.3789 v 0.002 0.002 0.002 h 0.002 v 0.002 h 0.002 0.002 c 0.0333,0.002 0.19518,-0.0866 0.49805,-0.27539 -0.0283,-0.0368 -0.0557,-0.0746 -0.084,-0.11132 z m -20.34558,-94.41228 c 7.86151,9.68267 38.77507,47.66339 46.32463,57.63567 -22.94134,19.01759 -0.47229,0.31544 -24.1978,19.86245 -0.51506,-0.62469 -56.25878,-71.73662 -60.02746,-77.41414 12.06471,-0.20049 37.90063,-0.084 37.90063,-0.084 z"
                             sodipodi:nodetypes="cccsccccccccccccccscscccss" />
                          <g
                             id="g100">
                            <path
                               id="path94"
                               style="fill:url(#linearGradient22)"
                               d="m 494.92809,215.33168 c -4.25845,-0.12837 -8.28295,0.36423 -11.86353,1.43116 -2.20951,0.79557 -4.19739,1.88615 -6.66128,3.4611 -1.96715,1.25725 -4.09673,2.91152 -5.80585,4.59735 -16.04559,16.3057 -31.65743,33.07377 -46.06854,50.85046 -1.32314,1.73226 -2.69466,4.1026 -3.65818,5.66677 -2.39109,6.08588 -3.58075,11.56629 -3.47305,16.73991 0.12859,2.27326 0.45664,4.66829 1.0288,7.15193 1.49466,5.47008 4.62705,10.7375 9.52438,16.20564 9.85707,7.55167 14.9991,9.01967 26.62818,8.35365 4.19989,-0.24053 6.45924,-1.51407 9.59494,-2.58562 11.34762,-5.66779 19.10752,-15.79405 27.18855,-25.15906 2.68,-3.295 7.27199,-7.82981 7.13799,-11.89481 -10.54949,-0.19678 -13.9589,-1.23307 -20.45457,-4.14109 -2.05893,1.99193 -4.09332,4.49761 -5.97227,6.70155 h -9.6e-4 v 9.7e-4 c -3.37211,3.83615 -9.99179,11.66538 -13.66466,14.53628 -1.065,1.317 -5.13405,2.74681 -6.75905,2.84881 -7.345,0.535 -13.20439,-6.55705 -13.51039,-13.48605 -0.338,-7.664 8.43946,-15.46174 13.42746,-20.99674 10.59816,-11.54319 26.20707,-29.98756 32.57901,-35.51263 10.54588,-11.60523 16.90764,-1.48468 25.92527,3.95558 3.16526,-2.66922 5.04171,-5.26641 7.43071,-7.94541 1.649,-1.868 3.06078,-3.90344 4.53078,-5.91944 -4.486,-6.679 -10.46201,-10.78479 -17.85701,-13.65579 -0.002,-2.6e-4 -0.003,-7e-4 -0.005,-9.6e-4 -3.02312,-0.68795 -5.63604,-0.92984 -8.15521,-1.15727 -0.36396,-0.0198 -0.72594,-0.0354 -1.08666,-0.0463 z m -1.21586,5.79406 c 7.359,-0.218 13.06674,1.75482 18.51074,6.72182 0.84,0.773 2.25705,1.80858 3.05305,2.62658 l -6.00698,6.73791 c -1.3908,-1.54058 -3.36863,-3.35861 -4.73461,-4.40006 -17.73113,-13.51855 -33.32236,12.93634 -45.48813,25.46792 -6.29685,6.84885 -7.59271,8.36954 -12.87691,14.26527 -6.598,6.472 -13.47539,13.43855 -13.53739,23.38555 -0.089,14.147 10.50708,21.84553 24.02308,19.13353 8.995,-4.487 13.9358,-10.90941 19.9098,-18.67641 l 2.33336,-2.62218 1.06352,-0.99718 c 3.481,0.377 6.78028,1.58949 9.99828,1.89649 l -3.43014,3.71916 -1.12137,1.41091 c -8.635,9.808 -15.15355,19.50757 -27.61955,23.65557 -3.76315,0.42098 -3.68089,0.66582 -8.88704,0.51016 h -9.7e-4 c -22.753,-3.084 -32.81321,-25.37471 -19.65621,-44.42471 8.68458,-11.62571 19.04084,-21.87089 28.7226,-32.66299 9.893,-11.111 20.02587,-25.28334 35.74487,-25.74734 z"
                               transform="scale(2.02564,2.02524)"
                               sodipodi:nodetypes="cccscccccsccccccccccccccccccccccccscccccccccccccccc" />
                          </g>
                          <path
                             id="path40"
                             style="fill:url(#linearGradient23)"
                             d="m 529.38244,268.53241 c -3.16,3.462 -7.09278,7.08856 -10.50178,10.19956 l -8.17647,6.27782 c 8.29683,11.14812 13.47915,17.21714 35.22181,41.20986 11.53781,-0.0211 28.06216,2.21289 19.11045,-12.05256 0.18744,-0.019 -16.90739,-20.92272 -35.65401,-45.63468 z m 0.079,9.41495 c 4.58598,5.85652 21.84581,29.90236 26.98804,35.68588 9.73947,9.71885 -1.65212,7.37948 -7.61851,6.23668 -10.32335,-11.35962 -24.76874,-27.03592 -29.18865,-32.93261 3.91638,-2.80627 6.1989,-5.37 9.81912,-8.98995 z"
                             transform="matrix(2.02564,0,0,2.02524,5e-5,-2e-6)"
                             sodipodi:nodetypes="ccccccccccc" />
                          <path
                             id="path106"
                             style="fill:url(#linearGradient24);fill-opacity:1;stroke-width:2.02544"
                             d="m 1090.2668,341.84833 c -17.1872,0.33609 -32.6618,6.43484 -45.0299,15.61187 -7.7126,6.36656 -50.251,46.14602 -56.91341,63.97016 2.14056,2.71021 12.93071,1.97122 22.19141,3.33202 8.9399,1.31365 16.666,5.46951 21.457,6.5215 15.0161,-13.78581 24.7868,-31.64162 40.6192,-44.00976 12.9785,-11.70407 31.7234,-5.94834 38.5156,11.86523 3.3099,18.68284 -1.515,26.30772 -14.082,40.09961 -9.6601,10.59984 -19.8224,20.9586 -29.1016,31.89257 -17.4847,20.09939 -32.6462,43.91808 -54.8322,59.43615 -0.2386,0.26673 -2.0971,0.97489 -2.3592,1.2533 -12.3727,4.69653 -22.23032,1.41785 -31.67385,-6.91601 -4.84596,-4.23826 -6.08784,-6.84154 -10.01758,-9.70118 -4.93041,-0.0749 -25.02553,23.15301 -25.83983,27.79688 -0.15071,1.45552 -0.27472,2.42438 0.30467,3.42578 7.49495,8.95769 16.50328,16.96401 27.08595,21.98829 16.33879,7.52984 37.18514,8.2854 54.00194,1.91602 8.2626,-3.129 15.0962,-8.51678 21.6856,-14.29884 19.7763,-17.35631 94.4837,-99.13226 103.5019,-119.93555 8.3294,-19.2094 5.9123,-37.74375 -1.2949,-56.62303 -5.4591,-8.21235 -6.9809,-11.42337 -14.0606,-18.40235 -9.9074,-12.53016 -26.9093,-18.75915 -44.1582,-19.22266 z m -3.7832,11.96289 c 14.3453,-0.26154 27.7596,6.34497 39.6993,15.48437 21.3158,25.38234 21.8271,58.70869 -2.3692,82.35742 -2.7568,3.46069 -78.2986,90.05009 -90.6054,99.05275 -8.54,6.37343 -18.6267,10.34359 -29.2188,11.5 -21.09045,1.90763 -32.7868,-4.41988 -47.45703,-17.32814 3.37067,-4.79576 6.65151,-11.08821 11.85743,-12.7246 l 3.46484,3.04296 c 4.65289,5.36284 15.66569,10.32314 22.6035,11.01172 18.47386,1.685 28.61796,-8.93295 40.59966,-20.14063 68.6738,-73.56285 1.129,-1.05365 70.164,-76.74805 9.5894,-11.97929 18.5636,-21.1148 19.461,-36.97851 0.6542,-11.27046 -3.2539,-22.32926 -10.8399,-30.68945 -13.2968,-12.21342 -26.6756,-13.48401 -38.3273,-8.91795 -10.8997,4.27132 -20.2343,13.7193 -28.0891,22.15054 -6.7028,7.63718 -13.4662,14.91608 -19.0469,23.41601 -8.8804,-2.25409 -13.2359,-2.90029 -22.3047,-3.89063 5.4018,-8.73233 37.2227,-46.59127 65.7715,-57.88671 4.3405,-1.47708 9.855,-2.62375 14.6367,-2.71094 z"
                             sodipodi:nodetypes="cccsccccccccccccccccccsccccccccccccsccccss" />
                        </g>
                      </g>
                    </g>
                  </g>
                  <g
                     id="g18"
                     style="filter:url(#filter39)">
                    <g
                       id="g15"
                       transform="matrix(1.6614287,0,0,1.6614287,-116.69426,-1048.2849)">
                      <g
                         id="g7">
                        <g
                           id="g6"
                           style="fill:url(#linearGradient20)" />
                      </g>
                      <g
                         id="g14">
                        <g
                           id="g11">
                          <path
                             id="path7"
                             style="fill:#2db5d6;fill-opacity:1;stroke-width:2.02544"
                             d="m 855.17309,361.2702 c -4.17851,2.51648 -4.63392,4.83447 -1.82031,10.52539 24.34961,31.44285 23.72423,30.34742 72.38281,93.60743 4.08957,-3.34187 29.58822,-27.78975 41.02438,-34.608 0.81878,-0.48816 -48.55922,-63.10189 -54.68649,-69.40568 -17.09492,-0.0691 -23.88134,-0.0991 -26.58203,-0.11132 -6.25473,-0.0263 -15.87315,-0.12579 -30.31836,-0.008 z m 70.5625,104.13282 c -0.26309,0.21499 -0.4093,0.34521 -0.41992,0.3789 v 0.002 0.002 0.002 h 0.002 v 0.002 h 0.002 0.002 c 0.0333,0.002 0.19518,-0.0866 0.49805,-0.27539 -0.0283,-0.0368 -0.0557,-0.0746 -0.084,-0.11132 z m -20.34558,-94.41228 c 7.86151,9.68267 38.77507,47.66339 46.32463,57.63567 -22.94134,19.01759 -0.47229,0.31544 -24.1978,19.86245 -0.51506,-0.62469 -56.25878,-71.73662 -60.02746,-77.41414 12.06471,-0.20049 37.90063,-0.084 37.90063,-0.084 z"
                             sodipodi:nodetypes="cccsccccccccccccccscscccss" />
                          <g
                             id="g9">
                            <path
                               id="path8"
                               style="fill:url(#linearGradient22)"
                               d="m 494.92809,215.33168 c -4.25845,-0.12837 -8.28295,0.36423 -11.86353,1.43116 -2.20951,0.79557 -4.19739,1.88615 -6.66128,3.4611 -1.96715,1.25725 -4.09673,2.91152 -5.80585,4.59735 -16.04559,16.3057 -31.65743,33.07377 -46.06854,50.85046 -1.32314,1.73226 -2.69466,4.1026 -3.65818,5.66677 -2.39109,6.08588 -3.58075,11.56629 -3.47305,16.73991 0.12859,2.27326 0.45664,4.66829 1.0288,7.15193 1.49466,5.47008 4.62705,10.7375 9.52438,16.20564 9.85707,7.55167 14.9991,9.01967 26.62818,8.35365 4.19989,-0.24053 6.45924,-1.51407 9.59494,-2.58562 11.34762,-5.66779 19.10752,-15.79405 27.18855,-25.15906 2.68,-3.295 7.27199,-7.82981 7.13799,-11.89481 -10.54949,-0.19678 -13.9589,-1.23307 -20.45457,-4.14109 -2.05893,1.99193 -4.09332,4.49761 -5.97227,6.70155 h -9.6e-4 v 9.7e-4 c -3.37211,3.83615 -9.99179,11.66538 -13.66466,14.53628 -1.065,1.317 -5.13405,2.74681 -6.75905,2.84881 -7.345,0.535 -13.20439,-6.55705 -13.51039,-13.48605 -0.338,-7.664 8.43946,-15.46174 13.42746,-20.99674 10.59816,-11.54319 26.20707,-29.98756 32.57901,-35.51263 10.54588,-11.60523 16.90764,-1.48468 25.92527,3.95558 3.16526,-2.66922 5.04171,-5.26641 7.43071,-7.94541 1.649,-1.868 3.06078,-3.90344 4.53078,-5.91944 -4.486,-6.679 -10.46201,-10.78479 -17.85701,-13.65579 -0.002,-2.6e-4 -0.003,-7e-4 -0.005,-9.6e-4 -3.02312,-0.68795 -5.63604,-0.92984 -8.15521,-1.15727 -0.36396,-0.0198 -0.72594,-0.0354 -1.08666,-0.0463 z m -1.21586,5.79406 c 7.359,-0.218 13.06674,1.75482 18.51074,6.72182 0.84,0.773 2.25705,1.80858 3.05305,2.62658 l -6.00698,6.73791 c -1.3908,-1.54058 -3.36863,-3.35861 -4.73461,-4.40006 -17.73113,-13.51855 -33.32236,12.93634 -45.48813,25.46792 -6.29685,6.84885 -7.59271,8.36954 -12.87691,14.26527 -6.598,6.472 -13.47539,13.43855 -13.53739,23.38555 -0.089,14.147 10.50708,21.84553 24.02308,19.13353 8.995,-4.487 13.9358,-10.90941 19.9098,-18.67641 l 2.33336,-2.62218 1.06352,-0.99718 c 3.481,0.377 6.78028,1.58949 9.99828,1.89649 l -3.43014,3.71916 -1.12137,1.41091 c -8.635,9.808 -15.15355,19.50757 -27.61955,23.65557 -3.76315,0.42098 -3.68089,0.66582 -8.88704,0.51016 h -9.7e-4 c -22.753,-3.084 -32.81321,-25.37471 -19.65621,-44.42471 8.68458,-11.62571 19.04084,-21.87089 28.7226,-32.66299 9.893,-11.111 20.02587,-25.28334 35.74487,-25.74734 z"
                               transform="scale(2.02564,2.02524)"
                               sodipodi:nodetypes="cccscccccsccccccccccccccccccccccccscccccccccccccccc" />
                          </g>
                          <path
                             id="path9"
                             style="fill:url(#linearGradient23)"
                             d="m 529.38244,268.53241 c -3.16,3.462 -7.09278,7.08856 -10.50178,10.19956 l -8.17647,6.27782 c 8.29683,11.14812 13.47915,17.21714 35.22181,41.20986 11.53781,-0.0211 28.06216,2.21289 19.11045,-12.05256 0.18744,-0.019 -16.90739,-20.92272 -35.65401,-45.63468 z m 0.079,9.41495 c 4.58598,5.85652 21.84581,29.90236 26.98804,35.68588 9.73947,9.71885 -1.65212,7.37948 -7.61851,6.23668 -10.32335,-11.35962 -24.76874,-27.03592 -29.18865,-32.93261 3.91638,-2.80627 6.1989,-5.37 9.81912,-8.98995 z"
                             transform="matrix(2.02564,0,0,2.02524,5e-5,-2e-6)"
                             sodipodi:nodetypes="ccccccccccc" />
                          <path
                             id="path10"
                             style="fill:url(#linearGradient24);fill-opacity:1;stroke-width:2.02544"
                             d="m 1090.2668,341.84833 c -17.1872,0.33609 -32.6618,6.43484 -45.0299,15.61187 -7.7126,6.36656 -50.251,46.14602 -56.91341,63.97016 2.14056,2.71021 12.93071,1.97122 22.19141,3.33202 8.9399,1.31365 16.666,5.46951 21.457,6.5215 15.0161,-13.78581 24.7868,-31.64162 40.6192,-44.00976 12.9785,-11.70407 31.7234,-5.94834 38.5156,11.86523 3.3099,18.68284 -1.515,26.30772 -14.082,40.09961 -9.6601,10.59984 -19.8224,20.9586 -29.1016,31.89257 -17.4847,20.09939 -32.6462,43.91808 -54.8322,59.43615 -0.2386,0.26673 -2.0971,0.97489 -2.3592,1.2533 -12.3727,4.69653 -22.23032,1.41785 -31.67385,-6.91601 -4.84596,-4.23826 -6.08784,-6.84154 -10.01758,-9.70118 -4.93041,-0.0749 -25.02553,23.15301 -25.83983,27.79688 -0.15071,1.45552 -0.27472,2.42438 0.30467,3.42578 7.49495,8.95769 16.50328,16.96401 27.08595,21.98829 16.33879,7.52984 37.18514,8.2854 54.00194,1.91602 8.2626,-3.129 15.0962,-8.51678 21.6856,-14.29884 19.7763,-17.35631 94.4837,-99.13226 103.5019,-119.93555 8.3294,-19.2094 5.9123,-37.74375 -1.2949,-56.62303 -5.4591,-8.21235 -6.9809,-11.42337 -14.0606,-18.40235 -9.9074,-12.53016 -26.9093,-18.75915 -44.1582,-19.22266 z m -3.7832,11.96289 c 14.3453,-0.26154 27.7596,6.34497 39.6993,15.48437 21.3158,25.38234 21.8271,58.70869 -2.3692,82.35742 -2.7568,3.46069 -78.2986,90.05009 -90.6054,99.05275 -8.54,6.37343 -18.6267,10.34359 -29.2188,11.5 -21.09045,1.90763 -32.7868,-4.41988 -47.45703,-17.32814 3.37067,-4.79576 6.65151,-11.08821 11.85743,-12.7246 l 3.46484,3.04296 c 4.65289,5.36284 15.66569,10.32314 22.6035,11.01172 18.47386,1.685 28.61796,-8.93295 40.59966,-20.14063 68.6738,-73.56285 1.129,-1.05365 70.164,-76.74805 9.5894,-11.97929 18.5636,-21.1148 19.461,-36.97851 0.6542,-11.27046 -3.2539,-22.32926 -10.8399,-30.68945 -13.2968,-12.21342 -26.6756,-13.48401 -38.3273,-8.91795 -10.8997,4.27132 -20.2343,13.7193 -28.0891,22.15054 -6.7028,7.63718 -13.4662,14.91608 -19.0469,23.41601 -8.8804,-2.25409 -13.2359,-2.90029 -22.3047,-3.89063 5.4018,-8.73233 37.2227,-46.59127 65.7715,-57.88671 4.3405,-1.47708 9.855,-2.62375 14.6367,-2.71094 z"
                             sodipodi:nodetypes="cccsccccccccccccccccccsccccccccccccsccccss" />
                        </g>
                      </g>
                    </g>
                  </g>
                </g>
                <g
                   id="g23"
                   transform="matrix(1.1251206,0,0,1.1251206,-13.101301,-29.670972)">
                  <path
                     fill="#b1f750"
                     d="m 681.96246,301.7942 c 13.55558,-1.55538 39.77344,-1.21514 51.97589,2.15689 85.9155,23.72771 36.9497,134.47796 64.61792,192.71373 6.91148,14.54528 24.8546,16.58064 39.60734,20.07216 0.44564,13.49822 0.59959,27.00657 0.46387,40.5129 -3.45169,0.54884 -18.03225,2.99128 -20.99981,4.13756 -51.04208,19.68736 -14.40433,128.40224 -39.80383,170.08776 -12.33615,20.24835 -19.83709,27.75591 -41.082,34.75109 -18.83035,4.95171 -38.0476,3.73657 -57.34385,3.01558 -0.41525,-14.22326 -0.28966,-27.39542 -0.0304,-41.63488 18.71691,-0.10936 28.75801,1.25362 45.05834,-8.26298 32.09019,-51.23655 -21.81412,-133.08662 53.18115,-182.7131 -11.47728,-7.12075 -21.60953,-15.55384 -28.63445,-27.25771 -24.53455,-40.86731 -2.44089,-132.06995 -23.86204,-155.50805 -10.43204,-11.41425 -31.33057,-10.06747 -45.37838,-10.83706 -0.41526,-9.32825 -2.57054,-34.79565 2.23023,-41.23389 z"
                     id="path18"
                     style="fill:url(#linearGradient54);stroke-width:2.02544;filter:url(#filter19)"
                     transform="matrix(0.99667044,0,0,0.99667044,1048.7298,-184.61372)" />
                  <path
                     fill="#b1f750"
                     d="m 314.2356,301.79421 c -13.5555,-1.55539 -39.7734,-1.21514 -51.9759,2.15688 -85.9154,23.72771 -36.9497,134.47796 -64.6179,192.71374 -6.9115,14.54527 -24.8546,16.58064 -39.6073,20.07215 -0.4456,13.49823 -0.5996,27.00658 -0.4639,40.5129 3.4517,0.54884 18.0323,2.99128 20.9998,4.13757 51.0421,19.68736 14.4044,128.40224 39.8039,170.0878 12.3361,20.2483 19.837,27.7559 41.082,34.751 18.8303,4.9518 38.0476,3.7366 57.3438,3.0156 0.4153,-14.2232 0.2897,-27.3954 0.03,-41.6349 -18.7169,-0.1093 -28.758,1.2537 -45.0583,-8.2629 -32.0902,-51.23658 21.8141,-133.08666 -53.1812,-182.71314 11.4773,-7.12074 21.6095,-15.55384 28.6344,-27.2577 24.5346,-40.86732 2.4409,-132.06995 23.8621,-155.50806 10.432,-11.41425 31.3306,-10.06746 45.3784,-10.83705 0.4152,-9.32826 2.5705,-34.79565 -2.2303,-41.23389 z"
                     id="path19"
                     style="fill:url(#linearGradient55);stroke-width:2.02544;filter:url(#filter19)"
                     transform="matrix(0.99667044,0,0,0.99667044,1048.7298,-184.61372)" />
                  <g
                     id="g13">
                    <path
                       id="path51"
                       style="fill:url(#linearGradient49);stroke-width:2.0187"
                       d="m 1546.9059,173.97352 c -5.2312,0.08 -9.8278,0.49749 -13.1786,1.39572 -50.1413,4.90496 -93.2115,24.664 -125.526,64.07111 -32.9786,39.66952 -48.5121,90.99019 -43.0651,142.29029 10.6618,103.57916 101.2364,166.02026 202.692,155.0679 26.3466,-2.84407 56.6231,-10.22169 79.7395,-23.77994 -3.208,-13.74999 -5.2264,-21.30725 -9.8577,-34.6596 -13.6215,5.18753 -27.7908,11.01187 -41.8524,14.73398 -69.448,18.38851 -150.3579,-2.5448 -177.5786,-75.78394 -14.9358,-40.53747 -13.2927,-85.32722 4.5745,-124.66167 33.8933,-72.96664 123.5835,-100.69432 194.2671,-67.03387 4.3043,2.02657 8.4957,4.28176 12.5557,6.76452 27.4812,17.75671 43.6878,42.79035 50.1644,74.83398 5.9396,29.37922 4.114,92.86716 -31.3056,102.88092 -14.5501,4.11369 -20.3339,-7.07285 -21.3252,-19.95288 -0.6299,-40.47691 9.3538,-82.70589 9.5093,-123.11216 -15.2972,-0.1414 -30.5945,-0.13755 -45.8917,0.008 -0.4885,8.6755 -0.8987,15.91834 -2.1101,24.58778 -12.6585,-15.23562 -21.8029,-25.28849 -42.7167,-27.36755 -103.4986,-10.28626 -134.7818,175.59948 -23.2095,184.49499 33.4955,2.67249 56.559,-29.67081 63.4112,-26.76215 7.9262,12.66001 18.1537,23.55372 33.6103,25.80635 109.4888,15.95421 128.4679,-129.41431 82.1241,-199.0343 -25.2301,-37.90332 -62.996,-62.2452 -107.2199,-70.28084 -10.7022,-1.95138 -32.1174,-4.74666 -47.811,-4.50642 z m -7.2239,127.6984 c 16.375,0.25381 30.2829,5.84645 35.1073,23.78382 8.6631,32.21117 -0.9693,73.90989 -35.2299,84.88245 -61.54,9.14177 -58.8665,-93.2502 -7.0273,-108.46967 2.4206,-0.16122 4.8106,-0.23286 7.1499,-0.1966 z" />
                    <path
                       fill="#b1f750"
                       d="m 1728.4221,116.17564 c 13.5105,-1.5502 39.641,-1.2111 51.8029,2.14971 85.6294,23.6487 36.8266,134.0302 64.4027,192.07207 6.8885,14.49686 24.7719,16.52544 39.4755,20.00533 0.4442,13.45328 0.5976,26.91665 0.4623,40.37801 -3.4402,0.54702 -17.9722,2.98132 -20.9299,4.12379 -50.8721,19.62181 -14.3563,127.97471 -39.6713,169.52144 -12.295,20.18093 -19.771,27.66349 -40.9452,34.63538 -18.7676,4.93523 -37.9209,3.72413 -57.1529,3.00554 -0.4139,-14.1759 -0.2887,-27.3042 -0.03,-41.49625 18.6546,-0.109 28.6623,1.24944 44.9083,-8.23547 31.9834,-51.06595 -21.7415,-132.6435 53.0041,-182.10474 -11.4391,-7.09705 -21.5376,-15.50206 -28.5391,-27.16696 -24.4529,-40.73124 -2.4328,-131.63021 -23.7826,-154.99028 -10.3973,-11.37624 -31.2263,-10.03395 -45.2273,-10.80097 -0.4139,-9.29719 -2.562,-34.6798 2.2228,-41.0966 z"
                       id="path53"
                       style="fill:url(#linearGradient51);stroke-width:2.0187" />
                    <path
                       fill="#b1f750"
                       d="m 1361.9196,116.17565 c -13.5103,-1.55021 -39.6409,-1.2111 -51.8028,2.1497 -85.6293,23.6487 -36.8267,134.0302 -64.4028,192.07208 -6.8884,14.49685 -24.7718,16.52544 -39.4754,20.00532 -0.4441,13.45329 -0.5976,26.91666 -0.4623,40.37801 3.4402,0.54702 17.9722,2.98132 20.9298,4.1238 50.8722,19.62181 14.3565,127.97471 39.6714,169.52148 12.295,20.18088 19.771,27.66348 40.9452,34.63529 18.7676,4.93532 37.9209,3.72416 57.1529,3.00556 0.4139,-14.17584 0.2887,-27.30418 0.03,-41.49627 -18.6546,-0.10894 -28.6623,1.24952 -44.9083,-8.23539 -31.9833,-51.06598 21.7415,-132.64354 -53.0041,-182.10478 11.4391,-7.09704 21.5375,-15.50206 28.539,-27.16695 24.453,-40.73125 2.4328,-131.63021 23.7827,-154.99029 10.3973,-11.37624 31.2263,-10.03394 45.2273,-10.80096 0.4138,-9.2972 2.562,-34.6798 -2.2229,-41.0966 z"
                       id="path58"
                       style="fill:url(#linearGradient52);stroke-width:2.0187" />
                    <path
                       id="path20"
                       style="fill:url(#linearGradient13);stroke-width:2.02544;filter:url(#filter20)"
                       d="m 532.13629,407.78483 c -5.24865,0.0803 -9.8606,0.49916 -13.22265,1.40039 -50.3088,4.92134 -93.52292,24.74639 -125.94531,64.28515 -33.08883,39.80204 -48.67417,91.29416 -43.20899,142.76563 10.6974,103.92519 101.57465,166.57489 203.36914,155.58594 26.4346,-2.85357 56.81228,-10.25584 80.00586,-23.85938 -3.21874,-13.79593 -5.2438,-21.37843 -9.89062,-34.77539 -13.66699,5.20486 -27.88361,11.04866 -41.99219,14.7832 -69.67999,18.44994 -150.86018,-2.5533 -178.17188,-76.03711 -14.98569,-40.67289 -13.33707,-85.61227 4.58985,-125.07812 34.00644,-73.2104 123.99633,-101.03071 194.91601,-67.25781 4.31867,2.03334 8.5241,4.29606 12.59766,6.78711 27.57301,17.81603 43.83378,42.9333 50.33203,75.08398 5.95943,29.47737 4.12767,93.1774 -31.41016,103.22461 -14.59879,4.12744 -20.40189,-7.09647 -21.39648,-20.01953 -0.632,-40.61213 9.38504,-82.98219 9.54101,-123.52344 -15.34828,-0.14187 -30.69664,-0.13801 -46.04492,0.008 -0.4902,8.70448 -0.90179,15.97151 -2.11718,24.66992 C 561.38671,510.54146 552.2117,500.455 531.22809,498.369 427.38366,488.04838 395.99602,674.5551 507.94098,683.48033 c 33.6074,2.68142 56.74803,-29.76993 63.62305,-26.85156 7.95266,12.70231 18.21435,23.63241 33.72265,25.89257 109.8545,16.0075 128.89701,-129.84665 82.39844,-199.69921 C 662.3707,444.79218 624.47865,420.36898 580.107,412.3065 c -10.73792,-1.9579 -32.22474,-4.76252 -47.97071,-4.52148 z m -7.24804,128.125 c 16.42967,0.25466 30.38409,5.86599 35.22461,23.86328 8.69203,32.31878 -0.97255,74.1568 -35.34766,85.16601 -61.74556,9.17231 -59.06314,-93.56172 -7.05078,-108.83203 2.42874,-0.16176 4.82673,-0.23364 7.17383,-0.19726 z"
                       transform="matrix(0.99667044,0,0,0.99667044,1016.5414,-232.45357)" />
                  </g>
                </g>
              </g>
            </g>
          </g>
        </g>
      </g>
    </g>
  </g>
</svg>
