<?xml version="1.0" encoding="UTF-8" standalone="no"?>
<svg
   width="921.55829"
   height="1118.3612"
   viewBox="0 0 921.55829 1118.3612"
   version="1.1"
   id="svg78"
   sodipodi:docname="new_logo_quickbib_coming_soon.svg"
   inkscape:version="1.4.3 (0d15f75042, 2025-12-25)"
   xmlns:inkscape="http://www.inkscape.org/namespaces/inkscape"
   xmlns:sodipodi="http://sodipodi.sourceforge.net/DTD/sodipodi-0.dtd"
   xmlns:xlink="http://www.w3.org/1999/xlink"
   xmlns="http://www.w3.org/2000/svg"
   xmlns:svg="http://www.w3.org/2000/svg">
  <sodipodi:namedview
     id="namedview78"
     pagecolor="#ffffff"
     bordercolor="#000000"
     borderopacity="0.25"
     inkscape:showpageshadow="2"
     inkscape:pageopacity="0.0"
     inkscape:pagecheckerboard="0"
     inkscape:deskcolor="#d1d1d1"
     inkscape:zoom="8.2395464"
     inkscape:cx="199.3435"
     inkscape:cy="-13.653664"
     inkscape:window-width="1920"
     inkscape:window-height="1012"
     inkscape:window-x="0"
     inkscape:window-y="40"
     inkscape:window-maximized="1"
     inkscape:current-layer="g8"
     showguides="true">
    <sodipodi:guide
       position="-409.41483,914.71445"
       orientation="0,-1"
       id="guide75"
       inkscape:locked="false" />
  </sodipodi:namedview>
  <path
     fill="#eff6eb"
     d="M 81.291323,46.796236 C 80.845683,41.76959 87.544474,30.873799 90.803729,27.202039 105.56862,10.568743 120.135,1.7569237 142.51022,0.96708011 c 38.3798,-1.35286032 78.00334,-0.74731356 116.34465,-0.7392126 l 226.65697,0.0607572 136.37824,-0.0951863 c 13.81486,-0.0101262 55.53697,-0.87490368 66.41668,1.13615969 24.73712,21.8989199 231.94996,224.6841719 232.37332,234.8954319 1.79877,43.41305 0.27751,87.50252 0.27548,130.97228 l -0.081,245.50364 0.079,105.40361 c 0.002,6.82304 0.41931,40.02685 -0.41323,44.67477 14.23868,86.99898 -36.03792,130.65276 -33.73704,211.45531 0.44565,24.4568 3.51044,69.61556 -13.44417,90.85836 -0.19243,0.239 -1.23361,0.8121 -1.56177,1.0045 -24.61152,46.858 -73.96624,41.6997 -120.17717,44.1988 -61.42753,3.3214 -129.52144,9.4802 -190.85175,7.7709 -123.00496,-3.4267 -247.46231,-4.0748 -369.67322,-17.5123 -11.99381,-1.3184 -31.9018,-19.3147 -41.87605,-25.5949 -53.549824,-29.4754 -75.32748,-87.60383 -73.765711,-146.28921 0,-201.40509 4.683016,-873.076952 5.837894,-881.874554 z"
     id="path2"
     sodipodi:nodetypes="cccccccccccccccccscccc"
     style="stroke-width:2.02544" />
  <path
     fill="#d5dce2"
     d="m 919.22364,827.2326 c -0.0304,-13.7048 -0.65023,-52.78788 1.31667,-64.45327 1.27008,25.60916 1.05131,63.71203 -3.05467,89.05183 -2.4652,15.2136 -17.71017,42.33157 -22.52309,56.41509 -4.10597,12.00967 -8.51781,53.39747 -8.15928,65.98839 0.44565,24.4568 3.51044,69.61556 -13.44417,90.85836 -0.19243,0.239 -1.23361,0.8121 -1.56177,1.0045 -19.05924,18.8023 -28.95044,26.2086 -56.45053,26.5124 -39.28729,0.4334 -78.54622,0.1053 -117.83351,0.051 l -213.53284,0.03 -175.97342,0.1499 c -32.04563,0.049 -64.28976,0.3726 -96.32323,-0.2592 -7.53538,-0.8871 -17.50761,-0.4213 -24.62976,-2.9204 -21.06463,-7.3942 -28.77422,-13.0365 -36.25288,-32.9244 l 3.91961,-1.4399 c -8.67176,-2.9082 -33.17795,-12.9858 -35.59657,-22.069 7.33484,3.3072 22.31243,18.2251 35.6776,19.9526 27.38057,3.5361 59.75638,2.0475 87.24229,1.9969 l 210.86507,-1.2901 c 15.84658,-0.032 30.11317,1.7417 48.03198,1.6182 59.62268,-0.4111 134.39108,1.6971 192.74572,-1.4724 2.10464,-0.1154 54.45731,-55.60899 61.67061,-62.88163 L 864.0209,882.9915 c 8.82977,-8.83207 25.57371,-29.23839 35.25829,-34.44528 6.49218,-5.65852 15.42728,-14.05921 19.94445,-21.31362 z"
     id="path3"
     style="stroke-width:2.02544" />
  <defs
     id="defs4">
    <linearGradient
       id="linearGradient14"
       inkscape:collect="always">
      <stop
         style="stop-color:#00ffff;stop-opacity:1;"
         offset="0"
         id="stop14" />
      <stop
         style="stop-color:#a82fd8;stop-opacity:1;"
         offset="1"
         id="stop15" />
    </linearGradient>
    <linearGradient
       id="linearGradient10"
       inkscape:collect="always">
      <stop
         style="stop-color:#f75050;stop-opacity:1;"
         offset="0"
         id="stop12" />
      <stop
         style="stop-color:#f7b250;stop-opacity:1;"
         offset="1"
         id="stop13" />
    </linearGradient>
    <linearGradient
       id="linearGradient2"
       inkscape:collect="always">
      <stop
         style="stop-color:#697ada;stop-opacity:1;"
         offset="0.04388713"
         id="stop2" />
      <stop
         style="stop-color:#a85bd8;stop-opacity:1;"
         offset="0.72413796"
         id="stop5" />
    </linearGradient>
    <linearGradient
       id="linearGradient5"
       inkscape:collect="always">
      <stop
         style="stop-color:#697ada;stop-opacity:1;"
         offset="0.45454547"
         id="stop10" />
      <stop
         style="stop-color:#4b9ddc;stop-opacity:1;"
         offset="0.76802504"
         id="stop11" />
    </linearGradient>
    <linearGradient
       id="linearGradient94"
       gradientUnits="userSpaceOnUse"
       x1="493.11652"
       y1="299.06982"
       x2="448.64551"
       y2="242.48683"
       spreadMethod="pad">
      <stop
         offset="0"
         stop-color="#7F5BD8"
         id="stop91" />
      <stop
         offset="1"
         stop-color="#4699DC"
         id="stop94"
         style="stop-color:#2db5d6;stop-opacity:1;" />
    </linearGradient>
    <linearGradient
       id="linearGradient87"
       gradientUnits="userSpaceOnUse"
       x1="493.11652"
       y1="299.06982"
       x2="448.64551"
       y2="242.48683"
       spreadMethod="pad">
      <stop
         offset="0"
         stop-color="#7F5BD8"
         id="stop84" />
      <stop
         offset="0.67241377"
         stop-color="#7F5BD8"
         id="stop85"
         style="stop-color:#627ada;stop-opacity:1;" />
      <stop
         offset="1"
         stop-color="#4699DC"
         id="stop87"
         style="stop-color:#2db5d6;stop-opacity:1;" />
    </linearGradient>
    <linearGradient
       id="linearGradient83"
       gradientUnits="userSpaceOnUse"
       x1="493.11652"
       y1="299.06982"
       x2="448.64551"
       y2="242.48683"
       spreadMethod="pad">
      <stop
         offset="0"
         stop-color="#7F5BD8"
         id="stop80" />
      <stop
         offset="0.93181819"
         stop-color="#7F5BD8"
         id="stop82"
         style="stop-color:#4699dc;stop-opacity:1;" />
      <stop
         offset="1"
         stop-color="#4699DC"
         id="stop83"
         style="stop-color:#2db5d6;stop-opacity:1;" />
    </linearGradient>
    <linearGradient
       id="linearGradient79"
       gradientUnits="userSpaceOnUse"
       x1="493.11652"
       y1="299.06982"
       x2="448.64551"
       y2="242.48683">
      <stop
         offset="0"
         stop-color="#7F5BD8"
         id="stop76" />
      <stop
         offset="0.93181819"
         stop-color="#7F5BD8"
         id="stop78"
         style="stop-color:#4699dc;stop-opacity:1;" />
      <stop
         offset="1"
         stop-color="#4699DC"
         id="stop79"
         style="stop-color:#2db5d6;stop-opacity:1;" />
    </linearGradient>
    <linearGradient
       id="linearGradient6"
       inkscape:collect="always">
      <stop
         style="stop-color:#4b2222;stop-opacity:1;"
         offset="0"
         id="stop6" />
      <stop
         style="stop-color:#8f8f8f;stop-opacity:0;"
         offset="0.71473354"
         id="stop9" />
    </linearGradient>
    <linearGradient
       id="gradient_0"
       gradientUnits="userSpaceOnUse"
       x1="853.3233"
       y1="579.71228"
       x2="866.89374"
       y2="584.49927"
       gradientTransform="matrix(2.02564,0,0,2.02524,-848.522,-289.82295)">
      <stop
         offset="0"
         stop-color="#9BBBC1"
         id="stop3" />
      <stop
         offset="1"
         stop-color="#C2E2E3"
         id="stop4" />
    </linearGradient>
    <filter
       style="color-interpolation-filters:sRGB"
       inkscape:label="Blur"
       id="filter79"
       x="-0.15228334"
       y="-0.050959725"
       width="1.3045667"
       height="1.1019194">
      <feGaussianBlur
         stdDeviation="5 5"
         result="blur"
         id="feGaussianBlur79" />
    </filter>
    <filter
       style="color-interpolation-filters:sRGB"
       inkscape:label="Blur"
       id="filter54"
       x="-0.067016222"
       y="-0.066529647"
       width="1.1340324"
       height="1.1330593">
      <feGaussianBlur
         stdDeviation="5 5"
         result="blur"
         id="feGaussianBlur54" />
    </filter>
    <filter
       style="color-interpolation-filters:sRGB"
       inkscape:label="Blur"
       id="filter55"
       x="-0.15212846"
       y="-0.051816847"
       width="1.3042569"
       height="1.1036336">
      <feGaussianBlur
         stdDeviation="5 5"
         result="blur"
         id="feGaussianBlur55" />
    </filter>
    <filter
       style="color-interpolation-filters:sRGB"
       inkscape:label="Blur"
       id="filter56"
       x="-0.30425691"
       y="-0.1036337"
       width="1.6085138"
       height="1.2072674">
      <feGaussianBlur
         stdDeviation="10 10"
         result="blur"
         id="feGaussianBlur56" />
    </filter>
    <filter
       style="color-interpolation-filters:sRGB"
       inkscape:label="Blur"
       id="filter57"
       x="-0.30456668"
       y="-0.10346953"
       width="1.6091332"
       height="1.2069391">
      <feGaussianBlur
         stdDeviation="10 10"
         result="blur"
         id="feGaussianBlur57" />
    </filter>
    <filter
       style="color-interpolation-filters:sRGB"
       inkscape:label="Blur"
       id="filter58"
       x="-0.13403244"
       y="-0.1330593"
       width="1.2680649"
       height="1.2661186">
      <feGaussianBlur
         stdDeviation="10 10"
         result="blur"
         id="feGaussianBlur58" />
    </filter>
    <filter
       style="color-interpolation-filters:sRGB"
       inkscape:label="Blur"
       id="filter59"
       x="-0.15020324"
       y="-0.05117107"
       width="1.3004065"
       height="1.1023421">
      <feGaussianBlur
         stdDeviation="10 10"
         result="blur"
         id="feGaussianBlur59" />
    </filter>
    <linearGradient
       inkscape:collect="always"
       xlink:href="#linearGradient6"
       id="linearGradient9"
       x1="745.58997"
       y1="879.23328"
       x2="882.87695"
       y2="1020.7628"
       gradientUnits="userSpaceOnUse"
       gradientTransform="translate(1.6303118,-2.1804574)" />
    <linearGradient
       inkscape:collect="always"
       xlink:href="#linearGradient5"
       id="linearGradient11"
       x1="555.37958"
       y1="263.21198"
       x2="481.38666"
       y2="189.21907"
       gradientUnits="userSpaceOnUse"
       gradientTransform="matrix(2.02564,0,0,2.02524,-0.9996705,0.09997228)" />
    <linearGradient
       inkscape:collect="always"
       xlink:href="#linearGradient2"
       id="linearGradient7"
       x1="1034.5039"
       y1="602.45422"
       x2="1149.1548"
       y2="602.45422"
       gradientUnits="userSpaceOnUse" />
    <linearGradient
       inkscape:collect="always"
       xlink:href="#linearGradient2"
       id="linearGradient8"
       x1="516.29449"
       y1="275.32382"
       x2="543.28473"
       y2="302.31412"
       gradientUnits="userSpaceOnUse" />
    <linearGradient
       inkscape:collect="always"
       xlink:href="#linearGradient10"
       id="linearGradient13"
       x1="497.74738"
       y1="723.77527"
       x2="497.74738"
       y2="361.06189"
       gradientUnits="userSpaceOnUse" />
    <linearGradient
       inkscape:collect="always"
       xlink:href="#linearGradient14"
       id="linearGradient15"
       x1="498.09906"
       y1="194.83521"
       x2="498.09906"
       y2="875.98743"
       gradientUnits="userSpaceOnUse" />
    <linearGradient
       inkscape:collect="always"
       xlink:href="#linearGradient2"
       id="linearGradient16"
       gradientUnits="userSpaceOnUse"
       x1="1034.5039"
       y1="602.45422"
       x2="1149.1548"
       y2="602.45422" />
  </defs>
  <path
     fill="url(#gradient_0)"
     d="m 919.22364,827.2326 c -0.0304,-13.7048 -0.65023,-52.78788 1.31667,-64.45327 1.27008,25.60916 1.05131,63.71203 -3.05467,89.05183 -2.4652,15.2136 -17.71017,42.33157 -22.52309,56.41509 -4.10597,12.00967 -8.51781,53.39747 -8.15928,65.98839 -2.77512,-4.27731 -1.26399,-97.64897 -1.57594,-110.87986 4.80684,-4.81805 9.49215,-9.75558 14.05186,-14.80856 6.49218,-5.65852 15.42728,-14.05921 19.94445,-21.31362 z"
     id="path4"
     style="fill:url(#gradient_0);stroke-width:2.02544" />
  <defs
     id="defs8">
    <linearGradient
       id="gradient_1"
       gradientUnits="userSpaceOnUse"
       x1="493.11652"
       y1="299.06982"
       x2="448.64551"
       y2="242.48683"
       xlink:href="#linearGradient87">
      <stop
         offset="0"
         stop-color="#7F5BD8"
         id="stop7" />
      <stop
         offset="0.67241377"
         stop-color="#7F5BD8"
         id="stop74"
         style="stop-color:#627ada;stop-opacity:1;" />
      <stop
         offset="1"
         stop-color="#4699DC"
         id="stop8"
         style="stop-color:#2db5d6;stop-opacity:1;" />
    </linearGradient>
  </defs>
  <path
     fill="#aed3d8"
     d="m 77.432479,758.95568 0.717077,0.33214 -0.19041,139.83472 c -0.02431,14.91387 -1.014846,59.60889 1.831178,72.39018 3.261281,14.02681 10.478636,26.8243 20.795216,36.87148 8.00331,7.9025 17.61092,14.1099 28.75599,15.6936 26.54804,3.773 58.48428,2.3594 85.54278,2.3574 l 177.06929,0.01 c 18.96404,0.01 68.7644,-1.28 85.89929,0.4779 -18.02617,1.7195 -53.46069,1.6405 -71.74006,1.6567 l -103.74113,-0.022 -99.05987,0.067 c -24.2692,0.01 -48.64777,-0.1741 -72.86025,-1.9523 -2.47331,-0.1823 -14.25038,-5.3345 -17.38404,-6.5435 -0.33828,4.4028 3.83656,7.9348 6.05666,13.1033 2.41862,9.0832 26.92481,19.1608 35.59657,22.069 l -3.91961,1.4399 c 7.47866,19.8879 15.18825,25.5302 36.25288,32.9244 7.12215,2.4991 17.09438,2.0333 24.62976,2.9204 32.03347,0.6318 64.2776,0.3078 96.32323,0.2592 l 175.97342,-0.1499 213.53284,-0.03 c 39.28729,0.055 78.54622,0.3827 117.83351,-0.051 27.50009,-0.3038 37.39129,-7.7101 56.45053,-26.5124 -24.61152,46.858 -73.96624,41.6997 -120.17717,44.1988 -61.42753,3.3214 -129.52144,9.4802 -190.85175,7.7709 -123.00496,-3.4267 -247.46231,-4.0748 -369.67322,-17.5123 -11.99381,-1.3184 -31.9018,-19.3147 -41.87605,-25.5949 -53.549824,-29.4754 -75.32748,-87.60383 -73.765711,-146.28921 -0.632,-55.67385 1.679255,-113.08535 1.97905,-169.71511 z"
     id="path38"
     style="stroke-width:2.02544" />
  <defs
     id="defs45">
    <linearGradient
       id="gradient_2"
       gradientUnits="userSpaceOnUse"
       x1="529.26324"
       y1="304.47202"
       x2="524.7594"
       y2="300.47388">
      <stop
         offset="0"
         stop-color="#8F7CA6"
         id="stop44" />
      <stop
         offset="1"
         stop-color="#8368B6"
         id="stop45" />
    </linearGradient>
  </defs>
  <defs
     id="defs48">
    <linearGradient
       id="gradient_3"
       gradientUnits="userSpaceOnUse"
       x1="487.36298"
       y1="300.91245"
       x2="459.03815"
       y2="328.13477">
      <stop
         offset="0"
         stop-color="#6D4FD1"
         id="stop47" />
      <stop
         offset="1"
         stop-color="#8C68DA"
         id="stop48" />
    </linearGradient>
  </defs>
  <g
     id="g67"
     transform="translate(-1060.7175,-414.17681)">
    <g
       id="g68"
       transform="translate(-476.5,69.5)">
      <g
         id="g73"
         transform="translate(483.20047,-68.400378)">
        <g
           id="g12"
           transform="translate(193.69998,10.6802)">
          <g
             id="g1">
            <g
               id="g2"
               style="fill:url(#linearGradient16)" />
          </g>
          <g
             id="g8">
            <path
               id="path75"
               style="fill:#2db5d6;fill-opacity:1;stroke-width:2.02544"
               d="m 855.17309,361.2702 c -4.17851,2.51648 -4.63392,4.83447 -1.82031,10.52539 24.34961,31.44285 23.72423,30.34742 72.38281,93.60743 4.08957,-3.34187 29.58822,-27.78975 41.02438,-34.608 0.81878,-0.48816 -48.55922,-63.10189 -54.68649,-69.40568 -17.09492,-0.0691 -23.88134,-0.0991 -26.58203,-0.11132 -6.25473,-0.0263 -15.87315,-0.12579 -30.31836,-0.008 z m 70.5625,104.13282 c -0.26309,0.21499 -0.4093,0.34521 -0.41992,0.3789 v 0.002 0.002 0.002 h 0.002 v 0.002 h 0.002 0.002 c 0.0333,0.002 0.19518,-0.0866 0.49805,-0.27539 -0.0283,-0.0368 -0.0557,-0.0746 -0.084,-0.11132 z m -20.34558,-94.41228 c 7.86151,9.68267 38.77507,47.66339 46.32463,57.63567 -22.94134,19.01759 -0.47229,0.31544 -24.1978,19.86245 -0.51506,-0.62469 -56.25878,-71.73662 -60.02746,-77.41414 12.06471,-0.20049 37.90063,-0.084 37.90063,-0.084 z"
               sodipodi:nodetypes="cccsccccccccccccccscscccss" />
            <g
               id="g100">
              <path
                 id="path94"
                 style="fill:url(#gradient_1)"
                 d="m 494.92809,215.33168 c -4.25845,-0.12837 -8.28295,0.36423 -11.86353,1.43116 -2.20951,0.79557 -4.19739,1.88615 -6.66128,3.4611 -1.96715,1.25725 -4.09673,2.91152 -5.80585,4.59735 -16.04559,16.3057 -31.65743,33.07377 -46.06854,50.85046 -1.32314,1.73226 -2.69466,4.1026 -3.65818,5.66677 -2.39109,6.08588 -3.58075,11.56629 -3.47305,16.73991 0.12859,2.27326 0.45664,4.66829 1.0288,7.15193 1.49466,5.47008 4.62705,10.7375 9.52438,16.20564 9.85707,7.55167 14.9991,9.01967 26.62818,8.35365 4.19989,-0.24053 6.45924,-1.51407 9.59494,-2.58562 11.34762,-5.66779 19.10752,-15.79405 27.18855,-25.15906 2.68,-3.295 7.27199,-7.82981 7.13799,-11.89481 -10.54949,-0.19678 -13.9589,-1.23307 -20.45457,-4.14109 -2.05893,1.99193 -4.09332,4.49761 -5.97227,6.70155 h -9.6e-4 v 9.7e-4 c -3.37211,3.83615 -9.99179,11.66538 -13.66466,14.53628 -1.065,1.317 -5.13405,2.74681 -6.75905,2.84881 -7.345,0.535 -13.20439,-6.55705 -13.51039,-13.48605 -0.338,-7.664 8.43946,-15.46174 13.42746,-20.99674 10.59816,-11.54319 26.20707,-29.98756 32.57901,-35.51263 10.54588,-11.60523 16.90764,-1.48468 25.92527,3.95558 3.16526,-2.66922 5.04171,-5.26641 7.43071,-7.94541 1.649,-1.868 3.06078,-3.90344 4.53078,-5.91944 -4.486,-6.679 -10.46201,-10.78479 -17.85701,-13.65579 -0.002,-2.6e-4 -0.003,-7e-4 -0.005,-9.6e-4 -3.02312,-0.68795 -5.63604,-0.92984 -8.15521,-1.15727 -0.36396,-0.0198 -0.72594,-0.0354 -1.08666,-0.0463 z m -1.21586,5.79406 c 7.359,-0.218 13.06674,1.75482 18.51074,6.72182 0.84,0.773 2.25705,1.80858 3.05305,2.62658 l -6.00698,6.73791 c -1.3908,-1.54058 -3.36863,-3.35861 -4.73461,-4.40006 -17.73113,-13.51855 -33.32236,12.93634 -45.48813,25.46792 -6.29685,6.84885 -7.59271,8.36954 -12.87691,14.26527 -6.598,6.472 -13.47539,13.43855 -13.53739,23.38555 -0.089,14.147 10.50708,21.84553 24.02308,19.13353 8.995,-4.487 13.9358,-10.90941 19.9098,-18.67641 l 2.33336,-2.62218 1.06352,-0.99718 c 3.481,0.377 6.78028,1.58949 9.99828,1.89649 l -3.43014,3.71916 -1.12137,1.41091 c -8.635,9.808 -15.15355,19.50757 -27.61955,23.65557 -3.76315,0.42098 -3.68089,0.66582 -8.88704,0.51016 h -9.7e-4 c -22.753,-3.084 -32.81321,-25.37471 -19.65621,-44.42471 8.68458,-11.62571 19.04084,-21.87089 28.7226,-32.66299 9.893,-11.111 20.02587,-25.28334 35.74487,-25.74734 z"
                 transform="scale(2.02564,2.02524)"
                 sodipodi:nodetypes="cccscccccsccccccccccccccccccccccccscccccccccccccccc" />
            </g>
            <path
               id="path40"
               d="m 529.38226,268.53202 c -3.16,3.462 -7.09268,7.08846 -10.50168,10.19946 l -8.17586,6.27814 c 6.59772,10.90534 10.31459,14.56416 17.11554,24.0963 0.977,-1.476 2.79283,-3.46922 3.99083,-4.86922 -9.35489,-11.67854 -9.04331,-11.70854 -13.47925,-17.62662 3.91638,-2.80627 7.18177,-5.37041 10.80199,-8.99036 4.58598,5.85652 9.18393,11.70366 13.75979,17.5681 1.442,-0.737 4.33994,-1.7577 5.98094,-2.3917 -19.5598,-24.2001 -0.0984,-0.0377 -19.4923,-24.2641 z"
               transform="matrix(2.02564,0,0,2.02524,5e-5,-2e-6)"
               style="fill:url(#linearGradient8)"
               sodipodi:nodetypes="cccccccccc" />
            <path
               id="path50"
               style="fill:url(#linearGradient7);fill-opacity:1;stroke-width:2.02544"
               d="m 1141.1006,633.0763 c -15.2221,0.0377 -33.2325,5.10122 -35.2512,27.59704 24.4374,-0.0446 59.2021,5.97941 35.2512,-27.59704 z m -13.5681,2.95725 c 17.0593,18.25454 -1.3749,14.30579 -13.2979,14.16074 1.7433,-9.08923 4.5981,-13.5223 13.2979,-14.16074 z"
               sodipodi:nodetypes="cccccc"
               transform="translate(5e-5)" />
            <path
               id="path106"
               style="fill:url(#linearGradient11);fill-opacity:1;stroke-width:2.02544"
               d="m 1090.2668,341.84833 c -17.1872,0.33609 -32.6618,6.43484 -45.0299,15.61187 -7.7126,6.36656 -50.251,46.14602 -56.91341,63.97016 2.14056,2.71021 12.93071,1.97122 22.19141,3.33202 8.9399,1.31365 16.666,5.46951 21.457,6.5215 15.0161,-13.78581 24.7868,-31.64162 40.6192,-44.00976 12.9785,-11.70407 31.7234,-5.94834 38.5156,11.86523 3.3099,18.68284 -1.515,26.30772 -14.082,40.09961 -9.6601,10.59984 -19.8224,20.9586 -29.1016,31.89257 -17.4847,20.09939 -32.6462,43.91808 -54.8322,59.43615 -0.2386,0.26673 -2.0971,0.97489 -2.3592,1.2533 -12.3727,4.69653 -22.23032,1.41785 -31.67385,-6.91601 -4.84596,-4.23826 -6.08784,-6.84154 -10.01758,-9.70118 -4.93041,-0.0749 -25.02553,23.15301 -25.83983,27.79688 -0.15071,1.45552 -0.27472,2.42438 0.30467,3.42578 7.49495,8.95769 16.50328,16.96401 27.08595,21.98829 16.33879,7.52984 37.18514,8.2854 54.00194,1.91602 8.2626,-3.129 15.0962,-8.51678 21.6856,-14.29884 19.7763,-17.35631 94.4837,-99.13226 103.5019,-119.93555 8.3294,-19.2094 5.9123,-37.74375 -1.2949,-56.62303 -5.4591,-8.21235 -6.9809,-11.42337 -14.0606,-18.40235 -9.9074,-12.53016 -26.9093,-18.75915 -44.1582,-19.22266 z m -3.7832,11.96289 c 14.3453,-0.26154 27.7596,6.34497 39.6993,15.48437 21.3158,25.38234 21.8271,58.70869 -2.3692,82.35742 -2.7568,3.46069 -78.2986,90.05009 -90.6054,99.05275 -8.54,6.37343 -18.6267,10.34359 -29.2188,11.5 -21.09045,1.90763 -32.7868,-4.41988 -47.45703,-17.32814 3.37067,-4.79576 6.65151,-11.08821 11.85743,-12.7246 l 3.46484,3.04296 c 4.65289,5.36284 15.66569,10.32314 22.6035,11.01172 18.47386,1.685 28.61796,-8.93295 40.59966,-20.14063 68.6738,-73.56285 1.129,-1.05365 70.164,-76.74805 9.5894,-11.97929 18.5636,-21.1148 19.461,-36.97851 0.6542,-11.27046 -3.2539,-22.32926 -10.8399,-30.68945 -13.2968,-12.21342 -26.6756,-13.48401 -38.3273,-8.91795 -10.8997,4.27132 -20.2343,13.7193 -28.0891,22.15054 -6.7028,7.63718 -13.4662,14.91608 -19.0469,23.41601 -8.8804,-2.25409 -13.2359,-2.90029 -22.3047,-3.89063 5.4018,-8.73233 37.2227,-46.59127 65.7715,-57.88671 4.3405,-1.47708 9.855,-2.62375 14.6367,-2.71094 z"
               sodipodi:nodetypes="cccsccccccccccccccccccsccccccccccccsccccss" />
          </g>
        </g>
      </g>
    </g>
  </g>
  <path
     id="path51"
     style="fill:url(#linearGradient13);stroke-width:2.02544"
     d="M 499.83984 359.78516 C 494.59119 359.8655 489.97924 360.28432 486.61719 361.18555 C 436.30839 366.10689 393.09427 385.93194 360.67188 425.4707 C 327.58305 465.27274 311.99771 516.76486 317.46289 568.23633 C 328.16029 672.16152 419.03754 734.81122 520.83203 723.82227 C 547.26663 720.9687 577.64431 713.56643 600.83789 699.96289 C 597.61915 686.16696 595.59409 678.58446 590.94727 665.1875 C 577.28028 670.39236 563.06366 676.23616 548.95508 679.9707 C 479.27509 698.42064 398.0949 677.4174 370.7832 603.93359 C 355.79751 563.2607 357.44613 518.32132 375.37305 478.85547 C 409.37949 405.64507 499.36938 377.82476 570.28906 411.59766 C 574.60773 413.631 578.81316 415.89372 582.88672 418.38477 C 610.45973 436.2008 626.7205 461.31807 633.21875 493.46875 C 639.17818 522.94612 637.34642 586.64615 601.80859 596.69336 C 587.2098 600.8208 581.4067 589.59689 580.41211 576.67383 C 579.78011 536.0617 589.79715 493.69164 589.95312 453.15039 C 574.60484 453.00852 559.25648 453.01238 543.9082 453.1582 C 543.418 461.86268 543.00641 469.12971 541.79102 477.82812 C 529.09026 462.5416 519.91525 452.45514 498.93164 450.36914 C 395.08721 440.04852 363.69957 626.55524 475.64453 635.48047 C 509.25193 638.16189 532.39256 605.71054 539.26758 608.62891 C 547.22024 621.33122 557.48193 632.26132 572.99023 634.52148 C 682.84473 650.52898 701.88724 504.67483 655.38867 434.82227 C 630.07425 396.79232 592.1822 372.36912 547.81055 364.30664 C 537.07263 362.34874 515.58581 359.54412 499.83984 359.78516 z M 492.5918 487.91016 C 509.02147 488.16482 522.97589 493.77615 527.81641 511.77344 C 536.50844 544.09222 526.84386 585.93024 492.46875 596.93945 C 430.72319 606.11176 433.40561 503.37773 485.41797 488.10742 C 487.84671 487.94566 490.2447 487.87378 492.5918 487.91016 z " />
  <g
     id="g13"
     style="fill:url(#linearGradient15)">
    <path
       fill="#b1f750"
       d="m 681.96246,301.7942 c 13.55558,-1.55538 39.77344,-1.21514 51.97589,2.15689 85.9155,23.72771 36.9497,134.47796 64.61792,192.71373 6.91148,14.54528 24.8546,16.58064 39.60734,20.07216 0.44564,13.49822 0.59959,27.00657 0.46387,40.5129 -3.45169,0.54884 -18.03225,2.99128 -20.99981,4.13756 -51.04208,19.68736 -14.40433,128.40224 -39.80383,170.08776 -12.33615,20.24835 -19.83709,27.75591 -41.082,34.75109 -18.83035,4.95171 -38.0476,3.73657 -57.34385,3.01558 -0.41525,-14.22326 -0.28966,-27.39542 -0.0304,-41.63488 18.71691,-0.10936 28.75801,1.25362 45.05834,-8.26298 32.09019,-51.23655 -21.81412,-133.08662 53.18115,-182.7131 -11.47728,-7.12075 -21.60953,-15.55384 -28.63445,-27.25771 -24.53455,-40.86731 -2.44089,-132.06995 -23.86204,-155.50805 -10.43204,-11.41425 -31.33057,-10.06747 -45.37838,-10.83706 -0.41526,-9.32825 -2.57054,-34.79565 2.23023,-41.23389 z"
       id="path53"
       style="stroke-width:2.02544;fill:url(#linearGradient15)" />
    <path
       fill="#b1f750"
       d="m 314.2356,301.79421 c -13.5555,-1.55539 -39.7734,-1.21514 -51.9759,2.15688 -85.9154,23.72771 -36.9497,134.47796 -64.6179,192.71374 -6.9115,14.54527 -24.8546,16.58064 -39.6073,20.07215 -0.4456,13.49823 -0.5996,27.00658 -0.4639,40.5129 3.4517,0.54884 18.0323,2.99128 20.9998,4.13757 51.0421,19.68736 14.4044,128.40224 39.8039,170.0878 12.3361,20.2483 19.837,27.7559 41.082,34.751 18.8303,4.9518 38.0476,3.7366 57.3438,3.0156 0.4153,-14.2232 0.2897,-27.3954 0.03,-41.6349 -18.7169,-0.1093 -28.758,1.2537 -45.0583,-8.2629 -32.0902,-51.23658 21.8141,-133.08666 -53.1812,-182.71314 11.4773,-7.12074 21.6095,-15.55384 28.6344,-27.2577 24.5346,-40.86732 2.4409,-132.06995 23.8621,-155.50806 10.432,-11.41425 31.3306,-10.06746 45.3784,-10.83705 0.4152,-9.32826 2.5705,-34.79565 -2.2303,-41.23389 z"
       id="path58"
       style="stroke-width:2.02544;fill:url(#linearGradient15)" />
  </g>
  <path
     style="fill:url(#linearGradient9);stroke:none;stroke-width:7.55906"
     d="M 692.68074,1054.9086 920.83359,827.2558 H 741.264 c -31.82184,-0.13809 -50.87271,12.98596 -48.08326,48.79036 z"
     id="path5"
     sodipodi:nodetypes="ccccc" />
</svg>
