<?xml version="1.0" encoding="UTF-8" standalone="no"?>
<svg
   width="921.55829"
   height="1118.3612"
   viewBox="0 0 921.55829 1118.3612"
   version="1.1"
   id="svg78"
   sodipodi:docname="new_logo_quickbib_coming_soon.svg"
   inkscape:version="1.4.3 (0d15f75042, 2025-12-25)"
   xmlns:inkscape="http://www.inkscape.org/namespaces/inkscape"
   xmlns:sodipodi="http://sodipodi.sourceforge.net/DTD/sodipodi-0.dtd"
   xmlns:xlink="http://www.w3.org/1999/xlink"
   xmlns="http://www.w3.org/2000/svg"
   xmlns:svg="http://www.w3.org/2000/svg">
  <sodipodi:namedview
     id="namedview78"
     pagecolor="#ffffff"
     bordercolor="#000000"
     borderopacity="0.25"
     inkscape:showpageshadow="2"
     inkscape:pageopacity="0.0"
     inkscape:pagecheckerboard="0"
     inkscape:deskcolor="#d1d1d1"
     inkscape:zoom="2.0598866"
     inkscape:cx="-150.25099"
     inkscape:cy="365.31137"
     inkscape:window-width="1920"
     inkscape:window-height="1012"
     inkscape:window-x="0"
     inkscape:window-y="40"
     inkscape:window-maximized="1"
     inkscape:current-layer="g9"
     showguides="true">
    <sodipodi:guide
       position="-409.41483,914.71445"
       orientation="0,-1"
       id="guide75"
       inkscape:locked="false" />
  </sodipodi:namedview>
  <path
     fill="#eff6eb"
     d="M 81.291323,46.796236 C 80.845683,41.76959 87.544474,30.873799 90.803729,27.202039 105.56862,10.568743 120.135,1.7569237 142.51022,0.96708011 c 38.3798,-1.35286032 78.00334,-0.74731356 116.34465,-0.7392126 l 226.65697,0.0607572 136.37824,-0.0951863 c 13.81486,-0.0101262 55.53697,-0.87490368 66.41668,1.13615969 24.73712,21.8989199 231.94996,224.6841719 232.37332,234.8954319 1.79877,43.41305 0.27751,87.50252 0.27548,130.97228 l -0.081,245.50364 0.079,105.40361 c 0.002,6.82304 0.41931,40.02685 -0.41323,44.67477 14.23868,86.99898 -36.03792,130.65276 -33.73704,211.45531 0.44565,24.4568 3.51044,69.61556 -13.44417,90.85836 -0.19243,0.239 -1.23361,0.8121 -1.56177,1.0045 -24.61152,46.858 -73.96624,41.6997 -120.17717,44.1988 -61.42753,3.3214 -129.52144,9.4802 -190.85175,7.7709 -123.00496,-3.4267 -247.46231,-4.0748 -369.67322,-17.5123 -11.99381,-1.3184 -31.9018,-19.3147 -41.87605,-25.5949 -53.549824,-29.4754 -75.32748,-87.60383 -73.765711,-146.28921 0,-201.40509 4.683016,-873.076952 5.837894,-881.874554 z"
     id="path2"
     sodipodi:nodetypes="cccccccccccccccccscccc"
     style="stroke-width:2.02544" />
  <path
     fill="#d5dce2"
     d="m 919.22364,827.2326 c -0.0304,-13.7048 -0.65023,-52.78788 1.31667,-64.45327 1.27008,25.60916 1.05131,63.71203 -3.05467,89.05183 -2.4652,15.2136 -17.71017,42.33157 -22.52309,56.41509 -4.10597,12.00967 -8.51781,53.39747 -8.15928,65.98839 0.44565,24.4568 3.51044,69.61556 -13.44417,90.85836 -0.19243,0.239 -1.23361,0.8121 -1.56177,1.0045 -19.05924,18.8023 -28.95044,26.2086 -56.45053,26.5124 -39.28729,0.4334 -78.54622,0.1053 -117.83351,0.051 l -213.53284,0.03 -175.97342,0.1499 c -32.04563,0.049 -64.28976,0.3726 -96.32323,-0.2592 -7.53538,-0.8871 -17.50761,-0.4213 -24.62976,-2.9204 -21.06463,-7.3942 -28.77422,-13.0365 -36.25288,-32.9244 l 3.91961,-1.4399 c -8.67176,-2.9082 -33.17795,-12.9858 -35.59657,-22.069 7.33484,3.3072 22.31243,18.2251 35.6776,19.9526 27.38057,3.5361 59.75638,2.0475 87.24229,1.9969 l 210.86507,-1.2901 c 15.84658,-0.032 30.11317,1.7417 48.03198,1.6182 59.62268,-0.4111 134.39108,1.6971 192.74572,-1.4724 2.10464,-0.1154 54.45731,-55.60899 61.67061,-62.88163 L 864.0209,882.9915 c 8.82977,-8.83207 25.57371,-29.23839 35.25829,-34.44528 6.49218,-5.65852 15.42728,-14.05921 19.94445,-21.31362 z"
     id="path3"
     style="stroke-width:2.02544" />
  <defs
     id="defs4">
    <linearGradient
       id="linearGradient108"
       inkscape:collect="always">
      <stop
         style="stop-color:#697ada;stop-opacity:1;"
         offset="0.00313479"
         id="stop108" />
      <stop
         style="stop-color:#5adb6a;stop-opacity:1;"
         offset="0.38714731"
         id="stop110" />
      <stop
         style="stop-color:#4b9ddc;stop-opacity:1;"
         offset="0.60188091"
         id="stop109" />
    </linearGradient>
    <linearGradient
       id="linearGradient94"
       gradientUnits="userSpaceOnUse"
       x1="493.11652"
       y1="299.06982"
       x2="448.64551"
       y2="242.48683"
       spreadMethod="pad">
      <stop
         offset="0"
         stop-color="#7F5BD8"
         id="stop91" />
      <stop
         offset="1"
         stop-color="#4699DC"
         id="stop94"
         style="stop-color:#2db5d6;stop-opacity:1;" />
    </linearGradient>
    <linearGradient
       id="linearGradient87"
       gradientUnits="userSpaceOnUse"
       x1="493.11652"
       y1="299.06982"
       x2="448.64551"
       y2="242.48683"
       spreadMethod="pad">
      <stop
         offset="0"
         stop-color="#7F5BD8"
         id="stop84" />
      <stop
         offset="0.67241377"
         stop-color="#7F5BD8"
         id="stop85"
         style="stop-color:#627ada;stop-opacity:1;" />
      <stop
         offset="1"
         stop-color="#4699DC"
         id="stop87"
         style="stop-color:#2db5d6;stop-opacity:1;" />
    </linearGradient>
    <linearGradient
       id="linearGradient83"
       gradientUnits="userSpaceOnUse"
       x1="493.11652"
       y1="299.06982"
       x2="448.64551"
       y2="242.48683"
       spreadMethod="pad">
      <stop
         offset="0"
         stop-color="#7F5BD8"
         id="stop80" />
      <stop
         offset="0.93181819"
         stop-color="#7F5BD8"
         id="stop82"
         style="stop-color:#4699dc;stop-opacity:1;" />
      <stop
         offset="1"
         stop-color="#4699DC"
         id="stop83"
         style="stop-color:#2db5d6;stop-opacity:1;" />
    </linearGradient>
    <linearGradient
       id="linearGradient79"
       gradientUnits="userSpaceOnUse"
       x1="493.11652"
       y1="299.06982"
       x2="448.64551"
       y2="242.48683">
      <stop
         offset="0"
         stop-color="#7F5BD8"
         id="stop76" />
      <stop
         offset="0.93181819"
         stop-color="#7F5BD8"
         id="stop78"
         style="stop-color:#4699dc;stop-opacity:1;" />
      <stop
         offset="1"
         stop-color="#4699DC"
         id="stop79"
         style="stop-color:#2db5d6;stop-opacity:1;" />
    </linearGradient>
    <linearGradient
       id="linearGradient6"
       inkscape:collect="always">
      <stop
         style="stop-color:#4b2222;stop-opacity:1;"
         offset="0"
         id="stop6" />
      <stop
         style="stop-color:#8f8f8f;stop-opacity:0;"
         offset="0.71473354"
         id="stop9" />
    </linearGradient>
    <linearGradient
       id="linearGradient69"
       inkscape:collect="always">
      <stop
         style="stop-color:#697ada;stop-opacity:1;"
         offset="0"
         id="stop69" />
      <stop
         style="stop-color:#8368b6;stop-opacity:1;"
         offset="1"
         id="stop70" />
    </linearGradient>
    <linearGradient
       id="gradient_0"
       gradientUnits="userSpaceOnUse"
       x1="853.3233"
       y1="579.71228"
       x2="866.89374"
       y2="584.49927"
       gradientTransform="matrix(2.02564,0,0,2.02524,-848.522,-289.82295)">
      <stop
         offset="0"
         stop-color="#9BBBC1"
         id="stop3" />
      <stop
         offset="1"
         stop-color="#C2E2E3"
         id="stop4" />
    </linearGradient>
    <filter
       style="color-interpolation-filters:sRGB"
       inkscape:label="Blur"
       id="filter79"
       x="-0.15228334"
       y="-0.050959725"
       width="1.3045667"
       height="1.1019194">
      <feGaussianBlur
         stdDeviation="5 5"
         result="blur"
         id="feGaussianBlur79" />
    </filter>
    <filter
       style="color-interpolation-filters:sRGB"
       inkscape:label="Blur"
       id="filter54"
       x="-0.067016222"
       y="-0.066529647"
       width="1.1340324"
       height="1.1330593">
      <feGaussianBlur
         stdDeviation="5 5"
         result="blur"
         id="feGaussianBlur54" />
    </filter>
    <filter
       style="color-interpolation-filters:sRGB"
       inkscape:label="Blur"
       id="filter55"
       x="-0.15212846"
       y="-0.051816847"
       width="1.3042569"
       height="1.1036336">
      <feGaussianBlur
         stdDeviation="5 5"
         result="blur"
         id="feGaussianBlur55" />
    </filter>
    <filter
       style="color-interpolation-filters:sRGB"
       inkscape:label="Blur"
       id="filter56"
       x="-0.30425691"
       y="-0.1036337"
       width="1.6085138"
       height="1.2072674">
      <feGaussianBlur
         stdDeviation="10 10"
         result="blur"
         id="feGaussianBlur56" />
    </filter>
    <filter
       style="color-interpolation-filters:sRGB"
       inkscape:label="Blur"
       id="filter57"
       x="-0.30456668"
       y="-0.10346953"
       width="1.6091332"
       height="1.2069391">
      <feGaussianBlur
         stdDeviation="10 10"
         result="blur"
         id="feGaussianBlur57" />
    </filter>
    <filter
       style="color-interpolation-filters:sRGB"
       inkscape:label="Blur"
       id="filter58"
       x="-0.13403244"
       y="-0.1330593"
       width="1.2680649"
       height="1.2661186">
      <feGaussianBlur
         stdDeviation="10 10"
         result="blur"
         id="feGaussianBlur58" />
    </filter>
    <filter
       style="color-interpolation-filters:sRGB"
       inkscape:label="Blur"
       id="filter59"
       x="-0.15020324"
       y="-0.05117107"
       width="1.3004065"
       height="1.1023421">
      <feGaussianBlur
         stdDeviation="10 10"
         result="blur"
         id="feGaussianBlur59" />
    </filter>
    <linearGradient
       inkscape:collect="always"
       xlink:href="#linearGradient69"
       id="linearGradient70"
       x1="533.1037"
       y1="270.0239"
       x2="526.47552"
       y2="307.61404"
       gradientUnits="userSpaceOnUse" />
    <linearGradient
       inkscape:collect="always"
       xlink:href="#linearGradient6"
       id="linearGradient9"
       x1="745.58997"
       y1="879.23328"
       x2="882.87695"
       y2="1020.7628"
       gradientUnits="userSpaceOnUse"
       gradientTransform="translate(-161,-75)" />
    <linearGradient
       inkscape:collect="always"
       xlink:href="#linearGradient108"
       id="linearGradient109"
       x1="1142.4729"
       y1="253.74452"
       x2="1041.3468"
       y2="531.58588"
       gradientUnits="userSpaceOnUse" />
  </defs>
  <path
     fill="url(#gradient_0)"
     d="m 919.22364,827.2326 c -0.0304,-13.7048 -0.65023,-52.78788 1.31667,-64.45327 1.27008,25.60916 1.05131,63.71203 -3.05467,89.05183 -2.4652,15.2136 -17.71017,42.33157 -22.52309,56.41509 -4.10597,12.00967 -8.51781,53.39747 -8.15928,65.98839 -2.77512,-4.27731 -1.26399,-97.64897 -1.57594,-110.87986 4.80684,-4.81805 9.49215,-9.75558 14.05186,-14.80856 6.49218,-5.65852 15.42728,-14.05921 19.94445,-21.31362 z"
     id="path4"
     style="fill:url(#gradient_0);stroke-width:2.02544" />
  <defs
     id="defs8">
    <linearGradient
       id="gradient_1"
       gradientUnits="userSpaceOnUse"
       x1="493.11652"
       y1="299.06982"
       x2="448.64551"
       y2="242.48683"
       xlink:href="#linearGradient87">
      <stop
         offset="0"
         stop-color="#7F5BD8"
         id="stop7" />
      <stop
         offset="0.67241377"
         stop-color="#7F5BD8"
         id="stop74"
         style="stop-color:#627ada;stop-opacity:1;" />
      <stop
         offset="1"
         stop-color="#4699DC"
         id="stop8"
         style="stop-color:#2db5d6;stop-opacity:1;" />
    </linearGradient>
  </defs>
  <path
     fill="#aed3d8"
     d="m 77.432479,758.95568 0.717077,0.33214 -0.19041,139.83472 c -0.02431,14.91387 -1.014846,59.60889 1.831178,72.39018 3.261281,14.02681 10.478636,26.8243 20.795216,36.87148 8.00331,7.9025 17.61092,14.1099 28.75599,15.6936 26.54804,3.773 58.48428,2.3594 85.54278,2.3574 l 177.06929,0.01 c 18.96404,0.01 68.7644,-1.28 85.89929,0.4779 -18.02617,1.7195 -53.46069,1.6405 -71.74006,1.6567 l -103.74113,-0.022 -99.05987,0.067 c -24.2692,0.01 -48.64777,-0.1741 -72.86025,-1.9523 -2.47331,-0.1823 -14.25038,-5.3345 -17.38404,-6.5435 -0.33828,4.4028 3.83656,7.9348 6.05666,13.1033 2.41862,9.0832 26.92481,19.1608 35.59657,22.069 l -3.91961,1.4399 c 7.47866,19.8879 15.18825,25.5302 36.25288,32.9244 7.12215,2.4991 17.09438,2.0333 24.62976,2.9204 32.03347,0.6318 64.2776,0.3078 96.32323,0.2592 l 175.97342,-0.1499 213.53284,-0.03 c 39.28729,0.055 78.54622,0.3827 117.83351,-0.051 27.50009,-0.3038 37.39129,-7.7101 56.45053,-26.5124 -24.61152,46.858 -73.96624,41.6997 -120.17717,44.1988 -61.42753,3.3214 -129.52144,9.4802 -190.85175,7.7709 -123.00496,-3.4267 -247.46231,-4.0748 -369.67322,-17.5123 -11.99381,-1.3184 -31.9018,-19.3147 -41.87605,-25.5949 -53.549824,-29.4754 -75.32748,-87.60383 -73.765711,-146.28921 -0.632,-55.67385 1.679255,-113.08535 1.97905,-169.71511 z"
     id="path38"
     style="stroke-width:2.02544" />
  <defs
     id="defs45">
    <linearGradient
       id="gradient_2"
       gradientUnits="userSpaceOnUse"
       x1="529.26324"
       y1="304.47202"
       x2="524.7594"
       y2="300.47388">
      <stop
         offset="0"
         stop-color="#8F7CA6"
         id="stop44" />
      <stop
         offset="1"
         stop-color="#8368B6"
         id="stop45" />
    </linearGradient>
  </defs>
  <defs
     id="defs48">
    <linearGradient
       id="gradient_3"
       gradientUnits="userSpaceOnUse"
       x1="487.36298"
       y1="300.91245"
       x2="459.03815"
       y2="328.13477">
      <stop
         offset="0"
         stop-color="#6D4FD1"
         id="stop47" />
      <stop
         offset="1"
         stop-color="#8C68DA"
         id="stop48" />
    </linearGradient>
  </defs>
  <g
     id="g67"
     transform="translate(-1301.022,-158.82295)">
    <g
       id="g68"
       transform="translate(-476.5,69.5)">
      <g
         id="g73"
         transform="translate(483.20047,-68.400378)">
        <path
           id="path75"
           style="fill:#2db5d6;fill-opacity:1;stroke-width:2.02544"
           d="m 855.17309,361.2702 c -4.17851,2.51648 -4.63392,4.83447 -1.82031,10.52539 24.34961,31.44285 23.72423,30.34742 72.38281,93.60743 4.08957,-3.34187 29.58822,-27.78975 41.02438,-34.608 0.81878,-0.48816 -48.55922,-63.10189 -54.68649,-69.40568 -17.09492,-0.0691 -23.88134,-0.0991 -26.58203,-0.11132 -6.25473,-0.0263 -15.87315,-0.12579 -30.31836,-0.008 z m 70.5625,104.13282 c -0.26309,0.21499 -0.4093,0.34521 -0.41992,0.3789 v 0.002 0.002 0.002 h 0.002 v 0.002 h 0.002 0.002 c 0.0333,0.002 0.19518,-0.0866 0.49805,-0.27539 -0.0283,-0.0368 -0.0557,-0.0746 -0.084,-0.11132 z m -20.34558,-94.41228 c 7.86151,9.68267 38.77507,47.66339 46.32463,57.63567 -22.94134,19.01759 -0.47229,0.31544 -24.1978,19.86245 -0.51506,-0.62469 -56.25878,-71.73662 -60.02746,-77.41414 12.06471,-0.20049 37.90063,-0.084 37.90063,-0.084 z"
           sodipodi:nodetypes="cccsccccccccccccccscscccss" />
        <path
           fill="#4b9ddc"
           d="m 925.52891,318.78892 c -6.5651,-0.61973 -21.0059,2.44851 -23.6008,-4.90716 6.6624,-17.82414 41.76668,-50.15912 56.30678,-64.21429 21.7837,-21.06047 69.97971,-21.20628 89.79461,3.85404 -4.9203,-0.0466 -9.241,-5.4965 -15.0019,-8.57892 -30.2955,-16.20192 -59.31081,-8.61942 -82.79811,14.8045 -2.8582,2.85154 -5.0519,5.03475 -6.8142,8.73486 l 0.6259,2.32093 c 7.7967,2.01106 12.7392,-6.47672 18.881,-12.03398 11.6231,-10.62036 27.1152,-15.96901 42.81591,-14.78627 10.1141,0.82022 29.2786,7.80122 35.5237,15.90218 l -0.476,1.8612 c -15.9195,-12.18587 -34.4582,-19.86963 -54.33381,-12.77319 -2.0135,1.42982 -4.1647,2.67736 -5.6778,4.51628 2.7974,2.969 4.1991,6.12028 6.008,9.71305 3.0445,-1.3245 5.1411,-1.86524 8.4408,-0.98224 l 8.79541,0.84453 c -7.91621,3.7872 -15.47191,3.28494 -22.96471,7.80122 -7.2336,4.36237 -8.7913,10.17481 -13.5596,16.40445 -6.0668,6.38558 -17.1673,13.55088 -21.0829,22.1865 l 0.5773,2.27029 c 3.4679,1.24958 3.2653,1.26173 6.8143,0.32809 10.5758,-9.28775 34.6465,-50.99757 52.75171,-37.58845 -7.64071,0.35239 -13.08571,0.35847 -19.35911,5.25752 -15.8324,12.36814 -25.9606,29.50977 -40.9766,43.29558 -6.4213,-1.41159 -14.299,-3.37202 -20.68988,-4.23072 z"
           id="path30"
           style="stroke-width:2.02544" />
        <path
           id="path40"
           d="m 529.38226,268.53202 c -3.16,3.462 -7.09268,7.08846 -10.50168,10.19946 l -8.17586,6.27814 c 6.59772,10.90534 10.31459,14.56416 17.11554,24.0963 0.977,-1.476 2.79283,-3.46922 3.99083,-4.86922 -9.35489,-11.67854 -9.04331,-11.70854 -13.47925,-17.62662 3.91638,-2.80627 7.18177,-5.37041 10.80199,-8.99036 4.58598,5.85652 9.18393,11.70366 13.75979,17.5681 1.442,-0.737 4.33994,-1.7577 5.98094,-2.3917 -19.5598,-24.2001 -0.0984,-0.0377 -19.4923,-24.2641 z"
           transform="scale(2.02564,2.02524)"
           style="fill:url(#linearGradient70)"
           sodipodi:nodetypes="cccccccccc" />
        <g
           id="g100">
          <path
             id="path94"
             style="fill:url(#gradient_1)"
             d="m 494.92809,215.33168 c -4.25845,-0.12837 -8.28295,0.36423 -11.86353,1.43116 -2.20951,0.79557 -4.19739,1.88615 -6.66128,3.4611 -1.96715,1.25725 -4.09673,2.91152 -5.80585,4.59735 -16.04559,16.3057 -31.65743,33.07377 -46.06854,50.85046 -1.32314,1.73226 -2.69466,4.1026 -3.65818,5.66677 -2.39109,6.08588 -3.58075,11.56629 -3.47305,16.73991 0.12859,2.27326 0.45664,4.66829 1.0288,7.15193 1.49466,5.47008 4.62705,10.7375 9.52438,16.20564 9.85707,7.55167 14.9991,9.01967 26.62818,8.35365 4.19989,-0.24053 6.45924,-1.51407 9.59494,-2.58562 11.34762,-5.66779 19.10752,-15.79405 27.18855,-25.15906 2.68,-3.295 7.27199,-7.82981 7.13799,-11.89481 -10.54949,-0.19678 -13.9589,-1.23307 -20.45457,-4.14109 -2.05893,1.99193 -4.09332,4.49761 -5.97227,6.70155 h -9.6e-4 v 9.7e-4 c -3.37211,3.83615 -9.99179,11.66538 -13.66466,14.53628 -1.065,1.317 -5.13405,2.74681 -6.75905,2.84881 -7.345,0.535 -13.20439,-6.55705 -13.51039,-13.48605 -0.338,-7.664 8.43946,-15.46174 13.42746,-20.99674 10.59816,-11.54319 26.20707,-29.98756 32.57901,-35.51263 10.54588,-11.60523 16.90764,-1.48468 25.92527,3.95558 3.16526,-2.66922 5.04171,-5.26641 7.43071,-7.94541 1.649,-1.868 3.06078,-3.90344 4.53078,-5.91944 -4.486,-6.679 -10.46201,-10.78479 -17.85701,-13.65579 -0.002,-2.6e-4 -0.003,-7e-4 -0.005,-9.6e-4 -3.02312,-0.68795 -5.63604,-0.92984 -8.15521,-1.15727 -0.36396,-0.0198 -0.72594,-0.0354 -1.08666,-0.0463 z m -1.21586,5.79406 c 7.359,-0.218 13.06674,1.75482 18.51074,6.72182 0.84,0.773 2.25705,1.80858 3.05305,2.62658 l -6.00698,6.73791 c -1.3908,-1.54058 -3.36863,-3.35861 -4.73461,-4.40006 -17.73113,-13.51855 -33.32236,12.93634 -45.48813,25.46792 -6.29685,6.84885 -7.59271,8.36954 -12.87691,14.26527 -6.598,6.472 -13.47539,13.43855 -13.53739,23.38555 -0.089,14.147 10.50708,21.84553 24.02308,19.13353 8.995,-4.487 13.9358,-10.90941 19.9098,-18.67641 l 2.33336,-2.62218 1.06352,-0.99718 c 3.481,0.377 6.78028,1.58949 9.99828,1.89649 l -3.43014,3.71916 -1.12137,1.41091 c -8.635,9.808 -15.15355,19.50757 -27.61955,23.65557 -3.76315,0.42098 -3.68089,0.66582 -8.88704,0.51016 h -9.7e-4 c -22.753,-3.084 -32.81321,-25.37471 -19.65621,-44.42471 8.68458,-11.62571 19.04084,-21.87089 28.7226,-32.66299 9.893,-11.111 20.02587,-25.28334 35.74487,-25.74734 z"
             transform="scale(2.02564,2.02524)"
             sodipodi:nodetypes="cccscccccsccccccccccccccccccccccccscccccccccccccccc" />
        </g>
        <path
           id="path50"
           style="fill:#aa76ba;fill-opacity:1;stroke-width:2.02544"
           d="m 1141.1006,633.0763 c -15.2221,0.0377 -33.2325,5.10122 -35.2512,27.59704 24.4374,-0.0446 59.2021,5.97941 35.2512,-27.59704 z m -13.5681,2.95725 c 17.0593,18.25454 -1.3749,14.30579 -13.2979,14.16074 1.7433,-9.08923 4.5981,-13.5223 13.2979,-14.16074 z"
           sodipodi:nodetypes="cccccc" />
        <g
           id="g9"
           transform="translate(-0.9996705,0.09997228)"
           style="fill:url(#linearGradient109);fill-opacity:1">
          <path
             id="path104"
             style="fill:url(#linearGradient109);fill-opacity:1"
             d="m 529.72017,182.85175 c 109.74252,-105.02228 109.74252,-105.02228 0,0 z"
             transform="scale(2.02564,2.02524)"
             sodipodi:nodetypes="cc" />
          <path
             id="path106"
             style="fill:url(#linearGradient109);fill-opacity:1"
             d="m 538.72678,168.74462 c -8.48487,0.16595 -16.42376,3.05747 -22.52953,7.5888 -3.8075,3.14361 -24.50792,22.90531 -27.79696,31.70631 1.05673,1.33822 6.38351,0.97333 10.95525,1.64525 4.41337,0.64864 8.22754,2.70067 10.59272,3.22011 7.41301,-6.807 12.2365,-15.62364 20.0525,-21.73064 6.40712,-5.7791 15.66094,-2.9371 19.01405,5.85868 1.634,9.225 -0.74793,12.98993 -6.95189,19.79993 -4.76891,5.23387 -9.78574,10.3487 -14.36661,15.74755 -8.63168,9.92445 -16.1165,21.68537 -27.06905,29.34771 -0.11779,0.1317 -1.0353,0.48137 -1.16469,0.61884 -6.10804,2.319 -10.97446,0.70009 -15.63646,-3.41491 -2.39231,-2.09272 -3.00539,-3.37814 -4.94539,-4.79014 -2.434,-0.037 -12.35438,11.43223 -12.75638,13.72523 -0.0744,0.71869 -0.13562,1.19708 0.15041,1.69154 3.70004,4.42303 8.14719,8.3763 13.37155,10.85713 8.06599,3.718 18.35724,4.09107 26.65921,0.94607 4.07901,-1.545 7.45253,-4.20532 10.70552,-7.06032 9.76299,-8.57 46.64391,-48.9484 51.09593,-59.22041 4.11199,-9.485 2.91873,-18.63668 -0.63926,-27.95868 -2.695,-4.055 -3.44625,-5.6405 -6.94129,-9.0865 -4.891,-6.187 -13.28435,-9.26268 -21.79963,-9.49155 z m -1.86766,5.9069 c 7.08183,-0.12914 13.70411,3.13295 19.59836,7.6457 10.523,12.533 10.77542,28.98851 -1.16958,40.66551 -1.36096,1.70878 -38.65374,44.46391 -44.7293,48.90914 -4.21595,3.147 -9.19545,5.10734 -14.42446,5.67834 -10.41174,0.94193 -16.18589,-2.1824 -23.42816,-8.55609 1.664,-2.368 3.28366,-5.47501 5.85367,-6.28301 l 1.71049,1.50252 c 2.297,2.648 7.7337,5.09724 11.1587,5.43724 9.12001,0.832 14.12784,-4.41081 20.04286,-9.94481 33.90227,-36.32303 0.55736,-0.52026 34.63797,-37.89578 4.734,-5.915 9.1643,-10.42583 9.6073,-18.25883 0.323,-5.565 -1.60632,-11.02549 -5.35132,-15.15349 -6.56427,-6.0306 -13.16898,-6.65798 -18.9211,-4.4034 -5.38085,2.10904 -9.98908,6.77416 -13.86678,10.93724 -3.30898,3.771 -6.64786,7.36509 -9.40289,11.56209 -4.384,-1.113 -6.53417,-1.43207 -11.01118,-1.92107 10.09617,-10.66398 18.37579,-23.00531 32.46949,-28.58264 2.14278,-0.72934 4.86511,-1.29553 7.22572,-1.33858 z"
             transform="scale(2.02564,2.02524)"
             sodipodi:nodetypes="cccsccccccccccccccccccsccccccccccccsccccss" />
        </g>
        <path
           style="fill:#697ada;fill-opacity:1;stroke:none;stroke-width:7.55906"
           d="m 933.62203,326.66467 350.50477,-6.79649"
           id="path107" />
        <path
           style="fill:#697ada;fill-opacity:1;stroke:none;stroke-width:7.55906"
           d="m 876.82279,319.86818 400.50751,-1.45639"
           id="path108" />
      </g>
    </g>
  </g>
  <g
     id="g75">
    <path
       fill="#b1f750"
       d="m 486.61784,361.18639 c 13.44822,-3.60492 46.87533,0.51036 61.19255,3.1209 44.37165,8.06248 82.26327,32.48485 107.57769,70.5148 46.49857,69.85256 27.45755,215.70629 -82.39695,199.69879 -15.5083,-2.26016 -25.7702,-13.19038 -33.72286,-25.89269 -6.87502,-2.91837 -30.01593,29.53408 -63.62333,26.85266 -111.94496,-8.92523 -80.55767,-195.43161 23.28676,-185.11099 20.98361,2.086 30.15773,12.17169 42.85849,27.45821 1.21539,-8.69841 1.62862,-15.96497 2.11882,-24.66945 15.34828,-0.14582 30.69655,-0.14987 46.04483,-0.008 -0.15598,40.54125 -10.17277,82.9113 -9.54077,123.52343 0.99459,12.92306 6.79602,24.14694 21.39481,20.0195 35.53783,-10.04721 37.37103,-73.74709 31.4116,-103.22446 -6.49825,-32.15068 -22.76009,-57.26771 -50.3331,-75.08374 -4.07356,-2.49105 -8.27879,-4.75527 -12.59746,-6.78861 -70.91968,-33.7729 -160.90874,-5.95218 -194.91518,67.25822 -17.92692,39.46585 -19.57579,84.40593 -4.5901,125.07882 27.3117,73.48381 108.49125,94.48758 178.17124,76.03764 14.10858,-3.73454 28.32453,-9.57939 41.99152,-14.78425 4.64682,13.39696 6.67246,20.97946 9.8912,34.77539 -23.19358,13.60354 -53.57008,21.00579 -80.00468,23.85936 -101.79449,10.98895 -192.6728,-51.65983 -203.3702,-155.58502 -5.46518,-51.47147 10.12009,-102.9632 43.20892,-142.76524 32.4224,-39.53876 75.6374,-59.36383 125.9462,-64.28517 z"
       id="path51"
       style="stroke-width:2.02544" />
    <path
       fill="#b1f750"
       transform="matrix(2.02564,0,0,2.02524,-848.522,-289.82295)"
       d="m 659.12,321.448 c 6.639,-1.78 23.141,0.252 30.209,1.541 21.905,3.981 40.611,16.04 53.108,34.818 22.955,34.491 13.555,106.509 -40.677,98.605 -7.656,-1.116 -12.722,-6.513 -16.648,-12.785 -3.394,-1.441 -14.818,14.583 -31.409,13.259 -55.264,-4.407 -39.769,-96.498 11.496,-91.402 10.359,1.03 14.888,6.01 21.158,13.558 0.6,-4.295 0.804,-7.883 1.046,-12.181 7.577,-0.072 15.154,-0.074 22.731,-0.004 -0.077,20.018 -5.022,40.939 -4.71,60.992 0.491,6.381 3.355,11.923 10.562,9.885 17.544,-4.961 18.449,-36.414 15.507,-50.969 -3.208,-15.875 -11.236,-28.277 -24.848,-37.074 -2.011,-1.23 -4.087,-2.348 -6.219,-3.352 -35.011,-16.676 -79.436,-2.939 -96.224,33.21 -8.85,19.487 -9.664,41.677 -2.266,61.76 13.483,36.284 53.559,46.655 87.958,37.545 6.965,-1.844 13.983,-4.73 20.73,-7.3 2.294,6.615 3.294,10.359 4.883,17.171 -11.45,6.717 -26.446,10.372 -39.496,11.781 -50.253,5.426 -95.117,-25.508 -100.398,-76.823 -2.698,-25.415 4.996,-50.84 21.331,-70.493 16.006,-19.523 37.34,-29.312 62.176,-31.742 z"
       id="path57"
       style="filter:url(#filter58)" />
    <path
       fill="#e0fbbd"
       d="m 491.4186,488.10818 c 19.42994,-1.29412 36.86665,3.0966 42.39867,23.66493 8.69203,32.31878 -0.97433,74.15619 -35.34944,85.1654 -61.74556,9.17231 -59.06159,-93.56002 -7.04923,-108.83033 z"
       id="path52"
       style="stroke-width:2.02544" />
    <g
       id="g74">
      <path
         fill="#b1f750"
         transform="matrix(2.02564,0,0,2.02524,-848.522,-289.82295)"
         d="m 755.556,292.122 c 6.692,-0.768 19.635,-0.6 25.659,1.065 42.414,11.716 18.241,66.401 31.9,95.156 3.412,7.182 12.27,8.187 19.553,9.911 0.22,6.665 0.296,13.335 0.229,20.004 -1.704,0.271 -8.902,1.477 -10.367,2.043 -25.198,9.721 -7.111,63.401 -19.65,83.984 -6.09,9.998 -9.793,13.705 -20.281,17.159 -9.296,2.445 -18.783,1.845 -28.309,1.489 -0.205,-7.023 -0.143,-13.527 -0.015,-20.558 9.24,-0.054 14.197,0.619 22.244,-4.08 15.842,-25.299 -10.769,-65.714 26.254,-90.218 -5.666,-3.516 -10.668,-7.68 -14.136,-13.459 -12.112,-20.179 -1.205,-65.212 -11.78,-76.785 -5.15,-5.636 -15.467,-4.971 -22.402,-5.351 -0.205,-4.606 -1.269,-17.181 1.101,-20.36 z"
         id="path55"
         style="filter:url(#filter56)" />
      <path
         fill="#b1f750"
         d="m 681.96246,301.7942 c 13.55558,-1.55538 39.77344,-1.21514 51.97589,2.15689 85.9155,23.72771 36.9497,134.47796 64.61792,192.71373 6.91148,14.54528 24.8546,16.58064 39.60734,20.07216 0.44564,13.49822 0.59959,27.00657 0.46387,40.5129 -3.45169,0.54884 -18.03225,2.99128 -20.99981,4.13756 -51.04208,19.68736 -14.40433,128.40224 -39.80383,170.08776 -12.33615,20.24835 -19.83709,27.75591 -41.082,34.75109 -18.83035,4.95171 -38.0476,3.73657 -57.34385,3.01558 -0.41525,-14.22326 -0.28966,-27.39542 -0.0304,-41.63488 18.71691,-0.10936 28.75801,1.25362 45.05834,-8.26298 32.09019,-51.23655 -21.81412,-133.08662 53.18115,-182.7131 -11.47728,-7.12075 -21.60953,-15.55384 -28.63445,-27.25771 -24.53455,-40.86731 -2.44089,-132.06995 -23.86204,-155.50805 -10.43204,-11.41425 -31.33057,-10.06747 -45.37838,-10.83706 -0.41526,-9.32825 -2.57054,-34.79565 2.23023,-41.23389 z"
         id="path53"
         style="stroke-width:2.02544" />
    </g>
    <path
       fill="#b1f750"
       d="m 314.2356,301.79421 c -13.5555,-1.55539 -39.7734,-1.21514 -51.9759,2.15688 -85.9154,23.72771 -36.9497,134.47796 -64.6179,192.71374 -6.9115,14.54527 -24.8546,16.58064 -39.6073,20.07215 -0.4456,13.49823 -0.5996,27.00658 -0.4639,40.5129 3.4517,0.54884 18.0323,2.99128 20.9998,4.13757 51.0421,19.68736 14.4044,128.40224 39.8039,170.0878 12.3361,20.2483 19.837,27.7559 41.082,34.751 18.8303,4.9518 38.0476,3.7366 57.3438,3.0156 0.4153,-14.2232 0.2897,-27.3954 0.03,-41.6349 -18.7169,-0.1093 -28.758,1.2537 -45.0583,-8.2629 -32.0902,-51.23658 21.8141,-133.08666 -53.1812,-182.71314 11.4773,-7.12074 21.6095,-15.55384 28.6344,-27.2577 24.5346,-40.86732 2.4409,-132.06995 23.8621,-155.50806 10.432,-11.41425 31.3306,-10.06746 45.3784,-10.83705 0.4152,-9.32826 2.5705,-34.79565 -2.2303,-41.23389 z"
       id="path58"
       style="stroke-width:2.02544" />
    <path
       fill="#b1f750"
       d="m 314.2356,301.79421 c -13.5555,-1.55539 -39.7734,-1.21514 -51.9759,2.15688 -85.9154,23.72771 -36.9497,134.47796 -64.6179,192.71374 -6.9115,14.54527 -24.8546,16.58064 -39.6073,20.07215 -0.4456,13.49823 -0.5996,27.00658 -0.4639,40.5129 3.4517,0.54884 18.0323,2.99128 20.9998,4.13757 51.0421,19.68736 14.4044,128.40224 39.8039,170.0878 12.3361,20.2483 19.837,27.7559 41.082,34.751 18.8303,4.9518 38.0476,3.7366 57.3438,3.0156 0.4153,-14.2232 0.2897,-27.3954 0.03,-41.6349 -18.7169,-0.1093 -28.758,1.2537 -45.0583,-8.2629 -32.0902,-51.23658 21.8141,-133.08666 -53.1812,-182.71314 11.4773,-7.12074 21.6095,-15.55384 28.6344,-27.2577 24.5346,-40.86732 2.4409,-132.06995 23.8621,-155.50806 10.432,-11.41425 31.3306,-10.06746 45.3784,-10.83705 0.4152,-9.32826 2.5705,-34.79565 -2.2303,-41.23389 z"
       id="path59"
       style="stroke-width:2.02544;filter:url(#filter59)" />
  </g>
  <path
     style="fill:url(#linearGradient9);stroke:none;stroke-width:7.55906"
     d="M 530.05043,982.0891 758.20328,754.43626 H 578.63369 c -31.82184,-0.13809 -50.87271,12.98596 -48.08326,48.79036 z"
     id="path5"
     sodipodi:nodetypes="ccccc" />
</svg>
