<?xml version="1.0" encoding="UTF-8" standalone="no"?>
<svg
   width="921.55829"
   height="1118.3612"
   viewBox="0 0 921.55829 1118.3612"
   version="1.1"
   id="svg78"
   sodipodi:docname="new_logo_quickbib_coming_soon.svg"
   inkscape:version="1.4.3 (0d15f75042, 2025-12-25)"
   xmlns:inkscape="http://www.inkscape.org/namespaces/inkscape"
   xmlns:sodipodi="http://sodipodi.sourceforge.net/DTD/sodipodi-0.dtd"
   xmlns:xlink="http://www.w3.org/1999/xlink"
   xmlns="http://www.w3.org/2000/svg"
   xmlns:svg="http://www.w3.org/2000/svg">
  <sodipodi:namedview
     id="namedview78"
     pagecolor="#ffffff"
     bordercolor="#000000"
     borderopacity="0.25"
     inkscape:showpageshadow="2"
     inkscape:pageopacity="0.0"
     inkscape:pagecheckerboard="0"
     inkscape:deskcolor="#d1d1d1"
     inkscape:zoom="0.70710678"
     inkscape:cx="552.25039"
     inkscape:cy="309.00566"
     inkscape:window-width="1920"
     inkscape:window-height="1012"
     inkscape:window-x="0"
     inkscape:window-y="40"
     inkscape:window-maximized="1"
     inkscape:current-layer="svg78"
     showguides="false" />
  <path
     fill="#eff6eb"
     d="M 81.291323,46.796236 C 80.845683,41.76959 87.544474,30.873799 90.803729,27.202039 105.56862,10.568743 120.135,1.7569237 142.51022,0.96708011 c 38.3798,-1.35286032 78.00334,-0.74731356 116.34465,-0.7392126 l 226.65697,0.0607572 136.37824,-0.0951863 c 13.81486,-0.0101262 55.53697,-0.87490368 66.41668,1.13615969 24.73712,21.8989199 231.94996,224.6841719 232.37332,234.8954319 1.79877,43.41305 0.27751,87.50252 0.27548,130.97228 l -0.081,245.50364 0.079,105.40361 c 0.002,6.82304 0.41931,40.02685 -0.41323,44.67477 1.27008,25.60916 1.05131,63.71203 -3.05467,89.05183 -2.4652,15.2136 -17.71017,42.33157 -22.52309,56.41509 -4.10597,12.00967 -8.51781,53.39747 -8.15928,65.98839 0.44565,24.4568 3.51044,69.61556 -13.44417,90.85836 -0.19243,0.239 -1.23361,0.8121 -1.56177,1.0045 -24.61152,46.858 -73.96624,41.6997 -120.17717,44.1988 -61.42753,3.3214 -129.52144,9.4802 -190.85175,7.7709 -123.00496,-3.4267 -247.46231,-4.0748 -369.67322,-17.5123 -11.99381,-1.3184 -31.9018,-19.3147 -41.87605,-25.5949 -53.549824,-29.4754 -75.32748,-87.60383 -73.765711,-146.28921 0,-201.40509 4.683016,-873.076952 5.837894,-881.874554 z"
     id="path2"
     sodipodi:nodetypes="ccccccccccccsccccccsccc"
     style="stroke-width:2.02544" />
  <path
     fill="#d5dce2"
     d="m 919.22364,827.2326 c -0.0304,-13.7048 -0.65023,-52.78788 1.31667,-64.45327 1.27008,25.60916 1.05131,63.71203 -3.05467,89.05183 -2.4652,15.2136 -17.71017,42.33157 -22.52309,56.41509 -4.10597,12.00967 -8.51781,53.39747 -8.15928,65.98839 0.44565,24.4568 3.51044,69.61556 -13.44417,90.85836 -0.19243,0.239 -1.23361,0.8121 -1.56177,1.0045 -19.05924,18.8023 -28.95044,26.2086 -56.45053,26.5124 -39.28729,0.4334 -78.54622,0.1053 -117.83351,0.051 l -213.53284,0.03 -175.97342,0.1499 c -32.04563,0.049 -64.28976,0.3726 -96.32323,-0.2592 -7.53538,-0.8871 -17.50761,-0.4213 -24.62976,-2.9204 -21.06463,-7.3942 -28.77422,-13.0365 -36.25288,-32.9244 l 3.91961,-1.4399 c -8.67176,-2.9082 -33.17795,-12.9858 -35.59657,-22.069 7.33484,3.3072 22.31243,18.2251 35.6776,19.9526 27.38057,3.5361 59.75638,2.0475 87.24229,1.9969 l 210.86507,-1.2901 c 15.84658,-0.032 30.11317,1.7417 48.03198,1.6182 59.62268,-0.4111 134.39108,1.6971 192.74572,-1.4724 2.10464,-0.1154 54.45731,-55.60899 61.67061,-62.88163 L 864.0209,882.9915 c 8.82977,-8.83207 25.57371,-29.23839 35.25829,-34.44528 6.49218,-5.65852 15.42728,-14.05921 19.94445,-21.31362 z"
     id="path3"
     style="stroke-width:2.02544" />
  <defs
     id="defs4">
    <linearGradient
       id="linearGradient72"
       inkscape:collect="always">
      <stop
         style="stop-color:#697ada;stop-opacity:1;"
         offset="0"
         id="stop72" />
      <stop
         style="stop-color:#6d4fd1;stop-opacity:1;"
         offset="1"
         id="stop73" />
    </linearGradient>
    <linearGradient
       id="linearGradient69"
       inkscape:collect="always">
      <stop
         style="stop-color:#697ada;stop-opacity:1;"
         offset="0"
         id="stop69" />
      <stop
         style="stop-color:#8368b6;stop-opacity:1;"
         offset="1"
         id="stop70" />
    </linearGradient>
    <linearGradient
       id="gradient_0"
       gradientUnits="userSpaceOnUse"
       x1="853.3233"
       y1="579.71228"
       x2="866.89374"
       y2="584.49927"
       gradientTransform="matrix(2.02564,0,0,2.02524,-848.522,-289.82295)">
      <stop
         offset="0"
         stop-color="#9BBBC1"
         id="stop3" />
      <stop
         offset="1"
         stop-color="#C2E2E3"
         id="stop4" />
    </linearGradient>
    <filter
       style="color-interpolation-filters:sRGB"
       inkscape:label="Blur"
       id="filter79"
       x="-0.15228334"
       y="-0.050959725"
       width="1.3045667"
       height="1.1019194">
      <feGaussianBlur
         stdDeviation="5 5"
         result="blur"
         id="feGaussianBlur79" />
    </filter>
    <filter
       style="color-interpolation-filters:sRGB"
       inkscape:label="Blur"
       id="filter54"
       x="-0.067016222"
       y="-0.066529647"
       width="1.1340324"
       height="1.1330593">
      <feGaussianBlur
         stdDeviation="5 5"
         result="blur"
         id="feGaussianBlur54" />
    </filter>
    <filter
       style="color-interpolation-filters:sRGB"
       inkscape:label="Blur"
       id="filter55"
       x="-0.15212846"
       y="-0.051816847"
       width="1.3042569"
       height="1.1036336">
      <feGaussianBlur
         stdDeviation="5 5"
         result="blur"
         id="feGaussianBlur55" />
    </filter>
    <filter
       style="color-interpolation-filters:sRGB"
       inkscape:label="Blur"
       id="filter56"
       x="-0.30425691"
       y="-0.1036337"
       width="1.6085138"
       height="1.2072674">
      <feGaussianBlur
         stdDeviation="10 10"
         result="blur"
         id="feGaussianBlur56" />
    </filter>
    <filter
       style="color-interpolation-filters:sRGB"
       inkscape:label="Blur"
       id="filter57"
       x="-0.30456668"
       y="-0.10346953"
       width="1.6091332"
       height="1.2069391">
      <feGaussianBlur
         stdDeviation="10 10"
         result="blur"
         id="feGaussianBlur57" />
    </filter>
    <filter
       style="color-interpolation-filters:sRGB"
       inkscape:label="Blur"
       id="filter58"
       x="-0.13403244"
       y="-0.1330593"
       width="1.2680649"
       height="1.2661186">
      <feGaussianBlur
         stdDeviation="10 10"
         result="blur"
         id="feGaussianBlur58" />
    </filter>
    <filter
       style="color-interpolation-filters:sRGB"
       inkscape:label="Blur"
       id="filter59"
       x="-0.15020324"
       y="-0.05117107"
       width="1.3004065"
       height="1.1023421">
      <feGaussianBlur
         stdDeviation="10 10"
         result="blur"
         id="feGaussianBlur59" />
    </filter>
    <linearGradient
       inkscape:collect="always"
       xlink:href="#linearGradient69"
       id="linearGradient70"
       x1="533.1037"
       y1="270.0239"
       x2="526.47552"
       y2="307.61404"
       gradientUnits="userSpaceOnUse" />
    <linearGradient
       inkscape:collect="always"
       xlink:href="#linearGradient72"
       id="linearGradient73"
       x1="473.70251"
       y1="283.03226"
       x2="473.70251"
       y2="332.63455"
       gradientUnits="userSpaceOnUse" />
  </defs>
  <path
     fill="url(#gradient_0)"
     d="m 919.22364,827.2326 c -0.0304,-13.7048 -0.65023,-52.78788 1.31667,-64.45327 1.27008,25.60916 1.05131,63.71203 -3.05467,89.05183 -2.4652,15.2136 -17.71017,42.33157 -22.52309,56.41509 -4.10597,12.00967 -8.51781,53.39747 -8.15928,65.98839 -2.77512,-4.27731 -1.26399,-97.64897 -1.57594,-110.87986 4.80684,-4.81805 9.49215,-9.75558 14.05186,-14.80856 6.49218,-5.65852 15.42728,-14.05921 19.94445,-21.31362 z"
     id="path4"
     style="fill:url(#gradient_0);stroke-width:2.02544" />
  <defs
     id="defs8">
    <linearGradient
       id="gradient_1"
       gradientUnits="userSpaceOnUse"
       x1="493.11652"
       y1="299.06982"
       x2="448.64551"
       y2="242.48683">
      <stop
         offset="0"
         stop-color="#7F5BD8"
         id="stop7" />
      <stop
         offset="1"
         stop-color="#4699DC"
         id="stop8" />
    </linearGradient>
  </defs>
  <path
     fill="#aed3d8"
     d="m 77.432479,758.95568 0.717077,0.33214 -0.19041,139.83472 c -0.02431,14.91387 -1.014846,59.60889 1.831178,72.39018 3.261281,14.02681 10.478636,26.8243 20.795216,36.87148 8.00331,7.9025 17.61092,14.1099 28.75599,15.6936 26.54804,3.773 58.48428,2.3594 85.54278,2.3574 l 177.06929,0.01 c 18.96404,0.01 68.7644,-1.28 85.89929,0.4779 -18.02617,1.7195 -53.46069,1.6405 -71.74006,1.6567 l -103.74113,-0.022 -99.05987,0.067 c -24.2692,0.01 -48.64777,-0.1741 -72.86025,-1.9523 -2.47331,-0.1823 -14.25038,-5.3345 -17.38404,-6.5435 -0.33828,4.4028 3.83656,7.9348 6.05666,13.1033 2.41862,9.0832 26.92481,19.1608 35.59657,22.069 l -3.91961,1.4399 c 7.47866,19.8879 15.18825,25.5302 36.25288,32.9244 7.12215,2.4991 17.09438,2.0333 24.62976,2.9204 32.03347,0.6318 64.2776,0.3078 96.32323,0.2592 l 175.97342,-0.1499 213.53284,-0.03 c 39.28729,0.055 78.54622,0.3827 117.83351,-0.051 27.50009,-0.3038 37.39129,-7.7101 56.45053,-26.5124 -24.61152,46.858 -73.96624,41.6997 -120.17717,44.1988 -61.42753,3.3214 -129.52144,9.4802 -190.85175,7.7709 -123.00496,-3.4267 -247.46231,-4.0748 -369.67322,-17.5123 -11.99381,-1.3184 -31.9018,-19.3147 -41.87605,-25.5949 -53.549824,-29.4754 -75.32748,-87.60383 -73.765711,-146.28921 -0.632,-55.67385 1.679255,-113.08535 1.97905,-169.71511 z"
     id="path38"
     style="stroke-width:2.02544" />
  <defs
     id="defs45">
    <linearGradient
       id="gradient_2"
       gradientUnits="userSpaceOnUse"
       x1="529.26324"
       y1="304.47202"
       x2="524.7594"
       y2="300.47388">
      <stop
         offset="0"
         stop-color="#8F7CA6"
         id="stop44" />
      <stop
         offset="1"
         stop-color="#8368B6"
         id="stop45" />
    </linearGradient>
  </defs>
  <defs
     id="defs48">
    <linearGradient
       id="gradient_3"
       gradientUnits="userSpaceOnUse"
       x1="487.36298"
       y1="300.91245"
       x2="459.03815"
       y2="328.13477">
      <stop
         offset="0"
         stop-color="#6D4FD1"
         id="stop47" />
      <stop
         offset="1"
         stop-color="#8C68DA"
         id="stop48" />
    </linearGradient>
  </defs>
  <g
     id="g67"
     transform="translate(-848.522,-289.82295)">
    <g
       id="g68"
       transform="translate(-476.5,69.5)">
      <g
         id="g73"
         transform="translate(483.20047,-68.400378)">
        <path
           style="fill:url(#gradient_1)"
           d="m 421.187,178.384 c 5.371,-4.977 17.409,-3.775 24.957,-3.551 1.876,1.245 2.026,1.624 3.133,3.61 2.413,2.483 3.745,4.04 5.865,6.786 4.28,5.782 11.749,14.618 15.175,20.125 1.807,1.424 3.128,3.349 4.558,5.181 7.657,4.4 5.91,2.077 12.592,0.788 -0.83,2.138 -1.145,1.816 -3.351,3.239 1.976,1.191 14.074,-2.974 20.059,1.974 7.395,2.871 13.371,6.977 17.857,13.656 -1.47,2.016 -2.882,4.052 -4.531,5.92 -2.389,2.679 -6.842,8.512 -10.187,8.904 -4.552,-2.2 -4.733,-13.041 -16.348,-9.025 -2.029,0.701 -5.222,2.641 -6.641,4.051 -4.361,4.333 -24.296,25.524 -26.515,29.455 l 0.166,1.662 c -0.622,5.223 -1.131,32.192 0.432,36.089 3.673,-2.871 10.293,-10.701 13.665,-14.537 1.642,1.224 3.069,2.192 4.492,3.677 -5.974,7.767 -10.915,14.189 -19.91,18.676 0.345,2.594 0.683,5.869 1.134,8.386 -1.999,0.068 -7.212,0.137 -8.888,0.511 3.038,0.915 6.131,-0.229 8.365,0.974 0.625,1.7 0.453,2.849 -0.272,4.723 -13.388,0.826 -18.529,-0.167 -29.043,-8.222 l -0.064,0.624 -0.469,0.306 -2.664,-2.046 c -10.933,-17.655 -11.588,-20.916 -4.627,-41.258 0.031,-1.144 0.405,-2.875 0.495,-4.324 -1.052,0.659 -0.627,0.446 -1.942,0.618 l -0.466,-0.734 c -0.141,-5.988 6.542,-10.435 11.227,-12.532 2.381,-1.066 3.247,-2.483 6.074,-2.996 1.723,-2.907 0.46,-5.505 0.801,-6.091 3.101,-5.059 6.385,-9.198 8.751,-14.68 5.297,-12.274 -6.34,-16.321 -9.717,-25.316 l -2.608,-4.351 c -3.216,-4.685 -13.688,-20.115 -12.454,-25.075 -1.389,-2.81 -0.902,-2.907 0.899,-5.197 z"
           transform="scale(2.02564,2.02524)"
           id="path8" />
        <path
           fill="#2db5d6"
           d="m 421.187,178.384 c 5.371,-4.977 17.409,-3.775 24.957,-3.551 1.876,1.245 2.026,1.624 3.133,3.61 2.413,2.483 3.745,4.04 5.865,6.786 4.28,5.782 11.749,14.618 15.175,20.125 1.807,1.424 3.128,3.349 4.558,5.181 1.572,5.359 -2.25,6.195 -6.668,8.851 -1.966,2.06 -9.65,11.125 -11.98,10.705 -2.163,-3.754 -7.029,-9.368 -9.686,-12.957 -8.203,-11.079 -18.524,-22.348 -26.253,-33.553 -1.389,-2.81 -0.902,-2.907 0.899,-5.197 z"
           id="path9"
           transform="scale(2.02564,2.02524)" />
        <path
           fill="#AED3D8"
           d="m 429.169,184.763 c 5.956,-0.099 11.913,-0.113 17.869,-0.041 3.881,4.781 7.66,9.904 11.387,14.828 -0.678,2.363 -0.703,2.771 -0.681,5.235 l -0.094,4.392 c -0.108,4.091 -0.394,8.521 0.238,12.533 -1.666,-2.021 -2.911,-3.513 -4.76,-5.386 -3.714,-7.137 -18.148,-22.805 -23.959,-31.561 z"
           id="path10"
           style="fill:#f9f9f9"
           transform="scale(2.02564,2.02524)" />
        <path
           fill="#B6E7F8"
           d="m 457.744,204.785 c 3.051,1.346 4.877,2.874 7.934,3.909 1.813,2.025 1.876,1.434 2.007,3.571 -1.252,1.574 -1.512,1.735 -3.139,2.966 -1.753,1.783 -4.812,5.07 -6.658,6.479 -0.632,-4.012 -0.346,-8.442 -0.238,-12.533 z"
           id="path11"
           style="fill:#f9f9f9"
           transform="scale(2.02564,2.02524)" />
        <path
           fill="#4b9ddc"
           d="m 470.317,205.354 c 1.807,1.424 3.128,3.349 4.558,5.181 1.572,5.359 -2.25,6.195 -6.668,8.851 1.061,-1.261 1.217,-1.444 1.948,-2.907 -0.724,-1.844 -0.243,-1.413 -1.693,-2.229 -3.199,0.993 -5.851,6.301 -9.237,7.537 -3.128,1.142 -5.769,-2.874 -6.097,-5.463 1.849,1.873 3.094,3.365 4.76,5.386 1.846,-1.409 4.905,-4.696 6.658,-6.479 1.627,-1.231 1.887,-1.392 3.139,-2.966 -0.131,-2.137 -0.194,-1.546 -2.007,-3.571 l -0.848,-2.215 c 1.934,0.829 3.143,2.972 4.305,4.693 2.296,0.389 1.525,0.304 3.964,-0.6 -1.485,-2.853 -2.788,-2.478 -2.782,-5.218 z"
           id="path12"
           transform="scale(2.02564,2.02524)" />
        <path
           fill="#B6E7F8"
           d="m 421.187,178.384 c 5.371,-4.977 17.409,-3.775 24.957,-3.551 1.876,1.245 2.026,1.624 3.133,3.61 -8.554,-0.569 -19.561,-0.411 -28.09,-0.059 z"
           id="path13"
           style="fill:#f9f9f9"
           transform="scale(2.02564,2.02524)" />
        <path
           fill="#96D3F6"
           d="m 458.425,199.55 c 1.692,2.031 4.373,5.55 6.405,6.929 l 0.848,2.215 c -3.057,-1.035 -4.883,-2.563 -7.934,-3.909 -0.022,-2.464 0.003,-2.872 0.681,-5.235 z"
           id="path14"
           style="fill:#f9f9f9"
           transform="scale(2.02564,2.02524)" />
        <path
           fill="#697ada"
           transform="scale(2.02564,2.02524)"
           d="m 446.169,272.898 c 7.687,-3.076 14.216,-19.753 21.827,-17.529 -0.539,3.223 -16.953,16.779 -16.43,20.245 0.642,-0.441 5.381,-5.258 6.244,-6.117 l 0.166,1.662 c -0.622,5.223 -1.131,32.192 0.432,36.089 3.673,-2.871 10.293,-10.701 13.665,-14.537 1.642,1.224 3.069,2.192 4.492,3.677 -5.974,7.767 -10.915,14.189 -19.91,18.676 -13.516,2.712 -24.112,-4.986 -24.023,-19.133 0.062,-9.947 6.939,-16.561 13.537,-23.033 z"
           id="path15" />
        <path
           fill="#B8BCEF"
           d="m 451.566,275.614 c 0.642,-0.441 5.381,-5.258 6.244,-6.117 l 0.166,1.662 c -0.622,5.223 -1.131,32.192 0.432,36.089 -1.065,1.317 -5.134,2.747 -6.759,2.849 -7.345,0.535 -13.204,-6.557 -13.51,-13.486 -0.338,-7.664 8.439,-15.462 13.427,-20.997 z"
           id="path16"
           transform="scale(2.02564,2.02524)"
           style="fill:#f9f9f9" />
        <path
           fill="#B5CCF8"
           d="m 450.748,254.92 c 3.385,2.399 3.623,3.833 4.592,7.745 -2.816,3.125 -6.56,7.055 -9.171,10.233 -6.598,6.472 -13.475,13.086 -13.537,23.033 -0.089,14.147 10.507,21.845 24.023,19.133 0.345,2.594 0.683,5.869 1.134,8.386 -1.999,0.068 -7.212,0.137 -8.888,0.511 -22.753,-3.084 -32.813,-25.375 -19.656,-44.425 5.811,-8.414 14.533,-16.988 21.503,-24.616 z"
           id="path17"
           style="fill:#f9f9f9"
           transform="scale(2.02564,2.02524)" />
        <path
           fill="#AAD5F9"
           d="m 420.288,183.581 c 7.729,11.205 18.05,22.474 26.253,33.553 2.657,3.589 7.523,9.203 9.686,12.957 0.028,2.077 -0.064,3.738 0.443,5.759 l -0.089,-1.203 c 0.545,0.813 1.537,2.202 1.928,3.018 -1.303,1.328 -8.676,9.349 -9.559,9.854 -8.941,10.676 -20.883,22.32 -27.999,33.615 l -0.824,-2.072 c 0.031,-1.144 0.405,-2.875 0.495,-4.324 -1.052,0.659 -0.627,0.446 -1.942,0.618 l -0.466,-0.734 c -0.141,-5.988 6.542,-10.435 11.227,-12.532 2.381,-1.066 3.247,-2.483 6.074,-2.996 1.723,-2.907 0.46,-5.505 0.801,-6.091 3.101,-5.059 6.385,-9.198 8.751,-14.68 5.297,-12.274 -6.34,-16.321 -9.717,-25.316 l -2.608,-4.351 c -3.216,-4.685 -13.688,-20.115 -12.454,-25.075 z"
           id="path18"
           style="fill:#f9f9f9"
           transform="scale(2.02564,2.02524)" />
        <path
           fill="#96D3F6"
           transform="scale(2.02564,2.02524)"
           d="m 474.875,210.535 c 7.657,4.4 5.91,2.077 12.592,0.788 -0.83,2.138 -1.145,1.816 -3.351,3.239 1.976,1.191 14.074,-2.974 20.059,1.974 -11.053,-1.887 -18.087,-2.643 -28.068,3.737 -5.797,3.705 -10.431,10.433 -14.153,13.335 l -3.445,4.057 c -0.391,-0.816 -1.383,-2.205 -1.928,-3.018 l 0.089,1.203 c -0.507,-2.021 -0.415,-3.682 -0.443,-5.759 2.33,0.42 10.014,-8.645 11.98,-10.705 4.418,-2.656 8.24,-3.492 6.668,-8.851 z"
           id="path22"
           style="fill:#f9f9f9" />
        <path
           fill="#AAD5F9"
           d="m 457.967,246.873 c 9.893,-11.111 20.026,-25.283 35.745,-25.747 7.359,-0.218 13.067,1.755 18.511,6.722 0.84,0.773 1.658,1.568 2.454,2.386 l -6.007,6.439 c -19.444,-21.538 -36.521,8.11 -49.624,21.607 l -0.663,-0.429 c -1.231,-2.23 -0.565,-8.26 -0.416,-10.978 z"
           id="path21"
           transform="scale(2.02564,2.02524)"
           style="fill:#f9f9f9" />
        <path
           fill="#AAD5F9"
           transform="scale(2.02564,2.02524)"
           d="m 456.581,234.647 c 0.95,-2.549 0.331,-2.115 2.184,-2.978 1.761,0.552 1.809,0.65 3.189,1.939 l -3.445,4.057 c -0.391,-0.816 -1.383,-2.205 -1.928,-3.018 z"
           id="path23"
           style="fill:#f9f9f9" />
        <path
           fill="#B5CCF8"
           transform="scale(2.02564,2.02524)"
           d="m 424.754,320.32 c -10.933,-17.655 -11.588,-20.916 -4.627,-41.258 l 0.824,2.072 c -6.258,15.786 -4.471,27.494 7,40.302 l -0.064,0.624 -0.469,0.306 z"
           id="path24"
           style="fill:#f9f9f9" />
        <path
           fill="#96D3F6"
           transform="scale(2.02564,2.02524)"
           d="m 457.967,246.873 c -0.149,2.718 -0.815,8.748 0.416,10.978 l 0.663,0.429 -3.706,4.385 c -0.969,-3.912 -1.207,-5.346 -4.592,-7.745 z"
           id="path25"
           style="fill:#f9f9f9" />
        <path
           fill="#697ada"
           d="m 499.558,210.463 c -3.241,-0.306 -10.37,1.209 -11.651,-2.423 3.289,-8.801 20.619,-24.767 27.797,-31.707 10.754,-10.399 34.547,-10.471 44.329,1.903 3.495,3.446 4.246,5.032 6.941,9.087 3.558,9.322 4.751,18.473 0.639,27.958 -4.452,10.272 -41.333,50.651 -51.096,59.221 -3.253,2.855 -6.626,5.515 -10.705,7.06 -8.302,3.145 -18.593,2.772 -26.659,-0.946 -2.52,-1.161 -5.834,-3.034 -7.656,-5.164 -1.312,-1.062 -3.317,-3.219 -4.57,-4.485 -2.059,-1.184 -7.251,-1.43 -8.951,0.192 l -0.166,-1.662 c 2.219,-3.931 22.154,-25.122 26.515,-29.455 1.419,-1.41 4.612,-3.35 6.641,-4.051 11.615,-4.016 11.796,6.825 16.348,9.025 3.345,-0.392 7.798,-6.225 10.187,-8.904 1.649,-1.868 3.061,-3.904 4.531,-5.92 -4.486,-6.679 -10.462,-10.785 -17.857,-13.656 -5.985,-4.948 -18.083,-0.783 -20.059,-1.974 2.206,-1.423 2.521,-1.101 3.351,-3.239 2.122,-0.598 7.583,-0.606 9.565,0.121 z"
           id="path26"
           transform="scale(2.02564,2.02524)" />
        <path
           fill="#697ada"
           transform="scale(2.02564,2.02524)"
           d="m 556.457,182.297 0.235,-0.919 c -3.083,-4 -12.544,-7.447 -17.537,-7.852 -7.751,-0.584 -15.399,2.057 -21.137,7.301 -3.032,2.744 -5.472,6.935 -9.321,5.942 l -0.309,-1.146 c 0.87,-1.827 1.953,-2.905 3.364,-4.313 11.595,-11.566 25.919,-15.31 40.875,-7.31 2.844,1.522 4.977,4.213 7.406,4.236 3.495,3.446 4.246,5.032 6.941,9.087 3.558,9.322 4.751,18.473 0.639,27.958 -4.452,10.272 -41.333,50.651 -51.096,59.221 -3.253,2.855 -6.626,5.515 -10.705,7.06 -8.302,3.145 -18.593,2.772 -26.659,-0.946 -2.52,-1.161 -5.834,-3.034 -7.656,-5.164 -0.877,-1.748 -1.08,-1.896 -0.743,-3.712 l 0.927,-0.537 c 3.173,0.587 3.052,2.069 5.516,2.033 6.259,3.294 11.753,5.06 18.937,4.314 5.229,-0.571 10.209,-2.531 14.425,-5.678 6.242,-4.567 13.557,-14.18 19.038,-20.243 8.386,-9.277 17.937,-18.928 25.691,-28.666 11.945,-11.677 11.692,-28.133 1.169,-40.666 z"
           id="path27" />
        <path
           fill="#C5CEF7"
           d="m 539.558,188.578 c 4.576,2.044 7.362,3.481 9.457,8.455 1.634,9.225 -0.748,12.99 -6.952,19.8 -4.769,5.234 -9.786,10.349 -14.367,15.748 -2.772,0.454 -3.59,-0.826 -5.664,-2.389 -4.486,-6.679 -10.462,-10.785 -17.857,-13.656 -5.985,-4.948 -18.083,-0.783 -20.059,-1.974 2.206,-1.423 2.521,-1.101 3.351,-3.239 2.122,-0.598 7.583,-0.606 9.565,0.121 l 2.526,-0.981 c 3.155,0.424 7.044,1.392 10.214,2.089 7.413,-6.807 12.413,-15.271 20.229,-21.378 3.097,-2.419 5.785,-2.422 9.557,-2.596 z"
           id="path28"
           style="fill:#f9f9f9"
           transform="scale(2.02564,2.02524)" />
        <path
           fill="#4b9ddc"
           transform="scale(2.02564,2.02524)"
           d="m 499.558,210.463 c -3.241,-0.306 -10.37,1.209 -11.651,-2.423 3.289,-8.801 20.619,-24.767 27.797,-31.707 10.754,-10.399 34.547,-10.471 44.329,1.903 -2.429,-0.023 -4.562,-2.714 -7.406,-4.236 -14.956,-8 -29.28,-4.256 -40.875,7.31 -1.411,1.408 -2.494,2.486 -3.364,4.313 l 0.309,1.146 c 3.849,0.993 6.289,-3.198 9.321,-5.942 5.738,-5.244 13.386,-7.885 21.137,-7.301 4.993,0.405 14.454,3.852 17.537,7.852 l -0.235,0.919 c -7.859,-6.017 -17.011,-9.811 -26.823,-6.307 -0.994,0.706 -2.056,1.322 -2.803,2.23 1.381,1.466 2.073,3.022 2.966,4.796 1.503,-0.654 2.538,-0.921 4.167,-0.485 l 4.342,0.417 c -3.908,1.87 -7.638,1.622 -11.337,3.852 -3.571,2.154 -4.34,5.024 -6.694,8.1 -2.995,3.153 -8.475,6.691 -10.408,10.955 l 0.285,1.121 c 1.712,0.617 1.612,0.623 3.364,0.162 5.221,-4.586 17.104,-25.181 26.042,-18.56 -3.772,0.174 -6.46,0.177 -9.557,2.596 -7.816,6.107 -12.816,14.571 -20.229,21.378 -3.17,-0.697 -7.059,-1.665 -10.214,-2.089 z"
           id="path30" />
        <path
           fill="#96D3F6"
           d="m 512.618,187.579 c 2.078,4.246 3.812,1.686 7.159,4.827 l -2.199,2.526 c -3.309,3.771 -6.648,7.365 -9.403,11.562 -4.384,-1.113 -6.534,-1.432 -11.011,-1.921 4.812,-4.946 9.456,-10.054 13.924,-15.313 z"
           id="path31"
           style="fill:#f9f9f9;stroke:none"
           transform="scale(2.02564,2.02524)" />
        <path
           fill="#B6E7F8"
           transform="scale(2.02564,2.02524)"
           d="m 512.618,187.579 c 6.038,-6.181 8.584,-9.172 17.016,-11.589 -0.994,0.706 -2.056,1.322 -2.803,2.23 1.381,1.466 2.073,3.022 2.966,4.796 1.503,-0.654 2.538,-0.921 4.167,-0.485 -7.211,2.634 -9.07,4.293 -14.187,9.875 -3.347,-3.141 -5.081,-0.581 -7.159,-4.827 z"
           id="path33"
           style="fill:#f9f9f9" />
        <path
           fill="#B5CCF8"
           d="m 457.81,269.497 c 2.219,-3.931 22.154,-25.122 26.515,-29.455 1.419,-1.41 4.612,-3.35 6.641,-4.051 11.615,-4.016 11.796,6.825 16.348,9.025 3.345,-0.392 7.798,-6.225 10.187,-8.904 l 1.856,0.061 c 0.471,1.25 0.383,1.332 1.206,2.383 -3.539,4.055 -11.418,14.728 -15.897,15.341 -3.722,2.802 -1.365,4.097 -5.697,8.7 -6.108,2.319 -10.974,0.7 -15.636,-3.415 -2.39231,-2.09272 -3.00604,-3.37814 -4.94604,-4.79014 -2.434,-0.037 -12.35396,11.43214 -12.75596,13.72514 l 1.296,2.85 c -2.059,-1.184 -7.251,-1.43 -8.951,0.192 z"
           id="path34"
           style="fill:#f9f9f9"
           sodipodi:nodetypes="ccccccccccccccc"
           transform="scale(2.02564,2.02524)" />
        <path
           fill="#C5CEF7"
           transform="scale(2.02564,2.02524)"
           d="m 480.27,264.214 c 2.297,2.648 7.734,5.097 11.159,5.437 9.12,0.832 14.128,-4.411 20.043,-9.945 10.895,-10.195 23.325,-29.525 34.638,-37.896 -0.362,2.669 -3.832,5.566 -5.831,7.439 l 3.928,3.929 c 3.435,-2.884 8.73,-10.35 11.081,-10.215 -7.754,9.738 -17.305,19.389 -25.691,28.666 -5.481,6.063 -12.796,15.676 -19.038,20.243 -4.216,3.147 -9.196,5.107 -14.425,5.678 -10.41173,0.94194 -16.18573,-2.18231 -23.428,-8.556 1.664,-2.368 3.284,-5.475 5.854,-6.283 z"
           id="path35"
           style="fill:#f9f9f9"
           sodipodi:nodetypes="ccccccccccccc" />
        <path
           fill="#B5CCF8"
           transform="scale(2.02564,2.02524)"
           d="m 529.634,175.99 c 9.812,-3.504 18.964,0.29 26.823,6.307 10.523,12.533 10.776,28.989 -1.169,40.666 -2.351,-0.135 -7.646,7.331 -11.081,10.215 l -3.928,-3.929 c 1.999,-1.873 5.469,-4.77 5.831,-7.439 4.734,-5.915 9.164,-10.426 9.607,-18.259 0.323,-5.565 -1.606,-11.025 -5.351,-15.153 -3.158,-3.447 -7.422,-5.253 -12.06,-5.45 l -4.342,-0.417 c -1.629,-0.436 -2.664,-0.169 -4.167,0.485 -0.893,-1.774 -1.585,-3.33 -2.966,-4.796 0.747,-0.908 1.809,-1.524 2.803,-2.23 z"
           id="path36"
           style="fill:#f9f9f9" />
        <path
           fill="#B8BCEF"
           transform="scale(2.02564,2.02524)"
           d="m 522.032,230.192 c 2.074,1.563 2.892,2.843 5.664,2.389 -1.069,1.203 -4.004,4.67 -5.119,5.393 -4.873,5.751 -17.551,21.883 -23.608,24.623 4.332,-4.603 1.975,-5.898 5.697,-8.7 4.479,-0.613 12.358,-11.286 15.897,-15.341 -0.823,-1.051 -0.735,-1.133 -1.206,-2.383 l -1.856,-0.061 c 1.649,-1.868 3.061,-3.904 4.531,-5.92 z"
           id="path37"
           style="fill:#f9f9f9" />
        <path
           id="path40"
           d="m 529.38226,268.53202 c -3.16,3.462 -6.84046,7.71913 -10.24946,10.83013 l -8.42808,5.64747 c 2.622,4.667 4.98236,8.14874 8.52836,12.19474 2.85,3.765 6.16118,7.89756 8.58718,11.90156 0.977,-1.476 2.79283,-3.46922 3.99083,-4.86922 l -1.88598,-2.94235 c -1.244,-1.434 -2.97753,-3.84789 -4.18753,-5.41989 l -2.02675,-2.41483 c -0.20241,-0.40405 -0.42434,-0.77478 -0.65662,-1.12352 -1.24116,-1.86345 -2.77105,-3.1007 -3.11726,-5.45846 l 0.7675,-0.90171 c 2.95227,-2.53551 6.22494,-5.32483 8.91983,-7.10756 l 11.12399,13.56995 2.14535,2.74949 c 1.442,-0.737 4.33994,-1.7577 5.98094,-2.3917 -19.5598,-24.2001 -0.0984,-0.0377 -19.4923,-24.2641 z"
           transform="scale(2.02564,2.02524)"
           style="fill:url(#linearGradient70)" />
        <path
           id="path42"
           style="fill:url(#linearGradient73)"
           d="m 478.04625,286.00873 c -2.059,1.992 -4.09423,4.49853 -5.97323,6.70253 1.642,1.224 3.06922,2.19126 4.49222,3.67626 l 2.33337,-2.62218 1.06351,-0.99718 c 3.481,0.377 6.86851,1.14826 10.08651,1.45526 l -3.51837,4.16039 -1.12137,1.41091 c -8.635,9.808 -15.15355,19.50756 -27.61955,23.65556 -1.999,0.068 -7.21201,0.13713 -8.88801,0.51113 3.038,0.915 6.13045,-0.22896 8.36445,0.97404 0.625,1.7 0.4531,2.84862 -0.2719,4.72262 l 7.18041,-2.45437 c 11.34762,-5.66779 19.10752,-15.79405 27.18855,-25.15906 2.68,-3.295 7.27198,-7.82981 7.13798,-11.89481 -4.19713,-4.47665 -4.51858,1.23777 -20.45457,-4.1411 z"
           transform="scale(2.02564,2.02524)"
           sodipodi:nodetypes="cccccccccccccccc" />
        <path
           id="path50"
           style="fill:#aa76ba;fill-opacity:1;stroke-width:2.02544"
           d="m 1141.1006,633.0763 c -15.2221,0.0377 -33.2325,5.10122 -35.2512,27.59704 24.4374,-0.0446 59.2021,5.97941 35.2512,-27.59704 z m -13.5681,2.95725 c 17.0593,18.25454 -1.3749,14.30579 -13.2979,14.16074 1.7433,-9.08923 4.5981,-13.5223 13.2979,-14.16074 z"
           sodipodi:nodetypes="cccccc" />
      </g>
    </g>
  </g>
  <g
     id="g75">
    <path
       fill="#b1f750"
       d="m 486.61784,361.18639 c 13.44822,-3.60492 46.87533,0.51036 61.19255,3.1209 44.37165,8.06248 82.26327,32.48485 107.57769,70.5148 46.49857,69.85256 27.45755,215.70629 -82.39695,199.69879 -15.5083,-2.26016 -25.7702,-13.19038 -33.72286,-25.89269 -6.87502,-2.91837 -30.01593,29.53408 -63.62333,26.85266 -111.94496,-8.92523 -80.55767,-195.43161 23.28676,-185.11099 20.98361,2.086 30.15773,12.17169 42.85849,27.45821 1.21539,-8.69841 1.62862,-15.96497 2.11882,-24.66945 15.34828,-0.14582 30.69655,-0.14987 46.04483,-0.008 -0.15598,40.54125 -10.17277,82.9113 -9.54077,123.52343 0.99459,12.92306 6.79602,24.14694 21.39481,20.0195 35.53783,-10.04721 37.37103,-73.74709 31.4116,-103.22446 -6.49825,-32.15068 -22.76009,-57.26771 -50.3331,-75.08374 -4.07356,-2.49105 -8.27879,-4.75527 -12.59746,-6.78861 -70.91968,-33.7729 -160.90874,-5.95218 -194.91518,67.25822 -17.92692,39.46585 -19.57579,84.40593 -4.5901,125.07882 27.3117,73.48381 108.49125,94.48758 178.17124,76.03764 14.10858,-3.73454 28.32453,-9.57939 41.99152,-14.78425 4.64682,13.39696 6.67246,20.97946 9.8912,34.77539 -23.19358,13.60354 -53.57008,21.00579 -80.00468,23.85936 -101.79449,10.98895 -192.6728,-51.65983 -203.3702,-155.58502 -5.46518,-51.47147 10.12009,-102.9632 43.20892,-142.76524 32.4224,-39.53876 75.6374,-59.36383 125.9462,-64.28517 z"
       id="path51"
       style="stroke-width:2.02544" />
    <path
       fill="#b1f750"
       transform="matrix(2.02564,0,0,2.02524,-848.522,-289.82295)"
       d="m 659.12,321.448 c 6.639,-1.78 23.141,0.252 30.209,1.541 21.905,3.981 40.611,16.04 53.108,34.818 22.955,34.491 13.555,106.509 -40.677,98.605 -7.656,-1.116 -12.722,-6.513 -16.648,-12.785 -3.394,-1.441 -14.818,14.583 -31.409,13.259 -55.264,-4.407 -39.769,-96.498 11.496,-91.402 10.359,1.03 14.888,6.01 21.158,13.558 0.6,-4.295 0.804,-7.883 1.046,-12.181 7.577,-0.072 15.154,-0.074 22.731,-0.004 -0.077,20.018 -5.022,40.939 -4.71,60.992 0.491,6.381 3.355,11.923 10.562,9.885 17.544,-4.961 18.449,-36.414 15.507,-50.969 -3.208,-15.875 -11.236,-28.277 -24.848,-37.074 -2.011,-1.23 -4.087,-2.348 -6.219,-3.352 -35.011,-16.676 -79.436,-2.939 -96.224,33.21 -8.85,19.487 -9.664,41.677 -2.266,61.76 13.483,36.284 53.559,46.655 87.958,37.545 6.965,-1.844 13.983,-4.73 20.73,-7.3 2.294,6.615 3.294,10.359 4.883,17.171 -11.45,6.717 -26.446,10.372 -39.496,11.781 -50.253,5.426 -95.117,-25.508 -100.398,-76.823 -2.698,-25.415 4.996,-50.84 21.331,-70.493 16.006,-19.523 37.34,-29.312 62.176,-31.742 z"
       id="path57"
       style="filter:url(#filter58)" />
    <path
       fill="#e0fbbd"
       d="m 491.4186,488.10818 c 19.42994,-1.29412 36.86665,3.0966 42.39867,23.66493 8.69203,32.31878 -0.97433,74.15619 -35.34944,85.1654 -61.74556,9.17231 -59.06159,-93.56002 -7.04923,-108.83033 z"
       id="path52"
       style="stroke-width:2.02544" />
    <g
       id="g74">
      <path
         fill="#b1f750"
         transform="matrix(2.02564,0,0,2.02524,-848.522,-289.82295)"
         d="m 755.556,292.122 c 6.692,-0.768 19.635,-0.6 25.659,1.065 42.414,11.716 18.241,66.401 31.9,95.156 3.412,7.182 12.27,8.187 19.553,9.911 0.22,6.665 0.296,13.335 0.229,20.004 -1.704,0.271 -8.902,1.477 -10.367,2.043 -25.198,9.721 -7.111,63.401 -19.65,83.984 -6.09,9.998 -9.793,13.705 -20.281,17.159 -9.296,2.445 -18.783,1.845 -28.309,1.489 -0.205,-7.023 -0.143,-13.527 -0.015,-20.558 9.24,-0.054 14.197,0.619 22.244,-4.08 15.842,-25.299 -10.769,-65.714 26.254,-90.218 -5.666,-3.516 -10.668,-7.68 -14.136,-13.459 -12.112,-20.179 -1.205,-65.212 -11.78,-76.785 -5.15,-5.636 -15.467,-4.971 -22.402,-5.351 -0.205,-4.606 -1.269,-17.181 1.101,-20.36 z"
         id="path55"
         style="filter:url(#filter56)" />
      <path
         fill="#b1f750"
         d="m 681.96246,301.7942 c 13.55558,-1.55538 39.77344,-1.21514 51.97589,2.15689 85.9155,23.72771 36.9497,134.47796 64.61792,192.71373 6.91148,14.54528 24.8546,16.58064 39.60734,20.07216 0.44564,13.49822 0.59959,27.00657 0.46387,40.5129 -3.45169,0.54884 -18.03225,2.99128 -20.99981,4.13756 -51.04208,19.68736 -14.40433,128.40224 -39.80383,170.08776 -12.33615,20.24835 -19.83709,27.75591 -41.082,34.75109 -18.83035,4.95171 -38.0476,3.73657 -57.34385,3.01558 -0.41525,-14.22326 -0.28966,-27.39542 -0.0304,-41.63488 18.71691,-0.10936 28.75801,1.25362 45.05834,-8.26298 32.09019,-51.23655 -21.81412,-133.08662 53.18115,-182.7131 -11.47728,-7.12075 -21.60953,-15.55384 -28.63445,-27.25771 -24.53455,-40.86731 -2.44089,-132.06995 -23.86204,-155.50805 -10.43204,-11.41425 -31.33057,-10.06747 -45.37838,-10.83706 -0.41526,-9.32825 -2.57054,-34.79565 2.23023,-41.23389 z"
         id="path53"
         style="stroke-width:2.02544" />
    </g>
    <path
       fill="#b1f750"
       d="m 314.2356,301.79421 c -13.5555,-1.55539 -39.7734,-1.21514 -51.9759,2.15688 -85.9154,23.72771 -36.9497,134.47796 -64.6179,192.71374 -6.9115,14.54527 -24.8546,16.58064 -39.6073,20.07215 -0.4456,13.49823 -0.5996,27.00658 -0.4639,40.5129 3.4517,0.54884 18.0323,2.99128 20.9998,4.13757 51.0421,19.68736 14.4044,128.40224 39.8039,170.0878 12.3361,20.2483 19.837,27.7559 41.082,34.751 18.8303,4.9518 38.0476,3.7366 57.3438,3.0156 0.4153,-14.2232 0.2897,-27.3954 0.03,-41.6349 -18.7169,-0.1093 -28.758,1.2537 -45.0583,-8.2629 -32.0902,-51.23658 21.8141,-133.08666 -53.1812,-182.71314 11.4773,-7.12074 21.6095,-15.55384 28.6344,-27.2577 24.5346,-40.86732 2.4409,-132.06995 23.8621,-155.50806 10.432,-11.41425 31.3306,-10.06746 45.3784,-10.83705 0.4152,-9.32826 2.5705,-34.79565 -2.2303,-41.23389 z"
       id="path58"
       style="stroke-width:2.02544" />
    <path
       fill="#b1f750"
       d="m 314.2356,301.79421 c -13.5555,-1.55539 -39.7734,-1.21514 -51.9759,2.15688 -85.9154,23.72771 -36.9497,134.47796 -64.6179,192.71374 -6.9115,14.54527 -24.8546,16.58064 -39.6073,20.07215 -0.4456,13.49823 -0.5996,27.00658 -0.4639,40.5129 3.4517,0.54884 18.0323,2.99128 20.9998,4.13757 51.0421,19.68736 14.4044,128.40224 39.8039,170.0878 12.3361,20.2483 19.837,27.7559 41.082,34.751 18.8303,4.9518 38.0476,3.7366 57.3438,3.0156 0.4153,-14.2232 0.2897,-27.3954 0.03,-41.6349 -18.7169,-0.1093 -28.758,1.2537 -45.0583,-8.2629 -32.0902,-51.23658 21.8141,-133.08666 -53.1812,-182.71314 11.4773,-7.12074 21.6095,-15.55384 28.6344,-27.2577 24.5346,-40.86732 2.4409,-132.06995 23.8621,-155.50806 10.432,-11.41425 31.3306,-10.06746 45.3784,-10.83705 0.4152,-9.32826 2.5705,-34.79565 -2.2303,-41.23389 z"
       id="path59"
       style="stroke-width:2.02544;filter:url(#filter59)" />
  </g>
</svg>
